<?xml version="1.0" encoding="utf-8"?>
<!-- Generator: Adobe Illustrator 19.1.0, SVG Export Plug-In . SVG Version: 6.00 Build 0)  -->
<svg version="1.1" id="Layer_1" xmlns="http://www.w3.org/2000/svg" xmlns:xlink="http://www.w3.org/1999/xlink" x="0px" y="0px"
	 viewBox="44 -25 388 150" style="enable-background:new 44 -25 388 150;" xml:space="preserve">
<style type="text/css">
	.st0{fill:#009345;}
	.st1{opacity:0.48;}
	.st2{fill:#294C08;}
	.st3{fill:#8BC53F;}
	.st4{opacity:0.8;}
	.st5{opacity:0.75;}
	.st6{fill:#EB008B;stroke:#B00069;stroke-width:0.4359;stroke-miterlimit:10;}
	.st7{fill:#231F20;}
	.st8{fill:none;stroke:#231F20;stroke-width:0.2179;stroke-miterlimit:10;}
	.st9{fill:#EB008B;stroke:#EF67A5;stroke-width:0.2179;stroke-miterlimit:10;}
	.st10{fill:url(#SVGID_1_);stroke:#B00069;stroke-width:0.2179;stroke-miterlimit:10;}
	.st11{fill:url(#SVGID_2_);stroke:#B00069;stroke-width:0.2179;stroke-miterlimit:10;}
	.st12{opacity:0.72;}
	.st13{opacity:0.3;}
	.st14{fill:#EB008B;}
	.st15{fill:#CC007A;}
	.st16{opacity:0.5;}
	.st17{fill:#EE5BA0;}
	.st18{fill:#E6589B;}
	.st19{fill:#EB008B;stroke:#B00069;stroke-width:0.5225;stroke-miterlimit:10;}
	.st20{fill:none;stroke:#231F20;stroke-width:0.2612;stroke-miterlimit:10;}
	.st21{fill:#F6921E;stroke:#FAAF40;stroke-width:0.2612;stroke-miterlimit:10;}
	.st22{fill:url(#SVGID_3_);stroke:#BF7314;stroke-width:0.2612;stroke-miterlimit:10;}
	.st23{fill:url(#SVGID_4_);stroke:#BF7314;stroke-width:0.2612;stroke-miterlimit:10;}
	.st24{fill:#F6921E;}
	.st25{fill:#F05A28;}
	.st26{fill:#FAAF40;}
	.st27{enable-background:new    ;}
	.st28{fill:none;stroke:#231F20;stroke-width:7.0384;stroke-miterlimit:10;}
	.st29{fill:#FFFFFF;}
	.st30{fill:none;stroke:#FFFFFF;stroke-width:7.9734;stroke-miterlimit:10;}
	.st31{fill:none;stroke:#EB008B;stroke-width:2.4712;stroke-miterlimit:10;}
</style>
<g>
	<g>
		<path class="st0" d="M61,80c2.6,2.4,5.5,4.4,8.7,6.1c4.8,2.6,10,4.4,15.3,5.3c2.7,0.4,5.4,0.6,8,0.5c2.7-0.1,5.3-0.6,7.9-1.4
			c3-1,5.8-2.6,8.2-4.9c1.8-1.7,3.3-3.8,4.4-6.2c0.8-1.8,1.4-3.7,1.8-5.8c0.5-3.1,0.6-6.4,0.1-10.1c-0.4-3.6-1.4-7.5-2.8-11.8
			c-2.5-7.5-6.6-15.9-12.5-25.7c-1.9-3.1-5.8-4.1-8.9-2.2c-3.1,1.9-4.1,5.8-2.2,8.9c5.6,9.2,9.2,16.9,11.3,23.1
			c1.4,4.2,2.1,7.7,2.4,10.6c0.2,2.1,0,3.8-0.2,5.2c-0.2,1-0.5,1.9-0.8,2.5c-0.5,1-1.1,1.8-1.9,2.4c-0.8,0.6-1.7,1.2-2.9,1.6
			c-1.6,0.6-3.7,0.8-6,0.8c-3.5-0.1-7.5-1-11.3-2.5c-3.7-1.5-7.2-3.7-9.6-5.9c-2.6-2.4-6.7-2.3-9.2,0.3C58.2,73.4,58.3,77.5,61,80
			L61,80z"/>
	</g>
	<g>
		<path class="st0" d="M57.7,49.3c0.4,0.2,7.1,3.8,15.7,12.9c8.6,9.2,19,24,26.8,46.9c0.5,1.4,0.9,2.7,1.3,4.2
			c1.6,5.3,7.3,8.3,12.6,6.7s8.3-7.3,6.7-12.6c-0.5-1.6-1-3.1-1.5-4.6c-4.5-13.4-10-24.6-15.6-33.8c-8.5-13.8-17.5-23.1-24.5-29
			s-12-8.4-12.6-8.7c-5-2.4-11.1-0.4-13.5,4.7C50.7,40.8,52.8,46.9,57.7,49.3L57.7,49.3"/>
	</g>
	<g class="st1">
		<path class="st2" d="M56,33.8c0,0,0.1-0.1,0.2-0.2c0.2-0.1,0.4-0.4,0.7-0.6c0.7-0.5,1.8-1,3.4-1.1c1.5-0.1,3.4,0,5.5,0.7
			c2.1,0.6,4.4,1.6,6.5,3.2c2.1,1.6,4.2,3.6,6.4,5.7c2.2,2.1,4.4,4.4,6.7,6.8c4.5,4.9,8.9,10.4,13,16.1c2.1,2.9,4,5.8,5.8,8.8
			c1.8,2.9,3.5,5.9,5.1,8.8c1.6,2.9,2.9,5.8,4.2,8.6c0.6,1.4,1.2,2.8,1.7,4.1c0.5,1.3,1,2.6,1.5,3.9c0.4,1.3,0.9,2.4,1.2,3.6
			c0.4,1.2,0.7,2.2,1,3.3c0.6,2.1,0.8,4,0.8,5.5s-0.2,2.8-0.5,3.5c-0.1,0.4-0.3,0.7-0.4,0.8c-0.1,0.2-0.2,0.2-0.2,0.2
			s0.1-0.1,0.2-0.2c0.1-0.2,0.3-0.5,0.4-0.8c0.3-0.8,0.5-2,0.4-3.5c0-1.5-0.3-3.4-0.9-5.4c-0.7-2-1.4-4.3-2.4-6.8
			c-0.5-1.2-1-2.5-1.5-3.8c-0.6-1.3-1.1-2.7-1.8-4c-1.3-2.7-2.7-5.6-4.2-8.5c-3.1-6.1-6.9-12-10.9-17.7c-4.1-5.7-8.5-11.2-12.9-16.1
			c-2.2-2.4-4.4-4.8-6.6-6.9c-2.2-2.1-4.2-4.1-6.3-5.7c-2-1.6-4.3-2.6-6.3-3.3c-2-0.7-3.9-0.9-5.4-0.8c-1.5,0.1-2.7,0.6-3.4,1
			c-0.4,0.2-0.6,0.4-0.8,0.6C56.1,33.7,56,33.8,56,33.8z"/>
	</g>
	<g class="st1">
		<path class="st3" d="M55.3,34c0,0,0.1-0.1,0.2-0.2c0.2-0.1,0.4-0.4,0.7-0.6c0.7-0.5,1.8-1,3.4-1.2c1.6-0.2,3.5,0,5.6,0.6
			c2.1,0.6,4.4,1.5,6.5,3.2c2.1,1.6,4.2,3.5,6.4,5.6s4.5,4.3,6.7,6.8c4.5,4.9,8.9,10.3,13.1,16.1c2.1,2.9,4,5.8,5.8,8.8
			c1.8,2.9,3.5,5.9,5.1,8.9c1.6,2.9,2.9,5.8,4.1,8.6c0.6,1.4,1.1,2.8,1.7,4.1c0.5,1.3,1,2.6,1.4,3.9c0.4,1.3,0.8,2.4,1.2,3.6
			c0.3,1.2,0.7,2.3,1,3.3c0.6,2.1,0.9,3.9,1,5.5c0.1,1.5,0,2.8-0.2,3.6c-0.1,0.4-0.3,0.7-0.4,0.9c-0.1,0.2-0.2,0.2-0.2,0.2
			s0.4-0.3,0.5-1.1c0.2-0.8,0.2-2,0-3.5s-0.6-3.3-1.3-5.3c-0.7-2-1.5-4.3-2.4-6.7c-0.5-1.2-1-2.5-1.5-3.8c-0.6-1.3-1.1-2.6-1.8-4
			s-1.3-2.8-2-4.2c-0.7-1.4-1.4-2.8-2.2-4.3c-3.1-6.1-6.8-12-10.9-17.7c-4-5.7-8.4-11.2-12.8-16c-2.2-2.4-4.4-4.8-6.5-6.9
			c-2.1-2.1-4.2-4.1-6.2-5.7s-4.2-2.6-6.2-3.3c-2-0.7-3.9-0.9-5.4-0.8s-2.7,0.5-3.4,1c-0.4,0.2-0.6,0.4-0.8,0.5
			C55.4,33.9,55.3,34,55.3,34z"/>
	</g>
	<g class="st1">
		<path class="st2" d="M69.1,37.6c0,0,0.3,0.2,0.8,0.6c0.5,0.4,1.2,1,2.1,1.7c0.9,0.8,2,1.7,3.2,2.8c1.2,1.1,2.5,2.4,3.9,3.8
			c1.4,1.4,2.9,3,4.5,4.7c1.5,1.7,3.2,3.5,4.8,5.4s3.2,4,4.8,6c1.6,2.1,3.1,4.3,4.7,6.5c0.7,1.1,1.5,2.2,2.2,3.4
			c0.7,1.1,1.5,2.2,2.1,3.4c1.3,2.3,2.7,4.5,3.9,6.7c1.2,2.2,2.4,4.3,3.3,6.4s2,4,2.6,5.9c0.7,1.9,1.4,3.6,2,5.1
			c0.5,1.5,0.9,2.9,1.3,4c0.7,2.2,1.1,3.5,1.1,3.5s-0.4-1.3-1.2-3.5c-0.4-1.1-0.9-2.4-1.4-4c-0.6-1.5-1.4-3.2-2.1-5
			c-0.7-1.9-1.8-3.8-2.7-5.8c-1-2.1-2.2-4.2-3.4-6.4c-1.1-2.2-2.5-4.4-3.9-6.6c-0.7-1.1-1.4-2.2-2.1-3.3c-0.7-1.1-1.5-2.2-2.2-3.3
			c-1.5-2.2-3.1-4.4-4.6-6.5c-1.6-2.1-3.2-4.1-4.8-6c-1.6-1.9-3.2-3.8-4.7-5.5c-1.5-1.7-3-3.3-4.4-4.8c-1.4-1.4-2.7-2.8-3.8-3.9
			C74,41.7,72.9,40.8,72,40c-0.9-0.8-1.6-1.4-2.1-1.8C69.4,37.8,69.1,37.6,69.1,37.6z"/>
	</g>
	<g class="st1">
		<path class="st3" d="M55.2,34.9c0,0,0.1-0.1,0.2-0.2c0.1-0.1,0.4-0.4,0.7-0.6c0.7-0.5,1.8-1,3.4-0.9c1.6,0.1,3.3,0.8,5.2,1.8
			c0.9,0.5,1.9,1.1,2.9,1.7c0.5,0.3,1,0.7,1.5,1c0.5,0.4,1,0.8,1.5,1.2c2,1.7,4.1,3.6,6.2,5.6c2.1,2.1,4.3,4.3,6.5,6.7
			c4.4,4.8,8.8,10.2,12.8,15.9c2,2.8,3.9,5.7,5.7,8.7c1.8,2.9,3.4,5.8,4.9,8.7c1.5,2.9,2.8,5.7,4,8.5c0.6,1.4,1.1,2.7,1.6,4
			s1,2.6,1.4,3.8c0.4,1.2,0.8,2.4,1.2,3.5c0.3,1.1,0.7,2.2,1,3.2c0.6,2,0.9,3.9,1,5.4s0,2.7-0.2,3.5c-0.1,0.4-0.3,0.7-0.4,0.9
			c-0.1,0.2-0.2,0.2-0.2,0.2s0.4-0.3,0.5-1.1c0.2-0.8,0.2-2,0-3.5s-0.6-3.3-1.3-5.3c-0.7-2-1.4-4.2-2.4-6.6c-0.4-1.2-1-2.4-1.5-3.7
			c-0.5-1.3-1.1-2.6-1.7-3.9c-1.3-2.7-2.6-5.5-4.2-8.3c-1.5-2.8-3.2-5.7-5-8.6c-1.8-2.9-3.7-5.7-5.7-8.5c-3.9-5.6-8.3-11-12.5-15.9
			c-4.3-4.8-8.5-9.2-12.4-12.6c-0.5-0.4-1-0.8-1.4-1.2c-0.5-0.4-1-0.7-1.5-1c-1-0.7-1.9-1.3-2.8-1.8c-1.8-1.1-3.5-1.8-5-2
			c-1.5-0.2-2.6,0.2-3.3,0.6c-0.3,0.2-0.6,0.4-0.7,0.5C55.2,34.9,55.2,34.9,55.2,34.9z"/>
	</g>
	<g class="st1">
		<g class="st4">
			<path class="st3" d="M53.5,38.8c0,0,0,0.4,0.1,1.1c0.2,0.7,0.5,1.7,1.4,2.8c0.4,0.5,0.9,1.1,1.6,1.6c0.6,0.5,1.4,1,2.2,1.5
				c0.8,0.5,1.7,1.1,2.6,1.6c0.9,0.6,1.9,1.1,2.9,1.7c2,1.2,4.3,2.4,6.6,3.8c2.3,1.5,4.7,3.1,6.9,5.2c0.6,0.5,1.1,1,1.6,1.6
				s1.1,1.1,1.6,1.7c1,1.2,2,2.3,2.9,3.6c1.9,2.5,3.7,5.1,5.4,7.8c0.8,1.4,1.6,2.7,2.5,4c0.8,1.4,1.6,2.7,2.3,4.1
				c0.8,1.3,1.5,2.7,2.2,4.1s1.4,2.7,2.1,4c1.3,2.6,2.5,5.3,3.4,7.9s1.7,5,2.3,7.3c0.6,2.3,1.1,4.4,1.6,6.2s1,3.4,1.5,4.7
				c0.3,0.6,0.6,1.1,0.9,1.6c0.3,0.4,0.6,0.8,0.8,1c0.6,0.5,0.8,0.7,0.8,0.7s-0.4-0.2-1-0.6c-0.3-0.3-0.6-0.6-1-1
				c-0.3-0.4-0.7-0.9-1-1.5c-1.4-2.4-2.5-6.3-3.9-10.7c-0.7-2.2-1.6-4.6-2.6-7.1s-2.2-5-3.6-7.6c-1.4-2.5-2.9-5.2-4.4-7.9
				c-0.8-1.3-1.6-2.7-2.3-4c-0.8-1.3-1.6-2.7-2.5-4c-1.7-2.6-3.4-5.2-5.2-7.7c-0.4-0.6-0.9-1.2-1.4-1.8c-0.5-0.6-0.9-1.2-1.4-1.8
				s-1-1.1-1.5-1.7c-0.5-0.5-1-1.1-1.5-1.6c-4.1-4.1-8.9-6.8-12.8-9.4c-1-0.6-1.9-1.3-2.8-1.9c-0.9-0.6-1.7-1.2-2.5-1.8
				c-0.7-0.6-1.5-1.1-2.1-1.7c-0.6-0.6-1.1-1.2-1.5-1.8c-0.8-1.2-1.1-2.3-1.1-3C53.4,39.2,53.5,38.8,53.5,38.8z"/>
		</g>
		<g>
			<g class="st5">
				<path class="st2" d="M52.8,39c0,0,0,0.4,0.1,1.1c0.1,0.7,0.5,1.8,1.3,2.9c0.4,0.6,0.9,1.1,1.6,1.6c0.6,0.5,1.4,1,2.2,1.6
					c1.6,1.1,3.4,2.2,5.4,3.5c2,1.2,4.2,2.5,6.5,3.9c2.3,1.5,4.6,3.2,6.7,5.2c4.3,4.1,8,9.3,11.3,14.6c3.3,5.3,6.4,10.9,9.1,16.1
					c2.8,5.2,4.7,10.4,6.1,14.9c0.7,2.3,1.3,4.3,1.9,6.1c0.6,1.8,1.2,3.4,1.8,4.6s1.3,2,1.9,2.5c0.3,0.2,0.5,0.4,0.6,0.5
					c0.2,0.1,0.2,0.2,0.2,0.2s-0.1-0.1-0.2-0.2c-0.2-0.1-0.4-0.3-0.7-0.5c-0.6-0.5-1.3-1.3-2-2.5c-1.4-2.4-2.5-6.2-4-10.7
					c-0.8-2.2-1.6-4.6-2.7-7.1c-1-2.5-2.2-5-3.6-7.7c-2.8-5.2-5.8-10.7-9.2-16c-3.3-5.3-6.9-10.5-11.2-14.6c-2.1-2-4.3-3.8-6.6-5.2
					c-2.3-1.5-4.5-2.8-6.5-4c-2-1.2-3.8-2.5-5.3-3.6c-0.8-0.6-1.5-1.1-2.1-1.6c-0.6-0.6-1.2-1.1-1.5-1.7c-0.8-1.1-1.1-2.2-1.2-2.9
					C52.8,39.4,52.8,39,52.8,39z"/>
			</g>
		</g>
	</g>
	<g class="st1">
		<g class="st4">
			<path class="st2" d="M55.7,36.6c0,0,0.1,0.4,0.5,1.1c0.3,0.7,0.9,1.6,1.7,2.8c0.8,1.1,2,2.4,3.7,3.5c1.6,1.2,3.4,2.4,5.5,3.7
				c2,1.3,4.3,2.6,6.6,4.2c2.3,1.5,4.6,3.4,6.8,5.6c4.3,4.4,7.9,9.8,11.2,15.3s6.4,11.2,9.2,16.6s5,10.6,6.8,15.1
				c1.8,4.5,3.4,8.2,4.9,10.5c0.8,1.2,1.5,2,2.1,2.5c0.3,0.2,0.5,0.4,0.7,0.5s0.2,0.2,0.2,0.2s-0.1-0.1-0.2-0.2
				c-0.2-0.1-0.4-0.3-0.7-0.5c-0.6-0.5-1.4-1.3-2.2-2.5c-1.6-2.3-3.3-6-5.2-10.5c-1.9-4.4-4.2-9.6-7-14.9c-2.8-5.3-5.9-11-9.3-16.5
				c-3.3-5.5-6.9-10.9-11.1-15.2c-2.1-2.2-4.3-4-6.6-5.6c-2.3-1.6-4.5-2.9-6.5-4.3c-2-1.3-3.8-2.6-5.4-3.8c-1.6-1.2-2.8-2.4-3.6-3.6
				c-0.8-1.1-1.4-2.1-1.7-2.8C55.8,36.9,55.7,36.6,55.7,36.6z"/>
		</g>
	</g>
	<g class="st1">
		<g class="st4">
			<path class="st3" d="M57.1,36.1c0,0,0.2,0.4,0.5,1c0.4,0.7,0.9,1.6,1.8,2.7c0.9,1.1,2.1,2.3,3.7,3.4s3.5,2.3,5.5,3.5
				c2,1.3,4.3,2.5,6.7,4.1c2.3,1.5,4.7,3.4,6.9,5.6c4.4,4.4,8,9.8,11.4,15.3c1.7,2.8,3.3,5.6,4.8,8.4s3,5.6,4.3,8.3
				c1.4,2.7,2.5,5.4,3.6,8c1,2.6,1.9,5.1,2.6,7.4c0.8,2.3,1.4,4.4,2,6.3c0.6,1.8,1.3,3.4,1.9,4.6c0.7,1.2,1.3,2.1,1.9,2.6
				c0.3,0.3,0.5,0.5,0.6,0.6c0.2,0.1,0.2,0.2,0.2,0.2s-0.1-0.1-0.2-0.2c-0.2-0.1-0.4-0.3-0.7-0.5c-0.6-0.5-1.4-1.3-2.1-2.5
				c-1.5-2.4-3-6.2-4.8-10.7c-0.9-2.2-1.8-4.7-2.9-7.2c-1.1-2.5-2.4-5.1-3.8-7.8c-1.4-2.6-3-5.4-4.5-8.1c-1.5-2.8-3.2-5.5-4.8-8.3
				c-1.6-2.7-3.4-5.4-5.2-8s-3.7-5-5.7-7.1s-4.2-4-6.4-5.6c-2.2-1.6-4.4-3-6.4-4.4s-3.8-2.7-5.3-4c-1.6-1.2-2.8-2.5-3.6-3.7
				c-0.8-1.2-1.3-2.2-1.6-2.9C57.2,36.5,57.1,36.1,57.1,36.1z"/>
		</g>
	</g>
	<path class="st6" d="M82.1,36.4l-1,1.1l-0.2,0.1c-0.1,0-2.5,0.9-4.8,3.3c-2.3,2.4-3,4.9-3,5L73,46.1l-1.3,1.4l-0.2,0.1
		c-0.1,0-2.5,0.9-4.8,3.3c-2.3,2.4-3,4.9-3,5l-0.1,0.2l-0.9,1l2.2,2.1l0.6-0.6c1,0.8,2.5,1.6,4.1,1.6c1.7,0.1,3.3-0.7,4.7-2.1
		c1.4-1.5,2-3.1,1.8-4.8c-0.2-1.7-1-3.1-1.9-4l0.7-0.7c1,0.8,2.5,1.6,4.1,1.6c1.7,0.1,3.3-0.7,4.7-2.1c1.4-1.5,2-3.1,1.8-4.8
		c-0.2-1.7-1-3.1-1.9-4l0.7-0.7L82.1,36.4z"/>
	<g>
		<g>
			<path class="st7" d="M82.3,37.1l-1,1.1l-0.2,0.1c-0.1,0-2.5,0.9-4.8,3.3c-2.3,2.4-3,4.9-3,5l-0.1,0.2l-1.3,1.4l-0.2,0.1
				c-0.1,0-2.5,0.9-4.8,3.3c-2.3,2.4-3,4.9-3,5l-0.1,0.2l-0.9,1l2.2,2.1l0.6-0.6c1,0.8,2.5,1.6,4.1,1.6c1.7,0.1,3.3-0.7,4.7-2.1
				c1.4-1.5,2-3.1,1.8-4.8c-0.2-1.7-1-3.1-1.9-4l0.7-0.7c1,0.8,2.5,1.6,4.1,1.6c1.7,0.1,3.3-0.7,4.7-2.1c1.4-1.5,2-3.1,1.8-4.8
				c-0.2-1.7-1-3.1-1.9-4l0.7-0.7L82.3,37.1z"/>
			<path class="st8" d="M82.3,37.1l-1,1.1l-0.2,0.1c-0.1,0-2.5,0.9-4.8,3.3c-2.3,2.4-3,4.9-3,5l-0.1,0.2l-1.3,1.4l-0.2,0.1
				c-0.1,0-2.5,0.9-4.8,3.3c-2.3,2.4-3,4.9-3,5l-0.1,0.2l-0.9,1l2.2,2.1l0.6-0.6c1,0.8,2.5,1.6,4.1,1.6c1.7,0.1,3.3-0.7,4.7-2.1
				c1.4-1.5,2-3.1,1.8-4.8c-0.2-1.7-1-3.1-1.9-4l0.7-0.7c1,0.8,2.5,1.6,4.1,1.6c1.7,0.1,3.3-0.7,4.7-2.1c1.4-1.5,2-3.1,1.8-4.8
				c-0.2-1.7-1-3.1-1.9-4l0.7-0.7L82.3,37.1z"/>
		</g>
	</g>
	<path class="st9" d="M82.1,36.4l-1,1.1l-0.2,0.1c-0.1,0-2.5,0.9-4.8,3.3c-2.3,2.4-3,4.9-3,5L73,46.1l-1.3,1.4l-0.2,0.1
		c-0.1,0-2.5,0.9-4.8,3.3c-2.3,2.4-3,4.9-3,5l-0.1,0.2l-0.9,1l2.2,2.1l0.6-0.6c1,0.8,2.5,1.6,4.1,1.6c1.7,0.1,3.3-0.7,4.7-2.1
		c1.4-1.5,2-3.1,1.8-4.8c-0.2-1.7-1-3.1-1.9-4l0.7-0.7c1,0.8,2.5,1.6,4.1,1.6c1.7,0.1,3.3-0.7,4.7-2.1c1.4-1.5,2-3.1,1.8-4.8
		c-0.2-1.7-1-3.1-1.9-4l0.7-0.7L82.1,36.4z"/>
	
		<linearGradient id="SVGID_1_" gradientUnits="userSpaceOnUse" x1="363.9895" y1="-268.0968" x2="372.9751" y2="-273.2848" gradientTransform="matrix(0.6863 -0.7273 0.7273 0.6863 14.2149 507.5356)">
		<stop  offset="5.618000e-03" style="stop-color:#231F20"/>
		<stop  offset="0.5281" style="stop-color:#676769"/>
		<stop  offset="1" style="stop-color:#231F20"/>
	</linearGradient>
	<path class="st10" d="M73.3,57.1c-4.1,4.3-8.4-0.9-8.4-0.9s0.6-2.2,2.7-4.4c2.1-2.2,4.3-3,4.3-3S77.4,52.8,73.3,57.1z"/>
	
		<linearGradient id="SVGID_2_" gradientUnits="userSpaceOnUse" x1="377.707" y1="-268.1192" x2="386.6928" y2="-273.3071" gradientTransform="matrix(0.6863 -0.7273 0.7273 0.6863 14.2149 507.5356)">
		<stop  offset="5.618000e-03" style="stop-color:#231F20"/>
		<stop  offset="0.5281" style="stop-color:#676769"/>
		<stop  offset="1" style="stop-color:#231F20"/>
	</linearGradient>
	<path class="st11" d="M82.7,47.1c-4.1,4.3-8.4-0.9-8.4-0.9s0.6-2.2,2.7-4.4c2.1-2.2,4.3-3,4.3-3S86.8,42.8,82.7,47.1z"/>
	<g class="st12">
		<g>
			<path d="M86.5,78.1c-1-0.1-2-0.2-2.8-0.3c-0.9-0.2-1.6-0.4-2.3-0.7c-0.7-0.3-1.2-0.7-1.7-1.2c-0.4-0.5-0.7-1.1-0.9-1.9l0,0
				c-0.8-0.9-1.1-1.6-1.2-2.1c-0.1-0.5,0.1-0.9,0.4-1.1s0.7-0.4,1-0.4c0.3-0.1,0.5-0.1,0.5-0.1s0,0.3,0.2,0.5
				c0.2,0.2,0.6,0.4,1.4,0.3c0.7-0.1,1.6-0.5,2.9-1.1c1.1-0.6,2.4-1.3,3.9-2.4c1.8-1.2,3.4-2.7,4.6-4.5c0.9-1.5,1.3-2.9,1.4-4.2
				c0.1-1.3-0.1-2.3-0.4-3c-0.2-0.7-0.5-1.2-0.5-1.2c0.7-0.2,2-0.1,3.4,0.7c1.1,0.7,2.2,1.9,3,3.9c0.2,0.2,0.4,0.4,0.6,0.6
				c1,1.1,1.9,2.7,2.7,4.6c0.7,1.7,1.3,3.7,1.8,5.8c0.4,2,0.7,4.1,0.8,6.1c0.1,2,0.1,4-0.1,5.8c-0.2,1.8-0.6,3.4-1.2,4.7
				c-0.6,1.3-1.4,2.3-2.4,2.8c0.1-0.6,0.1-1.2,0-2c-0.1-0.7-0.3-1.5-0.5-2.3c-0.3-0.8-0.7-1.6-1.1-2.4c-0.5-0.8-1.1-1.5-1.8-2.1
				c-0.7-0.6-1.5-1.2-2.4-1.6c-0.9-0.4-1.9-0.7-3.1-0.9c-1.1-0.1-2.2-0.1-3.3-0.1C88.4,78.1,87.4,78.1,86.5,78.1z"/>
		</g>
	</g>
	<g class="st13">
		<path class="st2" d="M91.1,33.4c0,0,1.5,2.3,3.4,6c1,1.8,2.1,4,3.2,6.3c1.1,2.3,2.3,4.9,3.3,7.4c1,2.6,2,5.2,2.8,7.6
			c0.4,1.2,0.8,2.4,1,3.6c0.3,1.2,0.5,2.3,0.7,3.3s0.3,2,0.3,2.8c0,0.4,0,0.8,0,1.2c0,0.4,0,0.7-0.1,1c-0.1,0.6-0.2,1.1-0.3,1.4
			s-0.1,0.5-0.1,0.5s0-0.2,0.1-0.5c0.3-0.3,0.3-0.8,0.4-1.4c0-0.3,0-0.6,0-1s0-0.8-0.1-1.2c-0.1-0.8-0.3-1.8-0.5-2.8
			c-0.4-2-1.1-4.3-1.9-6.8c-0.8-2.4-1.8-5-2.9-7.5c-1-2.6-2.1-5.1-3.2-7.4c-1.1-2.3-2.1-4.5-3-6.4C92.4,35.8,91.1,33.4,91.1,33.4z"
			/>
	</g>
	<g class="st1">
		<path class="st3" d="M91.5,24.5c0,0-0.1,0.2-0.3,0.5c-0.2,0.4-0.4,0.9-0.5,1.6c-0.1,0.7-0.2,1.6-0.1,2.6c0.1,1,0.5,2.1,1,3.1
			c0.6,1.1,1.3,2.2,2,3.5c0.7,1.2,1.4,2.6,2.2,4c1.5,2.8,2.9,5.8,4.3,8.8c2.7,6.1,5,12.4,6,17.4c0.6,2.4,0.7,4.6,0.6,6
			c-0.1,0.7-0.2,1.3-0.3,1.7c-0.1,0.4-0.2,0.6-0.2,0.6s0.1-0.2,0.1-0.6c0.1-0.4,0.1-1,0.1-1.7c0-1.4-0.4-3.5-1-5.9
			c-0.7-2.3-1.6-5.1-2.7-8c-0.6-1.4-1.2-2.9-1.8-4.4c-0.6-1.5-1.3-3-2-4.5c-1.3-3-2.7-6-4.1-8.9c-0.7-1.4-1.3-2.8-1.9-4
			c-0.6-1.3-1.2-2.5-1.8-3.6c-0.5-1.2-0.8-2.3-0.8-3.4c-0.1-1,0.1-1.9,0.3-2.7c0.2-0.7,0.5-1.2,0.6-1.6
			C91.4,24.6,91.5,24.5,91.5,24.5z"/>
	</g>
	<g class="st13">
		<path class="st2" d="M99.3,27.8c0,0,0.5,0.7,1.2,2c0.8,1.3,1.8,3.2,3,5.5c1.2,2.3,2.5,5,3.7,8c1.2,3,2.4,6.2,3.5,9.5
			c0.5,1.6,0.9,3.3,1.3,5c0.4,1.6,0.7,3.3,1,4.9s0.4,3.2,0.5,4.6c0.1,1.5,0.1,2.9,0,4.2c-0.1,1.3-0.3,2.5-0.5,3.5
			c-0.1,0.5-0.2,1-0.3,1.4c-0.1,0.4-0.3,0.8-0.4,1.2c-0.2,0.7-0.5,1.2-0.6,1.6c-0.2,0.4-0.2,0.6-0.2,0.6s0.1-0.2,0.2-0.6
			c0.1-0.4,0.4-0.9,0.6-1.6c0.1-0.4,0.2-0.8,0.3-1.2c0.1-0.4,0.2-0.9,0.3-1.4c0.1-1,0.3-2.2,0.3-3.5c0.1-1.3,0-2.7-0.1-4.1
			c-0.1-1.5-0.3-3-0.6-4.6s-0.6-3.2-1-4.8s-0.9-3.3-1.4-4.9c-1-3.3-2.2-6.5-3.3-9.5c-1.2-3-2.4-5.7-3.5-8c-1.1-2.3-2-4.2-2.7-5.6
			C99.7,28.6,99.3,27.8,99.3,27.8z"/>
	</g>
	<g class="st1">
		<path class="st3" d="M93.2,23.9c0,0,0.2,0,0.7,0s1.1,0.1,2,0.3c0.8,0.3,1.8,0.7,2.8,1.5c0.5,0.4,0.9,0.9,1.4,1.4
			c0.4,0.6,0.8,1.2,1.2,1.8c1.5,2.5,3.2,5.6,4.8,8.9c1.6,3.3,3.1,7,4.4,10.7c1.2,3.8,2.3,7.6,3,11.3c0.4,1.8,0.6,3.6,0.7,5.3
			c0.1,1.7,0.2,3.3,0.1,4.8c0,1.5-0.2,2.8-0.5,4c-0.1,0.6-0.3,1.1-0.4,1.6c-0.1,0.5-0.3,1-0.4,1.4c-0.3,0.8-0.6,1.4-0.8,1.9
			c-0.2,0.4-0.3,0.6-0.3,0.6s0.1-0.2,0.2-0.7c0.2-0.4,0.4-1.1,0.6-1.9c0.1-0.4,0.2-0.9,0.3-1.4s0.2-1,0.2-1.6
			c0.1-0.6,0.1-1.2,0.1-1.9c0-0.7,0.1-1.4,0-2.1c0-1.5-0.1-3-0.3-4.7s-0.5-3.4-0.9-5.2c-0.4-1.8-0.9-3.6-1.4-5.4s-1.1-3.7-1.8-5.5
			c-1.3-3.7-2.8-7.3-4.2-10.7c-1.5-3.3-2.9-6.5-4.3-9c-0.7-1.3-1.3-2.4-2.2-3.2c-0.8-0.8-1.7-1.3-2.5-1.6c-0.8-0.3-1.4-0.5-1.9-0.5
			C93.5,23.9,93.2,23.9,93.2,23.9z"/>
	</g>
	<g class="st13">
		<path class="st2" d="M92.6,25.6c0,0-0.1,0.2,0.1,0.6c0.1,0.4,0.3,0.9,0.6,1.5c0.6,1.3,1.5,3.1,2.8,5.1c1.3,2.1,2.8,4.4,4.3,7.1
			c1.5,2.7,2.9,5.6,4.2,8.6c1.2,3,2.2,6.1,2.9,9c0.4,1.5,0.7,2.9,0.9,4.3c0.2,1.4,0.4,2.7,0.6,3.9c0.1,1.2,0.2,2.3,0.3,3.3
			c0.1,1,0.1,1.8,0.1,2.5c0,1.4,0,2.2,0,2.2s0-0.8-0.1-2.2c-0.1-0.7-0.1-1.6-0.2-2.5c-0.1-1-0.2-2.1-0.4-3.3
			c-0.2-1.2-0.4-2.5-0.7-3.8c-0.3-1.4-0.6-2.8-1-4.2c-0.8-2.9-1.8-6-3-8.9c-1.2-3-2.6-5.9-4-8.5c-1.4-2.6-2.9-5.1-4.1-7.2
			c-0.6-1-1.1-2.1-1.5-2.9c-0.4-0.9-0.8-1.7-1-2.3c-0.3-0.7-0.4-1.2-0.5-1.6C92.6,25.8,92.6,25.6,92.6,25.6z"/>
	</g>
	<g class="st1">
		<path class="st3" d="M93.3,25.4c0,0,0,0.2,0.1,0.6c0.1,0.4,0.4,0.9,0.7,1.5s0.7,1.4,1.2,2.2c0.5,0.9,1,1.8,1.7,2.8
			c1.3,2,2.9,4.4,4.4,7s3,5.6,4.2,8.6c1.2,3,2.2,6.1,2.9,9.1c0.4,1.5,0.6,2.9,0.9,4.3c0.2,1.4,0.4,2.7,0.5,3.9
			c0.1,1.2,0.2,2.3,0.2,3.3s0,1.8,0,2.6c0,1.4-0.1,2.2-0.1,2.2s-0.1-0.8-0.2-2.2c-0.1-0.7-0.2-1.6-0.3-2.5c-0.1-1-0.3-2.1-0.5-3.3
			c-0.2-1.2-0.5-2.5-0.7-3.8c-0.3-1.3-0.6-2.8-1-4.2c-0.4-1.4-0.9-2.9-1.4-4.4s-1.1-3-1.7-4.5c-1.2-3-2.6-5.8-4-8.5
			c-1.4-2.7-2.8-5.1-4-7.2c-0.6-1.1-1.1-2.1-1.5-3s-0.7-1.7-1-2.4s-0.4-1.2-0.5-1.6C93.2,25.6,93.3,25.4,93.3,25.4z"/>
	</g>
	<g class="st13">
		<path class="st2" d="M62,70.9c0,0,0.1-0.1,0.3-0.2c0.2-0.1,0.4-0.3,0.8-0.5c0.7-0.3,1.9-0.6,3.3-0.4c0.7,0.1,1.5,0.3,2.2,0.7
			c0.7,0.4,1.5,0.9,2.1,1.5c0.6,0.5,1.3,1,2,1.5c0.7,0.5,1.5,1,2.2,1.4c1.5,0.9,3.1,1.8,4.5,2.5c1.5,0.8,2.9,1.4,4.1,1.9
			c1.2,0.5,2.3,0.8,3.1,0.9c0.8,0.1,1.2,0.2,1.2,0.2s-0.1,0-0.3,0.1c-0.2,0-0.5,0.1-0.9,0.1c-0.8,0-2-0.1-3.3-0.4
			c-1.3-0.3-2.9-0.8-4.4-1.5c-1.6-0.7-3.2-1.5-4.7-2.5c-0.8-0.5-1.5-1-2.3-1.5c-0.7-0.5-1.4-1.1-2.1-1.7c-0.6-0.6-1.1-1.1-1.7-1.5
			s-1.2-0.7-1.9-0.8c-1.2-0.4-2.3-0.3-3.1-0.2c-0.4,0.1-0.7,0.2-0.9,0.2C62.1,70.9,62,70.9,62,70.9z"/>
	</g>
	<g class="st1">
		<path class="st3" d="M61.3,71.1c0,0,0.1-0.1,0.3-0.2c0.2-0.1,0.4-0.3,0.8-0.5c0.7-0.3,1.9-0.6,3.3-0.4c0.7,0.1,1.5,0.3,2.2,0.7
			c0.7,0.4,1.5,0.9,2.1,1.5c0.6,0.5,1.3,1,2,1.5s1.5,1,2.2,1.4c1.5,0.9,3.1,1.8,4.5,2.5c1.5,0.8,2.9,1.4,4.1,1.9
			c1.2,0.5,2.3,0.8,3.1,0.9s1.2,0.2,1.2,0.2s-0.1,0-0.3,0.1c-0.2,0-0.5,0.1-0.9,0.1c-0.8,0-2-0.1-3.3-0.4c-1.3-0.3-2.9-0.8-4.4-1.5
			c-1.6-0.7-3.2-1.5-4.7-2.5c-0.8-0.5-1.5-1-2.3-1.5c-0.7-0.5-1.4-1.1-2.1-1.7c-0.6-0.6-1.1-1.1-1.7-1.5c-0.6-0.4-1.2-0.7-1.9-0.8
			c-1.2-0.4-2.3-0.3-3.1-0.2c-0.4,0.1-0.7,0.2-0.9,0.2C61.5,71.1,61.3,71.1,61.3,71.1z"/>
	</g>
	<g class="st13">
		<path class="st2" d="M59.5,74.3c0,0,0.1,0.6,0.6,1.5c0.4,0.9,1.2,2.2,2.4,3.4c0.6,0.6,1.3,1.2,2.2,1.8c0.8,0.6,1.8,1,2.7,1.5
			c1,0.5,2,1.1,3,1.7s2,1.1,3.1,1.7c1,0.5,2.1,1,3.1,1.5c1.1,0.5,2.1,0.9,3.1,1.2c1,0.3,2.1,0.6,3,0.9c1,0.2,1.9,0.5,2.8,0.6
			c0.9,0.2,1.7,0.3,2.4,0.4s1.3,0.2,1.8,0.3c1,0.1,1.6,0.2,1.6,0.2s-0.6,0-1.6-0.1c-0.5,0-1.1-0.1-1.9-0.1c-0.7-0.1-1.5-0.1-2.4-0.3
			c-0.9-0.1-1.8-0.3-2.8-0.5s-2-0.5-3.1-0.8s-2.1-0.7-3.2-1.2c-1.1-0.4-2.2-0.9-3.2-1.5c-2.1-1.1-4.1-2.3-6-3.4
			c-1-0.5-1.9-1-2.8-1.6c-0.8-0.6-1.6-1.2-2.2-1.9c-1.2-1.3-1.9-2.7-2.3-3.6C59.6,74.9,59.5,74.3,59.5,74.3z"/>
	</g>
	<g class="st1">
		<path class="st3" d="M59.1,73.5c0,0,0.3,0.6,0.8,1.4c0.5,0.9,1.4,2.1,2.7,3.3c0.6,0.6,1.4,1.2,2.2,1.8c0.4,0.3,0.9,0.5,1.3,0.8
			c0.5,0.2,1,0.5,1.4,0.7c1,0.5,2.1,1.1,3.1,1.7s2.1,1.2,3.1,1.7c1,0.6,2.1,1.1,3.2,1.6s2.1,0.9,3.2,1.3c1.1,0.4,2.1,0.7,3.1,1
			c1,0.2,1.9,0.5,2.8,0.7s1.7,0.4,2.4,0.5s1.4,0.3,1.9,0.3c1,0.2,1.6,0.3,1.6,0.3s-0.6,0-1.7,0c-0.5,0-1.2,0-1.9-0.1
			c-0.7,0-1.6-0.1-2.5-0.2s-1.9-0.3-2.9-0.5s-2.1-0.5-3.2-0.8c-1.1-0.3-2.2-0.7-3.3-1.2s-2.2-1-3.3-1.6C72,85.6,71,85,69.9,84.4
			c-1-0.6-2-1.2-3-1.7c-0.5-0.3-1-0.6-1.5-0.9s-0.9-0.6-1.3-1c-0.8-0.7-1.5-1.4-2.1-2.1c-1.2-1.4-1.9-2.8-2.3-3.8
			C59.3,74.1,59.1,73.5,59.1,73.5z"/>
	</g>
	<g class="st13">
		<path class="st2" d="M61.4,73.5c0,0,1.7,0.9,4.4,2.2c1.3,0.7,2.8,1.5,4.4,2.3c1.6,0.8,3.3,1.8,5.1,2.6c1.7,0.9,3.5,1.7,5.1,2.5
			c0.8,0.4,1.6,0.7,2.4,1.1c0.8,0.3,1.5,0.7,2.2,0.9c0.7,0.2,1.3,0.5,1.9,0.7s1.1,0.4,1.5,0.4c0.8,0.2,1.3,0.3,1.3,0.3s-0.5,0-1.4,0
			c-0.4,0-1-0.1-1.6-0.2c-0.6-0.1-1.3-0.3-2-0.4c-1.4-0.4-3.1-0.9-4.8-1.6c-0.8-0.4-1.7-0.7-2.6-1.1s-1.8-0.8-2.6-1.3
			c-1.7-0.9-3.5-1.9-5-2.8c-0.8-0.5-1.5-0.9-2.3-1.4c-0.7-0.4-1.4-0.9-2-1.3c-1.2-0.8-2.2-1.6-2.9-2.1
			C61.7,73.8,61.4,73.5,61.4,73.5z"/>
	</g>
	<g class="st1">
		<path class="st3" d="M61.1,72.8c0,0,1.7,0.9,4.4,2.2c1.3,0.7,2.8,1.5,4.4,2.3s3.3,1.8,5.1,2.6c1.7,0.9,3.5,1.7,5.1,2.5
			c0.8,0.4,1.6,0.7,2.4,1.1c0.8,0.3,1.5,0.7,2.2,0.9c0.7,0.2,1.3,0.5,1.9,0.7c0.6,0.2,1.1,0.4,1.5,0.4c0.8,0.2,1.3,0.3,1.3,0.3
			s-0.5,0-1.4,0c-0.4,0-1-0.1-1.6-0.2s-1.3-0.3-2-0.4c-1.4-0.4-3.1-0.9-4.8-1.6c-0.8-0.4-1.7-0.7-2.6-1.1s-1.8-0.8-2.6-1.3
			c-1.7-0.9-3.5-1.9-5-2.8c-0.8-0.5-1.5-0.9-2.3-1.4c-0.7-0.4-1.4-0.9-2-1.3c-1.2-0.8-2.2-1.6-2.9-2.1
			C61.5,73.1,61.1,72.8,61.1,72.8z"/>
	</g>
	<path class="st14" d="M86,76.7c-1-0.1-2-0.2-2.8-0.3c-0.9-0.2-1.6-0.4-2.3-0.7c-0.7-0.3-1.2-0.7-1.7-1.2c-0.4-0.5-0.7-1.1-0.9-1.9
		l0,0c-0.8-0.9-1.1-1.6-1.2-2.1c-0.1-0.5,0.1-0.9,0.4-1.1s0.7-0.4,1-0.4c0.3-0.1,0.5-0.1,0.5-0.1s0,0.3,0.2,0.5
		c0.2,0.2,0.6,0.4,1.4,0.3c0.7-0.1,1.6-0.5,2.9-1.1c1.1-0.6,2.4-1.3,3.9-2.4c1.8-1.2,3.4-2.7,4.6-4.5c0.9-1.5,1.3-2.9,1.4-4.2
		c0.1-1.3-0.1-2.3-0.4-3c-0.2-0.7-0.5-1.2-0.5-1.2c0.7-0.2,2-0.1,3.4,0.7c1.1,0.7,2.2,1.9,3,3.9c0.2,0.2,0.4,0.4,0.6,0.6
		c1,1.1,1.9,2.7,2.7,4.6c0.7,1.7,1.3,3.7,1.8,5.8c0.4,2,0.7,4.1,0.8,6.1c0.1,2,0.1,4-0.1,5.8c-0.2,1.8-0.6,3.4-1.2,4.7
		c-0.6,1.3-1.4,2.3-2.4,2.8c0.1-0.6,0.1-1.2,0-2c-0.1-0.7-0.3-1.5-0.5-2.3c-0.3-0.8-0.7-1.6-1.1-2.4c-0.5-0.8-1.1-1.5-1.8-2.1
		c-0.7-0.6-1.5-1.2-2.4-1.6c-0.9-0.4-1.9-0.7-3.1-0.9c-1.1-0.1-2.2-0.1-3.3-0.1C87.9,76.8,86.9,76.7,86,76.7z"/>
	<g>
		<path class="st15" d="M98.9,58.3c0,0,0.1,0.2,0.1,0.5c0.1,0.3,0.1,0.8,0,1.4c-0.1,0.3-0.1,0.6-0.2,0.9c-0.1,0.3-0.2,0.6-0.4,1
			c-0.2,0.3-0.3,0.6-0.5,0.9c-0.2,0.3-0.4,0.6-0.7,0.9c-0.2,0.3-0.5,0.6-0.7,0.9c-0.3,0.3-0.5,0.5-0.8,0.7c-0.5,0.4-1.1,0.8-1.6,1
			c-1,0.5-1.7,0.7-1.7,0.7l-0.1-0.1c0,0,0.6-0.4,1.4-1.1s1.8-1.7,2.7-2.8c0.9-1.1,1.7-2.3,2-3.2c0.1-0.2,0.2-0.5,0.2-0.7
			c0.1-0.1,0.1-0.3,0.1-0.5c0-0.3,0-0.5,0-0.5H98.9z"/>
	</g>
	<g class="st16">
		<path class="st17" d="M98.4,57.5c0,0,0.1,0.2,0.2,0.5c0.1,0.3,0.1,0.8,0.1,1.4c0,0.3-0.1,0.6-0.2,0.9s-0.2,0.7-0.3,1
			c-0.1,0.3-0.3,0.7-0.5,1c-0.2,0.3-0.4,0.6-0.6,0.9s-0.5,0.6-0.7,0.8c-0.2,0.3-0.5,0.5-0.8,0.7c-0.5,0.5-1,0.8-1.5,1.1
			c-0.9,0.6-1.7,0.8-1.7,0.8l-0.1-0.1c0,0,0.5-0.5,1.3-1.2s1.7-1.8,2.5-2.9c0.9-1.1,1.5-2.3,1.9-3.3c0.1-0.3,0.1-0.5,0.2-0.7
			c0-0.2,0.1-0.4,0.1-0.5C98.3,57.6,98.3,57.4,98.4,57.5L98.4,57.5z"/>
	</g>
	<g>
		<path class="st15" d="M79.5,72.8c0,0,0.9,0.1,2.1,0.1c0.3,0,0.6,0,1,0c0.4,0,0.7,0,1.1,0c0.4,0,0.8,0,1.2,0s0.8,0,1.2-0.1
			c0.4,0,0.8,0,1.2-0.1s0.8,0,1.2-0.1c0.4,0,0.8-0.1,1.1-0.1c0.4,0,0.7-0.1,1-0.1c0.6,0,1.2-0.1,1.6-0.1s0.6,0,0.6,0v0.1
			c0,0-0.2,0.1-0.6,0.2c-0.4,0.1-0.9,0.3-1.5,0.4c-0.6,0.2-1.3,0.3-2.1,0.5c-0.8,0.1-1.6,0.2-2.5,0.3c-0.9,0-1.7,0-2.5,0
			c-0.8-0.1-1.5-0.2-2.2-0.3C80.2,73.3,79.4,72.9,79.5,72.8L79.5,72.8z"/>
	</g>
	<g class="st16">
		<path class="st18" d="M79.2,71.7c0,0,0.2,0,0.6,0c0.2,0,0.4,0,0.7,0c0.3,0,0.6,0,0.9,0s0.6,0,1,0c0.3,0,0.7,0,1.1,0s0.8,0,1.2,0
			c0.4,0,0.8,0,1.2,0s0.8,0,1.2,0s0.8,0,1.2,0s0.8,0,1.1,0c0.4,0,0.7,0,1,0c0.6,0.1,1.2,0.1,1.6,0.1c0.4,0.1,0.6,0.1,0.6,0.1V72
			c0,0-0.2,0-0.6,0.1c-0.4,0.1-0.9,0.2-1.5,0.3c-0.6,0.1-1.4,0.2-2.2,0.3c-0.8,0.1-1.7,0.1-2.5,0.1c-0.9,0-1.7-0.1-2.5-0.2
			c-0.8-0.1-1.5-0.3-2.1-0.4c-1.2-0.3-2-0.8-2-0.8V71.7z"/>
	</g>
</g>
<g>
	<g>
		<path class="st0" d="M185,37c-1.9,3.7-4.4,7.3-7.2,10.5c-4.3,4.8-9.5,9.1-15.1,12.3c-2.8,1.6-5.8,2.9-8.8,3.9s-6.2,1.6-9.4,1.7
			c-3.7,0.1-7.6-0.5-11.3-2.1c-2.7-1.2-5.3-3-7.5-5.2c-1.7-1.7-3.1-3.6-4.4-5.8c-1.9-3.3-3.3-7-4.3-11.3c-1-4.3-1.6-9-1.7-14.4
			c-0.3-9.4,0.8-20.5,3.3-34c0.8-4.2,4.9-7,9.1-6.2c4.2,0.8,7,4.9,6.2,9.1c-2.4,12.7-3.3,22.8-3.1,30.7c0.2,5.3,0.8,9.6,1.7,12.9
			c0.7,2.5,1.6,4.3,2.4,5.8c0.7,1.1,1.3,1.9,2,2.5c1,0.9,2,1.5,3.1,1.9c1.1,0.4,2.4,0.6,3.9,0.6c2.1-0.1,4.5-0.6,7.1-1.6
			c3.9-1.5,8-4.2,11.6-7.5c3.6-3.3,6.6-7.1,8.4-10.7c1.9-3.8,6.6-5.4,10.5-3.4C185.4,28.5,186.9,33.1,185,37L185,37z"/>
	</g>
	<g>
		<path class="st0" d="M175.8,1.1c-0.3,0.4-6.5,7.2-12.3,21.1s-12.2,48-11.4,77c0,1.7,0.1,3.5,0.2,5.2c0.4,6.7-4.8,12.4-11.4,12.7
			c-6.7,0.4-12.4-4.8-12.7-11.4c-0.1-2-0.2-3.9-0.2-5.8c-0.5-17,1.8-44.9,4.4-57.6c3.8-19,10-33.2,15.5-42.8
			c5.4-9.6,10-14.5,10.6-15.1c4.6-4.8,12.3-5,17.1-0.4C180.2-11.3,180.4-3.6,175.8,1.1L175.8,1.1"/>
	</g>
	<g class="st1">
		<path class="st2" d="M171.4-17c0,0-0.1-0.1-0.4-0.2s-0.7-0.2-1.2-0.3c-1.1-0.2-2.7-0.2-4.6,0.4c-1.9,0.6-4.1,1.9-6.2,3.7
			c-2.1,1.8-4.3,4.2-5.7,7.4c-3,6.2-5.8,13.8-8.6,22c-2.8,8.2-5.4,17-7.7,26c-1.1,4.5-2.2,9-3,13.4c-0.9,4.5-1.7,8.9-2.3,13.1
			c-0.6,4.3-1.1,8.4-1.4,12.4c-0.1,1-0.2,2-0.2,2.9c-0.1,1-0.1,1.9-0.2,2.8c-0.1,1.9-0.1,3.7-0.2,5.4c-0.1,3.5,0,6.6,0.1,9.4
			c0,2.8,0.5,5.2,1.1,7.2c0.6,1.9,1.3,3.3,2,4.2c0.7,0.9,1.2,1.1,1.2,1.1s-0.1,0-0.4-0.2c-0.2-0.2-0.5-0.4-0.9-0.9
			c-0.7-0.8-1.5-2.3-2.1-4.2c-0.6-1.9-1.2-4.4-1.3-7.2c-0.2-2.8-0.3-6-0.3-9.5c0-1.7,0-3.5,0.1-5.4c0-0.9,0.1-1.9,0.1-2.8
			c0.1-1,0.1-1.9,0.2-2.9c0.1-2,0.3-4,0.5-6.1s0.5-4.2,0.8-6.3c0.6-4.3,1.4-8.7,2.2-13.2c0.9-4.5,1.9-9,3-13.5
			c2.3-9,4.9-17.8,7.8-26c1.4-4.1,2.9-8,4.4-11.7s3-7.1,4.5-10.3c1.4-3.3,3.8-5.6,5.9-7.4c2.2-1.8,4.4-3,6.3-3.6
			c1.9-0.6,3.6-0.6,4.7-0.3c0.7,0.2,1.1,0.3,1.4,0.4C171.2-17.1,171.4-17,171.4-17z"/>
	</g>
	<g class="st1">
		<path class="st3" d="M172.2-17c0,0-0.1-0.1-0.4-0.2s-0.7-0.2-1.2-0.3c-1.1-0.2-2.7-0.2-4.5,0.5c-1.9,0.7-4,1.9-6.1,3.7
			c-2,1.9-4.3,4.2-5.6,7.3c-2.9,6.2-5.7,13.8-8.5,22c-1.4,4.1-2.7,8.3-4,12.7c-1.3,4.3-2.5,8.8-3.6,13.2c-1.1,4.5-2.2,8.9-3,13.4
			c-0.9,4.4-1.7,8.8-2.3,13.1c-0.6,4.3-1.1,8.4-1.5,12.3c-0.2,2-0.3,3.9-0.4,5.7c-0.1,1.9-0.2,3.6-0.2,5.4c-0.1,3.4-0.1,6.6,0,9.4
			c0,2.8,0.3,5.2,0.7,7.2s0.9,3.5,1.5,4.4c0.3,0.5,0.5,0.8,0.8,1c0.2,0.2,0.4,0.2,0.4,0.2s-0.1,0-0.4-0.2c-0.2-0.2-0.5-0.5-0.8-0.9
			c-0.6-0.9-1.2-2.4-1.7-4.4s-0.9-4.4-1-7.2c-0.2-2.8-0.3-6-0.3-9.5c0-1.7,0-3.5,0.1-5.4c0.1-1.9,0.2-3.8,0.3-5.8s0.3-4,0.5-6.1
			s0.5-4.2,0.8-6.3c1.1-8.6,3-17.7,5.2-26.6c1.1-4.5,2.4-8.9,3.7-13.3c1.3-4.4,2.7-8.6,4.1-12.7c1.4-4.1,2.9-8,4.4-11.7
			s3-7.1,4.6-10.2c1.4-3.3,3.8-5.6,6-7.4s4.5-3,6.4-3.5c2-0.6,3.6-0.5,4.7-0.3C171.4-17.4,171.8-17.2,172.2-17
			C172.1-17.1,172.2-17,172.2-17z"/>
	</g>
	<g class="st1">
		<path class="st2" d="M158.2-7.3c0,0-0.2,0.4-0.6,1.1c-0.4,0.7-0.9,1.9-1.6,3.3c-0.6,1.5-1.4,3.2-2.2,5.2c-0.8,2-1.7,4.3-2.6,6.9
			c-1,2.5-1.9,5.3-2.9,8.2c-0.5,1.5-1,3-1.5,4.5s-1,3.1-1.5,4.7s-1,3.3-1.5,4.9c-0.5,1.7-0.9,3.4-1.4,5.1c-1,3.4-1.8,6.9-2.6,10.4
			c-0.9,3.5-1.5,7-2.3,10.5c-0.6,3.5-1.3,6.9-1.8,10.2c-0.2,1.7-0.5,3.3-0.7,4.9s-0.5,3.2-0.6,4.7c-0.3,3.1-0.6,6-0.8,8.7
			c-0.1,2.7-0.2,5.2-0.3,7.4c-0.1,1.1-0.1,2.1-0.1,3.1c0,0.9,0,1.8,0,2.6c0,3.1,0.1,4.9,0.1,4.9s-0.1-1.8-0.2-4.9
			c0-0.8-0.1-1.7-0.1-2.6s-0.1-2,0-3.1c0.1-2.2,0.1-4.7,0.2-7.4c0.2-2.7,0.4-5.6,0.7-8.7s0.8-6.3,1.2-9.7c0.5-3.3,1.1-6.8,1.7-10.3
			c0.8-3.5,1.4-7,2.3-10.5c0.9-3.5,1.7-7,2.7-10.4c0.5-1.7,1-3.4,1.4-5.1c0.5-1.7,1-3.3,1.5-4.9c1-3.2,2.1-6.3,3.1-9.2
			c1.1-2.9,2-5.7,3-8.2c0.5-1.3,1-2.5,1.4-3.6c0.5-1.1,0.9-2.2,1.4-3.2c0.8-2,1.7-3.7,2.3-5.2c0.7-1.4,1.2-2.5,1.7-3.3
			C157.9-7,158.2-7.3,158.2-7.3z"/>
	</g>
	<g class="st1">
		<path class="st3" d="M172.8-16.1c0,0-0.1-0.1-0.4-0.1c-0.3-0.1-0.6-0.2-1.2-0.3c-1-0.2-2.7-0.1-4.3,1c-1.7,1-3.3,2.8-5,5
			c-0.8,1.1-1.7,2.3-2.5,3.6s-1.5,2.8-2.2,4.3c-2.8,6.2-5.5,13.7-8.2,21.7c-2.7,8.1-5.2,16.8-7.4,25.6c-1.1,4.4-2.1,8.8-2.9,13.2
			s-1.6,8.7-2.2,12.9c-0.6,4.2-1.1,8.3-1.4,12.1c-0.4,3.9-0.5,7.5-0.6,10.9c-0.1,3.4,0,6.5,0,9.3s0.3,5.1,0.7,7.1
			c0.4,1.9,0.9,3.4,1.5,4.3c0.3,0.5,0.5,0.8,0.8,0.9c0.2,0.2,0.4,0.2,0.4,0.2s-0.1,0-0.4-0.2c-0.2-0.2-0.5-0.5-0.8-0.9
			c-0.6-0.9-1.2-2.4-1.7-4.3s-0.9-4.4-1.1-7.1c-0.2-2.8-0.3-5.9-0.3-9.3s0.1-7.1,0.4-11c0.2-3.9,0.7-8,1.2-12.3
			c0.6-4.2,1.3-8.6,2.1-13c0.9-4.4,1.8-8.9,2.9-13.3c2.2-8.8,4.8-17.6,7.6-25.6c2.8-8.1,5.8-15.5,8.7-21.7c0.7-1.5,1.5-3,2.3-4.4
			c0.9-1.3,1.8-2.4,2.7-3.5c1.8-2.1,3.6-3.9,5.4-4.8c0.9-0.5,1.8-0.8,2.6-0.8c0.8-0.1,1.5,0,2,0.1s0.9,0.3,1.2,0.4
			C172.6-16.1,172.8-16.1,172.8-16.1z"/>
	</g>
	<g class="st1">
		<g class="st4">
			<path class="st3" d="M176.3-12.4c0,0,0.3,0.5,0.5,1.4c0.2,1,0.3,2.5-0.2,4.3c-0.3,0.9-0.7,1.9-1.3,2.8c-0.6,0.9-1.2,2-1.9,3
				c-1.4,2.2-3.1,4.5-5,7c-1.9,2.5-4,5.1-5.9,8.1c-1.9,3-3.6,6.2-5,9.8c-1.4,3.6-2.5,7.4-3.5,11.4c-1,4-1.8,8-2.5,12.1
				c-0.8,4.1-1.4,8.2-2,12.2c-0.7,4-1.1,8-1.3,11.9c-0.2,3.9-0.3,7.6-0.3,11.2s0,7,0.1,10.1c0,6.3,0,11.5-0.6,15.2
				c-0.3,1.8-0.7,3.2-1.2,4.1c-0.2,0.4-0.4,0.8-0.6,1s-0.2,0.3-0.2,0.3s0.1-0.1,0.2-0.3c0.1-0.2,0.3-0.5,0.5-1
				c0.3-0.9,0.7-2.3,0.8-4.1c0.4-3.6,0.1-8.8-0.2-15.1c-0.3-6.2-0.8-13.6-0.6-21.5c0.1-3.9,0.5-8,1.1-12.1c0.5-4.1,1.1-8.2,1.9-12.4
				c0.7-4.1,1.5-8.3,2.6-12.3c1-4,2.2-8,3.7-11.6c1.5-3.7,3.3-7.1,5.5-10.1c2.1-3,4.4-5.6,6.4-7.9c2-2.4,3.8-4.6,5.3-6.6
				c0.8-1,1.5-2,2.1-2.9c0.6-0.9,1.1-1.7,1.4-2.6c0.6-1.7,0.7-3.1,0.6-4.1C176.5-11.9,176.3-12.4,176.3-12.4z"/>
		</g>
		<g>
			<g class="st5">
				<path class="st2" d="M177.1-12.4c0,0,0.3,0.5,0.4,1.4c0.2,1,0.2,2.4-0.3,4.2s-1.9,3.6-3.3,5.7c-1.4,2.1-3.2,4.4-5.1,6.9
					c-1.9,2.5-4.1,5.1-6.1,8c-2,3-3.7,6.3-5.1,9.9c-1.4,3.6-2.6,7.5-3.5,11.5c-1,4-1.8,8.1-2.6,12.2c-0.8,4.1-1.4,8.2-2,12.3
					c-0.6,4.1-1,8.1-1.3,12c-0.5,7.8-0.3,15.1-0.3,21.4s-0.1,11.5-0.7,15.1c-0.3,1.8-0.7,3.2-1.1,4.1c-0.2,0.4-0.4,0.8-0.5,1
					c-0.1,0.2-0.2,0.3-0.2,0.3s0.1-0.1,0.2-0.3c0.1-0.2,0.3-0.5,0.5-1c0.4-0.9,0.8-2.3,1-4.1c0.5-3.6,0.5-8.8,0.4-15.1
					c-0.1-6.3-0.3-13.6,0.1-21.4c0.2-3.9,0.6-8,1.2-12c0.6-4.1,1.2-8.2,1.9-12.3c0.7-4.1,1.5-8.2,2.6-12.2c1-4,2.2-7.9,3.6-11.6
					c1.5-3.7,3.2-7.1,5.3-10c2-3,4.3-5.6,6.2-8c2-2.4,3.7-4.7,5.2-6.7c1.5-2.1,2.8-3.9,3.4-5.6c0.6-1.7,0.6-3.2,0.5-4.2
					C177.4-12,177.1-12.4,177.1-12.4z"/>
			</g>
		</g>
	</g>
	<g class="st1">
		<g class="st4">
			<path class="st2" d="M172.8-14c0,0,0,0.5-0.1,1.5c-0.1,1-0.3,2.5-0.9,4.3c-0.3,0.9-0.7,1.9-1.2,2.9s-1.2,2-1.9,3.1
				c-1.4,2.2-3.1,4.6-5,7.2c-1.9,2.6-4.1,5.3-6,8.4c-1.9,3.1-3.6,6.6-4.9,10.3c-1.4,3.7-2.4,7.7-3.3,11.8c-0.9,4.1-1.7,8.3-2.4,12.5
				c-0.7,4.2-1.4,8.4-1.9,12.6c-0.6,4.2-1,8.3-1.4,12.3c-0.7,8-1,15.5-1.4,21.8c-0.4,6.4-1,11.7-1.8,15.4c-0.4,1.8-0.9,3.2-1.3,4.1
				c-0.2,0.4-0.4,0.8-0.6,1c-0.1,0.2-0.2,0.3-0.2,0.3s0.1-0.1,0.2-0.3c0.2-0.2,0.3-0.6,0.5-1c0.4-0.9,0.9-2.3,1.2-4.2
				c0.7-3.7,1.2-9,1.5-15.4s0.6-13.9,1.1-21.9c0.3-4,0.7-8.1,1.3-12.3c0.6-4.2,1.2-8.4,1.9-12.6c0.7-4.2,1.5-8.4,2.4-12.5
				c1-4.1,2-8.1,3.4-11.9c1.4-3.8,3.1-7.3,5.1-10.4s4.2-5.8,6.2-8.3s3.7-4.9,5.2-7c0.7-1.1,1.4-2.1,2-3.1c0.5-1,0.9-1.9,1.2-2.8
				c0.6-1.8,0.8-3.2,1-4.2C172.8-13.5,172.8-14,172.8-14z"/>
		</g>
	</g>
	<g class="st1">
		<g class="st4">
			<path class="st3" d="M171.1-14c0,0,0,0.5,0,1.5c-0.1,1-0.2,2.5-0.8,4.3c-0.2,1-0.6,1.9-1.1,3S168-3.1,167.4-2
				c-1.4,2.2-3,4.7-4.9,7.3c-1.9,2.6-4,5.4-5.8,8.4c-1.9,3.1-3.5,6.5-4.8,10.2s-2.3,7.7-3.3,11.7c-0.9,4.1-1.7,8.2-2.4,12.4
				c-0.7,4.2-1.4,8.4-2,12.5c-0.7,4.3-1.1,8.3-1.4,12.3s-0.4,7.8-0.6,11.5c-0.1,3.7-0.2,7.1-0.3,10.3c-0.2,6.4-0.6,11.8-1.3,15.5
				c-0.4,1.8-0.8,3.3-1.3,4.2c-0.4,0.9-0.8,1.3-0.8,1.3s0.3-0.4,0.7-1.4c0.4-0.9,0.7-2.3,1-4.2c0.5-3.7,0.6-9,0.5-15.4
				c0-6.4-0.2-13.9,0.1-21.9c0.1-4,0.5-8.2,1.1-12.4c0.5-4.2,1.1-8.4,1.8-12.6c0.7-4.2,1.5-8.4,2.4-12.6c1-4.1,2.1-8.2,3.5-12
				c1.4-3.8,3.2-7.4,5.3-10.5s4.3-5.8,6.3-8.3s3.8-4.8,5.3-6.9c0.8-1.1,1.5-2,2-3s1-1.9,1.3-2.8c0.6-1.7,0.9-3.2,1.1-4.2
				C171.1-13.5,171.1-14,171.1-14z"/>
		</g>
	</g>
	<path class="st19" d="M143.1-3.2l1.6,0.8h0.2c0.1,0,3.2-0.1,6.8,1.7c3.6,1.8,5.4,4.3,5.5,4.4l0.1,0.2l2.1,1h0.2
		c0.1,0,3.2-0.1,6.8,1.7s5.4,4.3,5.5,4.4l0.1,0.2l1.5,0.7l-1.6,3.3l-1-0.5c-0.8,1.3-2.1,2.8-4,3.6c-1.9,0.8-4,0.6-6.1-0.4
		c-2.2-1.1-3.5-2.6-4.1-4.6c-0.5-1.9-0.1-3.9,0.4-5.3l-1-0.5c-0.8,1.3-2.1,2.8-4,3.6c-1.9,0.8-4,0.6-6.1-0.4
		c-2.2-1.1-3.5-2.6-4.1-4.6c-0.5-1.9-0.1-3.9,0.4-5.3l-1-0.5L143.1-3.2z"/>
	<g>
		<g>
			<path class="st7" d="M143.2-2.4l1.6,0.8h0.2c0.1,0,3.2-0.1,6.8,1.7s5.4,4.3,5.5,4.4l0.1,0.2l2.1,1h0.2c0.1,0,3.2-0.1,6.8,1.7
				s5.4,4.3,5.5,4.4l0.1,0.2l1.5,0.7L172,16l-1-0.5c-0.8,1.3-2.1,2.8-4,3.6c-1.9,0.8-4,0.6-6.1-0.4c-2.2-1.1-3.5-2.6-4.1-4.6
				c-0.5-1.9-0.1-3.9,0.4-5.3l-1-0.5c-0.8,1.3-2.1,2.8-4,3.6c-1.9,0.8-4,0.6-6.1-0.4c-2.2-1.1-3.5-2.6-4.1-4.6
				c-0.5-1.9-0.1-3.9,0.4-5.3l-1-0.5L143.2-2.4z"/>
			<path class="st20" d="M143.2-2.4l1.6,0.8h0.2c0.1,0,3.2-0.1,6.8,1.7s5.4,4.3,5.5,4.4l0.1,0.2l2.1,1h0.2c0.1,0,3.2-0.1,6.8,1.7
				s5.4,4.3,5.5,4.4l0.1,0.2l1.5,0.7L172,16l-1-0.5c-0.8,1.3-2.1,2.8-4,3.6c-1.9,0.8-4,0.6-6.1-0.4c-2.2-1.1-3.5-2.6-4.1-4.6
				c-0.5-1.9-0.1-3.9,0.4-5.3l-1-0.5c-0.8,1.3-2.1,2.8-4,3.6c-1.9,0.8-4,0.6-6.1-0.4c-2.2-1.1-3.5-2.6-4.1-4.6
				c-0.5-1.9-0.1-3.9,0.4-5.3l-1-0.5L143.2-2.4z"/>
		</g>
	</g>
	<path class="st21" d="M143.1-3.2l1.6,0.8h0.2c0.1,0,3.2-0.1,6.8,1.7c3.6,1.8,5.4,4.3,5.5,4.4l0.1,0.2l2.1,1h0.2
		c0.1,0,3.2-0.1,6.8,1.7s5.4,4.3,5.5,4.4l0.1,0.2l1.5,0.7l-1.6,3.3l-1-0.5c-0.8,1.3-2.1,2.8-4,3.6c-1.9,0.8-4,0.6-6.1-0.4
		c-2.2-1.1-3.5-2.6-4.1-4.6c-0.5-1.9-0.1-3.9,0.4-5.3l-1-0.5c-0.8,1.3-2.1,2.8-4,3.6c-1.9,0.8-4,0.6-6.1-0.4
		c-2.2-1.1-3.5-2.6-4.1-4.6c-0.5-1.9-0.1-3.9,0.4-5.3l-1-0.5L143.1-3.2z"/>
	
		<linearGradient id="SVGID_3_" gradientUnits="userSpaceOnUse" x1="1068.1058" y1="200.3978" x2="1078.8754" y2="194.18" gradientTransform="matrix(-0.8958 -0.4444 -0.4444 0.8958 1213.0159 311.6332)">
		<stop  offset="5.618000e-03" style="stop-color:#231F20"/>
		<stop  offset="0.5281" style="stop-color:#676769"/>
		<stop  offset="1" style="stop-color:#231F20"/>
	</linearGradient>
	<path class="st22" d="M161.6,16.4c6.4,3.2,9.1-4.6,9.1-4.6s-1.6-2.3-4.9-3.9s-6-1.5-6-1.5S155.2,13.2,161.6,16.4z"/>
	
		<linearGradient id="SVGID_4_" gradientUnits="userSpaceOnUse" x1="1084.5652" y1="200.3995" x2="1095.3359" y2="194.1809" gradientTransform="matrix(-0.8958 -0.4444 -0.4444 0.8958 1213.0159 311.6332)">
		<stop  offset="5.618000e-03" style="stop-color:#231F20"/>
		<stop  offset="0.5281" style="stop-color:#676769"/>
		<stop  offset="1" style="stop-color:#231F20"/>
	</linearGradient>
	<path class="st23" d="M146.9,9.1c6.4,3.2,9.1-4.5,9.1-4.5s-1.6-2.3-4.9-3.9s-6-1.5-6-1.5S140.5,5.9,146.9,9.1z"/>
	<g class="st12">
		<g>
			<path d="M155.5,45.4c1.2-0.5,2.2-1,3-1.5c0.9-0.6,1.7-1.1,2.3-1.7c0.6-0.6,1.1-1.3,1.4-2.1c0.3-0.8,0.3-1.6,0.2-2.5
				c0,0,0,0,0-0.1c0.5-1.3,0.6-2.2,0.5-2.8c-0.1-0.6-0.5-0.9-0.9-1.1c-0.4-0.1-0.9-0.1-1.3-0.1c-0.4,0.1-0.6,0.2-0.6,0.2
				s0.1,0.3,0,0.6c-0.1,0.3-0.5,0.7-1.5,0.9c-0.8,0.1-2,0.2-3.8-0.1c-1.4-0.2-3.2-0.5-5.4-1.1c-2.5-0.6-5-1.6-7-3.2
				c-1.7-1.3-2.7-2.8-3.3-4.1c-0.6-1.4-0.8-2.6-0.9-3.6c-0.1-0.9,0-1.5,0-1.5c-0.9,0-2.3,0.7-3.5,2.2c-1,1.3-1.7,3.1-1.7,5.6
				c-0.1,0.3-0.3,0.6-0.4,0.9c-0.7,1.7-1,3.9-1.1,6.3c-0.1,2.3,0.1,4.7,0.4,7.2c0.4,2.4,0.9,4.9,1.6,7.3c0.7,2.3,1.6,4.5,2.5,6.5
				c1,1.9,2.1,3.6,3.3,4.8s2.5,2,3.9,2.2c-0.4-0.6-0.7-1.3-0.9-2.2c-0.2-0.8-0.3-1.8-0.4-2.8c0-1,0.1-2.1,0.3-3.1
				c0.2-1.1,0.6-2.1,1.1-3.1s1.2-2,2-2.9s1.9-1.6,3.1-2.2c1.2-0.6,2.4-1,3.6-1.4C153.4,46.3,154.5,45.9,155.5,45.4z"/>
		</g>
	</g>
	<g class="st13">
		<path class="st2" d="M131.7-2.9c0,0-0.1,0.8-0.3,2.3c-0.2,1.4-0.4,3.5-0.6,6s-0.5,5.4-0.7,8.4c-0.2,3.1-0.4,6.4-0.5,9.7
			c-0.1,3.3-0.2,6.6-0.1,9.7c0.1,1.5,0.1,3,0.2,4.4c0.1,1.4,0.2,2.7,0.4,4c0.2,1.2,0.4,2.3,0.6,3.3c0.1,0.5,0.3,0.9,0.4,1.4
			c0.1,0.4,0.3,0.8,0.4,1.1c0.3,0.7,0.5,1.2,0.8,1.5c0.2,0.3,0.3,0.5,0.3,0.5s-0.1-0.2-0.4-0.5c-0.2-0.3-0.5-0.8-0.9-1.4
			c-0.1-0.3-0.3-0.7-0.5-1.1c-0.1-0.4-0.3-0.9-0.5-1.3c-0.3-1-0.6-2.1-0.8-3.3c-0.2-1.2-0.4-2.6-0.6-4s-0.3-2.9-0.3-4.5
			c-0.1-3.1-0.1-6.4,0-9.7c0.1-3.3,0.4-6.6,0.7-9.7c0.3-3.1,0.7-6,1-8.4C131.1,0.3,131.7-2.9,131.7-2.9z"/>
	</g>
	<g class="st1">
		<path class="st3" d="M127.5-12.7c0,0,0.2,0.1,0.6,0.4c0.4,0.3,0.9,0.8,1.4,1.5s1,1.7,1.4,2.9c0.4,1.2,0.5,2.6,0.5,4.1
			c-0.1,1.6-0.3,3.1-0.5,4.8s-0.3,3.5-0.5,5.4c-0.3,3.7-0.6,7.7-0.9,11.7c-0.1,2-0.2,4-0.3,5.9c-0.1,2-0.1,3.9-0.2,5.7
			c0,3.7,0,7.2,0.3,10.1c0.3,3,0.7,5.4,1.3,7c0.3,0.8,0.6,1.4,0.8,1.8c0.2,0.4,0.4,0.6,0.4,0.6s-0.2-0.2-0.5-0.6
			c-0.3-0.4-0.7-1-1-1.8c-0.7-1.6-1.5-4-2-7s-0.8-6.5-0.8-10.3c0-1.9,0-3.8,0-5.8c0.1-2,0.1-4,0.3-6c0.3-4,0.7-8,1.2-11.7
			c0.3-1.9,0.5-3.7,0.8-5.4s0.6-3.3,0.8-4.7s0.1-2.8-0.2-4c-0.3-1.2-0.7-2.1-1.1-2.9c-0.4-0.7-0.9-1.3-1.2-1.6
			C127.7-12.6,127.5-12.7,127.5-12.7z"/>
	</g>
	<g class="st13">
		<path class="st2" d="M120.2-5.8c0,0-0.2,1-0.4,2.8c-0.2,1.8-0.5,4.3-0.8,7.4s-0.5,6.6-0.6,10.5c-0.1,3.8-0.1,7.9,0.2,12
			c0.1,2,0.3,4.1,0.5,6.1c0.2,2,0.5,4,0.9,5.8c0.4,1.9,0.8,3.7,1.3,5.4c0.5,1.7,1,3.3,1.6,4.7s1.2,2.7,1.8,3.8
			c0.3,0.5,0.6,1,0.9,1.5s0.6,0.8,0.9,1.2c0.5,0.7,1,1.2,1.3,1.6s0.5,0.6,0.5,0.6s-0.2-0.2-0.5-0.5c-0.3-0.4-0.9-0.8-1.4-1.5
			c-0.3-0.4-0.6-0.7-0.9-1.2s-0.6-0.9-1-1.5c-0.7-1.1-1.3-2.3-2-3.7c-0.6-1.4-1.2-3-1.8-4.7c-0.3-0.9-0.5-1.7-0.8-2.6
			c-0.2-0.9-0.5-1.8-0.6-2.8c-0.4-1.9-0.7-3.9-1-5.9c-0.3-2-0.4-4.1-0.6-6.1c-0.2-4.1-0.2-8.2,0-12.1c0.2-3.9,0.5-7.4,0.9-10.5
			c0.3-3.1,0.8-5.6,1.1-7.4C120-4.8,120.2-5.8,120.2-5.8z"/>
	</g>
	<g class="st1">
		<path class="st3" d="M125.4-12.7c0,0-0.3,0.1-0.8,0.4c-0.5,0.3-1.2,0.7-1.9,1.4s-1.6,1.6-2.2,2.9c-0.6,1.2-0.9,2.8-1.1,4.5
			c-0.4,3.5-0.8,7.6-1.1,12c-0.1,2.2-0.2,4.5-0.3,6.8s-0.1,4.6,0,7c0,2.3,0.1,4.7,0.3,7c0.2,2.3,0.4,4.5,0.7,6.7
			c0.3,2.2,0.7,4.2,1.1,6.2c0.5,1.9,1,3.8,1.6,5.4c0.3,0.8,0.6,1.6,0.9,2.3c0.3,0.7,0.6,1.4,0.9,2.1c0.3,0.7,0.7,1.2,1,1.7
			s0.6,1,0.9,1.4s0.5,0.8,0.8,1.1c0.3,0.3,0.5,0.6,0.6,0.8c0.3,0.4,0.5,0.7,0.5,0.7s-0.2-0.2-0.6-0.6c-0.4-0.4-1-0.9-1.6-1.8
			c-0.3-0.4-0.7-0.8-1-1.4c-0.4-0.5-0.8-1.1-1.1-1.7c-0.8-1.2-1.5-2.7-2.2-4.3s-1.3-3.5-1.9-5.4c-0.5-2-1-4.1-1.4-6.3
			c-0.8-4.4-1.1-9.1-1.2-13.9c-0.1-4.7,0.1-9.5,0.5-13.9c0.4-4.4,1-8.5,1.6-12c0.2-0.9,0.3-1.7,0.6-2.5c0.2-0.8,0.6-1.5,0.9-2.2
			c0.7-1.3,1.7-2.2,2.5-2.8c0.8-0.6,1.6-1,2.1-1.2C125.1-12.6,125.4-12.7,125.4-12.7z"/>
	</g>
	<g class="st13">
		<path class="st2" d="M126.8-11c0,0,0.2,0.2,0.2,0.7c0.1,0.5,0.1,1.1,0.1,2c0,0.8-0.1,1.9-0.2,3.1c-0.1,1.2-0.2,2.5-0.5,3.9
			c-0.5,2.9-1.1,6.2-1.6,9.8s-0.9,7.4-1,11.3c-0.1,3.8,0,7.7,0.3,11.3c0.2,1.8,0.4,3.5,0.6,5.2c0.3,1.6,0.5,3.2,0.8,4.6
			c0.3,1.4,0.6,2.7,0.9,3.8s0.6,2.1,0.8,2.9c0.5,1.6,0.8,2.5,0.8,2.5s-0.4-0.9-0.9-2.5c-0.3-0.8-0.6-1.8-0.9-2.9
			c-0.4-1.1-0.7-2.4-1.1-3.8c-0.3-1.4-0.7-3-1-4.6c-0.3-1.6-0.6-3.4-0.8-5.2c-0.4-3.6-0.6-7.5-0.4-11.4c0.1-3.9,0.6-7.8,1.1-11.3
			c0.5-3.6,1.3-6.9,1.9-9.7c0.3-1.4,0.5-2.7,0.6-3.9c0.2-1.2,0.3-2.2,0.3-3c0.1-0.8,0.1-1.5,0.1-2C126.9-10.8,126.8-11,126.8-11z"/>
	</g>
	<g class="st1">
		<path class="st3" d="M125.9-11c0,0,0.2,0.2,0.2,0.6c0.1,0.5,0.1,1.1,0.1,2s0,1.9-0.1,3.1c-0.1,1.2-0.2,2.5-0.4,4
			c-0.4,2.9-1,6.2-1.5,9.8c-0.2,1.8-0.4,3.6-0.6,5.5s-0.3,3.8-0.3,5.7c-0.1,1.9-0.1,3.8,0,5.7s0.1,3.7,0.3,5.5
			c0.2,1.8,0.4,3.5,0.6,5.2c0.2,1.6,0.5,3.2,0.8,4.6c0.3,1.4,0.5,2.7,0.8,3.9c0.2,1.2,0.5,2.1,0.7,3c0.4,1.6,0.7,2.6,0.7,2.6
			s-0.1-0.2-0.3-0.6c-0.2-0.4-0.4-1-0.7-1.8c-0.3-0.8-0.7-1.8-1-2.9c-0.4-1.1-0.8-2.4-1.2-3.8c-0.2-0.7-0.4-1.4-0.6-2.2
			c-0.2-0.8-0.3-1.6-0.5-2.4c-0.3-1.6-0.6-3.4-0.8-5.2c-0.5-3.6-0.6-7.5-0.5-11.4c0.1-2,0.2-3.9,0.4-5.8c0.2-1.9,0.5-3.8,0.8-5.6
			c0.6-3.6,1.4-6.9,2-9.7c0.3-1.4,0.5-2.7,0.7-3.9s0.3-2.2,0.4-3C126-8.9,126-9.6,126-10C126.1-10.8,126-11,125.9-11z"/>
	</g>
	<g class="st13">
		<path class="st2" d="M180,27.2c0,0-0.1,0-0.4,0s-0.6,0-1.1,0.1c-0.9,0.1-2.2,0.6-3.4,1.5c-0.6,0.5-1.2,1-1.7,1.7
			c-0.3,0.3-0.5,0.7-0.7,1.1c-0.1,0.2-0.2,0.4-0.3,0.6c-0.1,0.2-0.2,0.5-0.3,0.7c-0.5,1-1,1.9-1.7,2.8c-0.6,0.9-1.3,1.8-1.9,2.6
			c-1.4,1.7-2.8,3.3-4.3,4.7s-3,2.6-4.4,3.5c-1.4,0.9-2.6,1.5-3.5,1.8c-0.5,0.2-0.8,0.2-1.1,0.3c-0.2,0-0.4,0.1-0.4,0.1
			s0.5-0.2,1.3-0.7s1.9-1.2,3.1-2.3c1.2-1,2.5-2.3,3.9-3.8c1.3-1.5,2.7-3.1,4-4.7c0.7-0.8,1.3-1.7,1.9-2.5c0.6-0.8,1.2-1.7,1.7-2.5
			c0.1-0.2,0.2-0.5,0.3-0.7c0.1-0.2,0.3-0.5,0.4-0.7c0.3-0.4,0.6-0.8,0.9-1.2c0.7-0.7,1.4-1.3,2.2-1.7c1.5-0.8,2.9-1,3.9-1
			c0.5,0,0.9,0.1,1.1,0.2C179.9,27.2,180,27.2,180,27.2z"/>
	</g>
	<g class="st1">
		<path class="st3" d="M180.9,27.2c0,0-0.1,0-0.4,0s-0.6,0-1.1,0.1c-0.9,0.1-2.2,0.6-3.4,1.5c-0.6,0.5-1.2,1-1.7,1.7
			c-0.3,0.3-0.5,0.7-0.7,1.1c-0.1,0.2-0.2,0.4-0.3,0.6c-0.1,0.2-0.2,0.5-0.3,0.7c-0.5,1-1,1.9-1.7,2.8c-0.6,0.9-1.3,1.8-1.9,2.6
			c-1.4,1.7-2.8,3.3-4.3,4.7s-3,2.6-4.4,3.5c-1.4,0.9-2.6,1.5-3.5,1.8c-0.5,0.2-0.8,0.2-1.1,0.3c-0.2,0-0.4,0.1-0.4,0.1
			s0.5-0.2,1.3-0.7s1.9-1.2,3.1-2.3c1.2-1,2.5-2.3,3.9-3.8c1.3-1.5,2.7-3.1,4-4.7c0.7-0.8,1.3-1.7,1.9-2.5c0.6-0.8,1.2-1.7,1.7-2.5
			c0.1-0.2,0.2-0.5,0.3-0.7c0.1-0.2,0.3-0.5,0.4-0.7c0.3-0.4,0.6-0.8,0.9-1.2c0.7-0.7,1.4-1.3,2.2-1.7c1.5-0.8,2.9-1,3.9-1
			c0.5,0,0.9,0.1,1.1,0.2C180.7,27.1,180.9,27.2,180.9,27.2z"/>
	</g>
	<g class="st13">
		<path class="st2" d="M184.3,30c0,0,0.2,0.7,0.2,1.9c0,1.2-0.2,3-1,5c-0.4,1-0.9,2-1.6,3.1c-0.7,1-1.6,2-2.4,3
			c-1.7,2-3.4,4.2-5.4,6.3c-1,1-2,2-3,3c-0.5,0.5-1,0.9-1.6,1.4c-0.5,0.4-1,0.9-1.6,1.3c-1,0.8-2.1,1.5-3.1,2.2c-1,0.6-2,1.2-3,1.7
			c-0.9,0.5-1.8,0.9-2.6,1.3c-0.8,0.4-1.5,0.7-2,0.9c-1.1,0.5-1.8,0.7-1.8,0.7s0.6-0.3,1.7-0.9c0.6-0.3,1.2-0.6,2-1
			c0.7-0.4,1.6-0.9,2.5-1.4c0.9-0.5,1.9-1.2,2.9-1.8c1-0.7,2-1.4,3-2.3c0.5-0.4,1-0.8,1.5-1.3c0.5-0.4,1-0.9,1.5-1.4
			c1-0.9,2-2,2.9-3c0.9-1,1.9-2.1,2.8-3.1c0.9-1.1,1.8-2.1,2.7-3.1c0.4-0.5,0.9-1,1.3-1.4c0.2-0.2,0.4-0.5,0.6-0.7
			c0.2-0.2,0.4-0.5,0.5-0.7c0.7-1,1.3-1.9,1.7-2.9c0.9-1.9,1.2-3.6,1.3-4.8C184.4,30.7,184.3,30,184.3,30z"/>
	</g>
	<g class="st1">
		<path class="st3" d="M184.3,28.9c0,0,0,0.2,0,0.5s0,0.8,0,1.5c-0.1,1.3-0.3,3.1-1.1,5.2c-0.4,1-0.9,2.2-1.5,3.3
			c-0.3,0.6-0.7,1.1-1.1,1.7c-0.4,0.5-0.9,1.1-1.3,1.6c-0.9,1-1.7,2.1-2.7,3.2c-0.9,1.1-1.8,2.2-2.8,3.3s-2,2.1-3.1,3.1
			c-1.1,1-2.2,1.9-3.3,2.7c-1.1,0.8-2.2,1.6-3.3,2.3c-1.1,0.6-2.1,1.3-3.1,1.7c-0.5,0.2-1,0.5-1.4,0.7c-0.5,0.2-0.9,0.4-1.3,0.6
			c-0.8,0.4-1.5,0.7-2.1,0.9c-1.2,0.5-1.9,0.7-1.9,0.7s0.6-0.4,1.7-1c0.6-0.3,1.2-0.7,2-1.1c0.8-0.4,1.6-1,2.5-1.6
			c0.9-0.6,1.9-1.3,2.9-1.9c1-0.7,2-1.5,3-2.4c1-0.8,2-1.8,3.1-2.8c1-1,2-2,2.9-3.1c1-1.1,1.9-2.1,2.8-3.2c0.9-1.1,1.9-2.2,2.8-3.1
			c0.5-0.5,0.9-1,1.3-1.4c0.4-0.5,0.8-1,1.1-1.5c0.7-1,1.2-2,1.7-2.9c0.9-1.9,1.4-3.6,1.7-4.9C184.3,29.6,184.3,28.9,184.3,28.9z"/>
	</g>
	<g class="st13">
		<path class="st2" d="M181.8,29.8c0,0-0.3,0.5-0.8,1.4c-0.5,0.9-1.4,2.1-2.4,3.5c-0.5,0.7-1.1,1.5-1.7,2.3c-0.6,0.8-1.3,1.7-2,2.5
			c-0.7,0.9-1.4,1.7-2.2,2.6c-0.8,0.9-1.5,1.8-2.3,2.6c-0.8,0.9-1.6,1.7-2.4,2.5c-0.8,0.8-1.7,1.6-2.5,2.4c-0.8,0.7-1.6,1.4-2.4,2.1
			c-0.8,0.6-1.5,1.2-2.3,1.7c-0.7,0.5-1.4,1-2,1.3c-0.6,0.3-1.2,0.7-1.7,0.9c-1,0.4-1.5,0.6-1.5,0.6s0.5-0.3,1.4-0.9
			c0.4-0.3,0.9-0.7,1.5-1.1c0.6-0.4,1.1-1,1.8-1.5c0.7-0.6,1.3-1.3,2-1.9c0.7-0.7,1.5-1.5,2.2-2.2c1.5-1.6,3.1-3.3,4.7-5
			c1.6-1.7,3.1-3.4,4.6-5.1c1.5-1.6,2.9-3.1,4-4.4C180.2,31.6,181.8,29.8,181.8,29.8z"/>
	</g>
	<g class="st1">
		<path class="st3" d="M181.8,29c0,0-0.3,0.5-0.8,1.4s-1.4,2.1-2.4,3.5c-0.5,0.7-1.1,1.5-1.7,2.3c-0.6,0.8-1.3,1.7-2,2.5
			c-0.7,0.9-1.4,1.7-2.2,2.6c-0.8,0.9-1.5,1.8-2.3,2.6c-0.8,0.9-1.6,1.7-2.4,2.5c-0.8,0.8-1.7,1.6-2.5,2.4c-0.8,0.7-1.6,1.4-2.4,2.1
			c-0.8,0.6-1.5,1.2-2.3,1.7c-0.7,0.5-1.4,1-2,1.3c-0.6,0.3-1.2,0.7-1.7,0.9c-1,0.4-1.5,0.6-1.5,0.6s0.5-0.3,1.4-0.9
			c0.4-0.3,0.9-0.7,1.5-1.1c0.6-0.4,1.1-1,1.8-1.5c0.7-0.6,1.3-1.3,2-1.9c0.7-0.7,1.5-1.5,2.2-2.2c1.5-1.6,3.1-3.3,4.7-5
			c1.6-1.7,3.1-3.4,4.6-5.1c1.5-1.6,2.9-3.1,4-4.4C180.2,30.7,181.8,29,181.8,29z"/>
	</g>
	<path class="st24" d="M155.4,43.7c1.2-0.5,2.2-1,3-1.5c0.9-0.6,1.7-1.1,2.3-1.7c0.6-0.6,1.1-1.3,1.4-2.1c0.3-0.8,0.3-1.6,0.2-2.5
		c0,0,0,0,0-0.1c0.5-1.3,0.6-2.2,0.5-2.8c-0.1-0.6-0.5-0.9-0.9-1.1c-0.4-0.1-0.9-0.1-1.3-0.1c-0.4,0.1-0.6,0.2-0.6,0.2
		s0.1,0.3,0,0.6c-0.1,0.3-0.5,0.7-1.5,0.9c-0.8,0.1-2,0.2-3.8-0.1c-1.4-0.2-3.2-0.5-5.4-1.1c-2.5-0.6-5-1.6-7-3.2
		c-1.7-1.3-2.7-2.8-3.3-4.1c-0.6-1.4-0.8-2.6-0.9-3.6c-0.1-0.9,0-1.5,0-1.5c-0.9,0-2.3,0.7-3.5,2.2c-1,1.3-1.7,3.1-1.7,5.6
		c-0.1,0.3-0.3,0.6-0.4,0.9c-0.7,1.7-1,3.9-1.1,6.3c-0.1,2.3,0.1,4.7,0.4,7.2c0.4,2.4,0.9,4.9,1.6,7.3c0.7,2.3,1.6,4.5,2.5,6.5
		c1,1.9,2.1,3.6,3.3,4.8c1.2,1.2,2.5,2,3.9,2.2c-0.4-0.6-0.7-1.3-0.9-2.2c-0.1-0.9-0.2-1.9-0.3-2.9c0-1,0.1-2.1,0.3-3.1
		c0.2-1.1,0.6-2.1,1.1-3.1s1.2-2,2-2.9c0.9-0.9,1.9-1.6,3.1-2.2c1.2-0.6,2.4-1,3.6-1.4C153.3,44.6,154.4,44.1,155.4,43.7z"/>
	<g>
		<path class="st25" d="M133.5,27.6c0,0,0.2,0.2,0.4,0.5c0.1,0.2,0.3,0.4,0.4,0.5c0.2,0.2,0.4,0.4,0.6,0.6s0.5,0.4,0.7,0.7
			c0.3,0.2,0.6,0.4,0.8,0.7c0.3,0.2,0.6,0.4,1,0.7c0.3,0.2,0.7,0.4,1,0.6c0.7,0.4,1.4,0.8,2.1,1.2c0.4,0.2,0.7,0.4,1,0.6
			s0.6,0.4,0.9,0.5c0.6,0.3,1,0.7,1.4,0.9c0.3,0.2,0.5,0.4,0.5,0.4v0.1c0,0-0.9-0.2-2.1-0.7c-1.3-0.4-2.9-1.1-4.5-2
			c-0.4-0.2-0.8-0.5-1.1-0.8c-0.4-0.3-0.7-0.5-1-0.8c-0.6-0.6-1.1-1.2-1.4-1.8c-0.2-0.3-0.3-0.6-0.4-0.8c-0.1-0.2-0.2-0.5-0.3-0.7
			c-0.1-0.4-0.2-0.6-0.2-0.6L133.5,27.6z"/>
	</g>
	<g class="st16">
		<path class="st26" d="M133.6,27.2c0,0,0.2,0.2,0.4,0.5c0.1,0.2,0.3,0.3,0.5,0.4c0.2,0.2,0.4,0.3,0.6,0.5s0.5,0.4,0.8,0.6
			s0.6,0.4,0.9,0.6s0.6,0.4,0.9,0.6s0.7,0.4,1,0.6s0.7,0.4,1,0.7c0.3,0.2,0.7,0.4,1,0.6c0.6,0.4,1.2,0.8,1.8,1.2
			c0.5,0.4,0.9,0.7,1.2,0.9c0.3,0.2,0.5,0.4,0.5,0.4v0.1c0,0-0.8-0.3-2-0.8s-2.7-1.2-4.1-2.1c-1.4-0.9-2.7-2.1-3.5-3.1
			c-0.2-0.3-0.4-0.5-0.5-0.7c-0.1-0.2-0.2-0.4-0.3-0.6C133.7,27.3,133.6,27.1,133.6,27.2L133.6,27.2z"/>
	</g>
	<g>
		<path class="st25" d="M161.3,36c0,0-0.1,0.3-0.3,0.7c-0.2,0.4-0.6,1-1.2,1.6c-0.3,0.3-0.6,0.6-1,0.9c-0.4,0.3-0.8,0.6-1.2,0.9
			c-0.9,0.6-1.9,1-2.9,1.4c-0.5,0.2-1,0.3-1.6,0.5c-0.5,0.1-1,0.2-1.6,0.3c-0.5,0.1-1,0.1-1.5,0.1s-0.9,0-1.3,0
			c-0.8,0-1.5-0.2-2-0.3s-0.7-0.2-0.7-0.2v-0.1c0,0,0.3,0,0.7-0.1c0.5,0,1.1-0.1,1.9-0.2s1.7-0.3,2.6-0.5c0.9-0.2,1.9-0.5,2.9-0.9
			s1.9-0.7,2.8-1.2c0.4-0.2,0.8-0.4,1.2-0.7c0.4-0.2,0.7-0.5,1.1-0.7c1.3-0.9,2-1.7,2-1.7L161.3,36z"/>
	</g>
	<g class="st16">
		<path class="st26" d="M161.1,35.4c0,0-0.1,0.2-0.4,0.6c-0.3,0.4-0.7,0.9-1.3,1.5c-0.6,0.5-1.3,1.1-2.2,1.6
			c-0.4,0.3-0.9,0.5-1.3,0.7c-0.5,0.2-1,0.4-1.4,0.6c-1,0.4-2,0.7-3,0.8c-1,0.2-1.9,0.3-2.7,0.3c-0.8,0.1-1.4-0.1-1.9-0.1
			s-0.7-0.1-0.7-0.1v-0.1c0,0,0.3,0,0.7-0.1s1.1-0.1,1.8-0.3c0.8-0.1,1.6-0.3,2.5-0.6c0.5-0.1,0.9-0.3,1.4-0.4
			c0.5-0.1,0.9-0.3,1.4-0.5c1-0.4,1.9-0.8,2.7-1.2s1.6-0.9,2.2-1.3C160.3,36,161,35.3,161.1,35.4L161.1,35.4z"/>
	</g>
</g>
<g>
	<g>
		<g>
			<g>
				<g class="st27">
					<path class="st7" d="M167.6,67.7l0.3-10.9c0-3.1-0.2-5.3-0.5-6.6c-0.3-1.3-0.7-2.6-1.1-3.8c-0.5-1.2-0.7-2.1-0.7-2.8
						c0-0.7,0.1-1.2,0.4-1.6s0.7-0.8,1.2-1c0.5-0.2,1.1-0.4,1.6-0.6c0.5-0.1,1.2-0.3,1.9-0.3c1.3-0.1,2.2-0.1,2.8-0.1h1
						c2.8,0,5.9,1.5,9.1,4.4c3.9,3.5,6.3,7.3,7.1,11.2c0.5,2.3,0.8,4.9,1,7.7c0.2,2.8,0.3,4.7,0.4,5.6c0.2,2.1,0.5,3.6,0.8,4.4v4.6
						c-0.4,0.6-0.6,1.6-0.6,3c0,5-1.2,10.5-3.6,16.5s-5.4,10.5-8.9,13.6c-2.6,2.3-4.4,3.7-5.4,4.1c-0.9,0.4-1.8,0.6-2.7,0.6
						s-1.9-0.3-2.9-0.9c-1.1-0.6-1.6-1.4-1.6-2.6c1.5-1.5,2.3-5.4,2.3-11.7c0-3.7-0.3-9.2-1-16.5C167.9,76.8,167.6,71.3,167.6,67.7z
						 M174.5,100.4v9.5c5.4-3.6,9.2-10.4,11.3-20.3c1.1-5.1,1.6-10.3,1.6-15.7c0-18.7-4.8-28-14.4-28V46c0,6.2,0.2,15.3,0.7,27.4
						S174.5,94.5,174.5,100.4z"/>
					<path class="st7" d="M227.9,85.4L227,98v0.4c-0.4,1.8-0.7,3.8-0.7,6c0,2.1-0.4,4.2-1.1,6.2c-0.8,2-1.9,3.8-3.5,5.3
						s-3.3,2.3-5.2,2.3s-3.6-0.6-5.1-1.8c-1.5-1.2-2.8-2.8-3.8-4.7c-1-1.9-1.9-4.2-2.7-6.9c-0.8-2.7-1.4-5.3-1.8-7.8
						c-0.4-2.5-0.7-5.2-1-8.1c-0.4-4.3-0.6-7.9-0.6-10.6c0-2.8,0.1-5.1,0.2-6.8c0.1-3.3,0.3-6.2,0.5-8.7s0.3-4.5,0.3-5.9
						s0.1-2.5,0.1-3.5c0-0.9,0.1-2.1,0.3-3.5s0.4-2.6,0.6-3.5c0.2-1,0.6-2,1.1-3.1s1.1-1.9,1.8-2.6c1.6-1.5,3.3-2.3,5.2-2.3
						s3.5,0.2,4.6,0.5c1.2,0.4,2.1,0.8,2.9,1.4c0.8,0.6,1.5,1.3,2.2,2.2s1.2,1.8,1.6,2.7c0.4,0.9,0.8,1.9,1.1,3.2
						c0.4,1.6,0.9,3.8,1.3,6.7C227.1,66.4,227.9,76.5,227.9,85.4z M218.8,48.9c-0.7-1.7-1.5-3-2.5-3.9s-2-1.4-2.9-1.4
						s-1.7,0.2-2.3,0.7s-1.1,1.1-1.5,2s-0.8,1.9-1.1,2.9s-0.6,2.3-0.8,3.7c-0.2,1.5-0.4,2.8-0.6,4c-0.2,1.2-0.3,2.6-0.4,4.3
						c-0.1,1.7-0.2,3-0.3,4s-0.1,2.3-0.1,3.7c0,1.5,0,2.4,0,2.9v2c0,5.4,0.5,11.5,1.6,18.4c2.1,13.6,5.1,20.4,8.9,20.4
						c1.4,0,2.5-1.2,3.5-3.7c0.9-2.5,1.6-5.6,2-9.3c0.7-6.3,1-10.9,1-13.7c0-2.8,0-4.9,0-6.1s-0.1-3-0.2-5.4
						c-0.1-2.4-0.2-4.6-0.4-6.6c-0.2-2.1-0.5-4.3-0.8-6.8c-0.3-2.5-0.7-4.7-1.2-6.7C220,52.4,219.4,50.6,218.8,48.9z"/>
					<path class="st7" d="M248.2,109.9h2.1c2.8,0,4.2,0.6,4.2,1.7c0.3,1.1,0.1,1.9-0.4,2.4s-1.3,0.7-2.2,0.7h-13.1c-2,0-3-0.8-3-2.3
						s1-2.3,3.1-2.3h3.2c0.3,0,0.5-1.7,0.5-5s-0.3-10.1-1-20.3c-0.6-10.2-1-17.9-1-23l0.2-10.2c0-2.1-0.1-4-0.3-5.5
						c-0.9,0.3-1.7,0.4-2.4,0.4c-1.6,0-2.4-0.8-2.4-2.4c0-0.8,0.5-1.5,1.6-2.1c1-0.6,2.4-1,3.9-1.3c2.9-0.5,5.1-0.7,6.5-0.7
						s2.4,0.3,3,0.8s0.9,1.2,0.9,1.9c0,0.7-0.2,1.4-0.7,1.9s-1,0.8-1.8,0.8h-1.8c-0.7,0-1.2,0.1-1.5,0.4c-0.3,0.3-0.5,0.8-0.5,1.6
						c0,6.5,0.4,16.2,1.3,29.1c0.9,12.9,1.3,22.7,1.3,29.1L248.2,109.9z"/>
					<path class="st7" d="M277.6,67.7l0.3-10.9c0-3.1-0.2-5.3-0.5-6.6c-0.3-1.3-0.7-2.6-1.1-3.8c-0.5-1.2-0.7-2.1-0.7-2.8
						c0-0.7,0.1-1.2,0.4-1.6c0.3-0.4,0.7-0.8,1.2-1c0.5-0.2,1.1-0.4,1.6-0.6c0.5-0.1,1.2-0.3,1.9-0.3c1.3-0.1,2.2-0.1,2.8-0.1h1
						c2.8,0,5.9,1.5,9.1,4.4c3.9,3.5,6.3,7.3,7.1,11.2c0.5,2.3,0.8,4.9,1,7.7c0.2,2.8,0.3,4.7,0.4,5.6c0.2,2.1,0.5,3.6,0.8,4.4v4.5
						c-0.4,0.6-0.6,1.6-0.6,3c0,5-1.2,10.5-3.6,16.5s-5.4,10.5-8.9,13.6c-2.6,2.3-4.4,3.7-5.4,4.1c-0.9,0.4-1.8,0.6-2.7,0.6
						s-1.9-0.3-2.9-0.9c-1.1-0.6-1.6-1.4-1.6-2.6c1.5-1.5,2.3-5.4,2.3-11.7c0-3.7-0.3-9.2-1-16.5C277.9,76.8,277.6,71.3,277.6,67.7z
						 M284.5,100.4v9.5c5.4-3.6,9.2-10.4,11.3-20.3c1.1-5.1,1.6-10.3,1.6-15.7c0-18.7-4.8-28-14.4-28V46c0,6.2,0.2,15.3,0.7,27.4
						C284.2,85.5,284.4,94.5,284.5,100.4z"/>
					<path class="st7" d="M337,71l0.1,1.7c-0.5,2.3-0.8,6.3-1,12s-0.4,10.3-0.9,13.8c-0.4,3.5-1,6.6-1.8,9.2
						c-0.7,2.6-1.9,4.8-3.6,6.6c-1.6,1.8-3.5,2.6-5.5,2.6s-3.7-0.3-5-1s-2.3-1.7-3.2-3c-0.8-1.3-1.5-2.7-2-4.2s-0.9-3.3-1.2-5.2
						c-0.5-3.5-0.7-7.1-0.7-11l0.6-26.3c0-5.7-0.4-10.5-1.3-14.3v-2.4c1.7,0,3,0.6,3.9,1.8c1,1.2,1.4,2.6,1.4,4.1v48.2
						c0,2.6,0.7,4.9,2,7s3.3,3.2,5.9,3.2c2.9,0,4.9-8.2,5.9-24.6v-0.4l0.1-0.6c0.9-15,1.3-27.1,1.3-36.4l-0.1-1.7
						c0-0.8,0.2-1.4,0.6-1.8s1.1-0.6,2.1-0.6s1.8,0.3,2.3,0.8c0.5,0.6,0.8,1.1,0.9,1.7s0.1,1.3,0.1,2.3l-0.7,10L337,71z"/>
					<path class="st7" d="M370.9,76.1l-0.2,5v5.5c0,6.6-0.3,11-0.9,13.3s-1.2,4.2-1.9,5.7c-0.6,1.5-1.4,2.8-2.3,4
						c-2,2.6-4.6,4.8-7.7,6.4h-7.1c-1.8,0-2.6-4.3-2.6-13l0.3-31.4c0-5.8-0.1-11.3-0.4-16.4c-0.6-0.6-0.9-1.4-0.9-2.3
						c0-0.9,0.4-1.7,1.2-2.3c0.8-0.7,1.7-1,2.8-1c1.1,0,2,0.6,2.8,1.8c0.5,0.2,1.3,0.4,2.3,0.5c1,0.2,1.7,0.4,2.2,0.6
						c3.9,1.7,6.9,4.8,9.1,9.1C369.8,66,370.9,70.8,370.9,76.1z M353.9,64.6l1.2,44v2.4h1.9c3.6-4.2,6-8.1,7-11.6
						c1-3.3,1.5-7.9,1.5-13.7c0-20-3.6-30.5-10.8-31.4C354.1,56.9,353.9,60.3,353.9,64.6z"/>
					<path class="st7" d="M390.4,111.7l4.1-0.2c2.6,0,4,0.8,4,2.4c0,1-0.5,1.7-1.4,2.2s-1.9,0.7-3.1,0.7h-9.8
						c-0.9,0-1.6-0.3-2.3-0.9c-0.6-0.6-1-1.3-1-2.2c-0.1-0.9,0-2,0.2-3.4s0.3-2.4,0.3-3.3l-0.5-12.7l0.7-29.1l-0.6-8.4
						c0-4.7,1.5-7.1,4.4-7.1c0.8,0,1.6,0.2,2.3,0.7c0.3,0,0.9,0.1,2,0.2c1,0.1,1.9,0.2,2.7,0.3c0.8,0.1,1.6,0.3,2.5,0.5
						c2,0.5,2.9,1.4,2.9,2.7c0,1.4-1,2.4-3,3.1c-3.2-1-5.8-1.7-7.9-1.9c0.1,1.4,0.2,2.9,0.2,4.3l-0.5,14.3c0,0.1,0.1,0.6,0.3,1.6
						l3.7-0.1c3.4,0,5,0.9,5,2.7c0,1-0.3,1.8-0.9,2.6c-0.6,0.7-1.4,1.1-2.5,1.1s-2-0.3-2.8-0.9h-2.6c0.2,2.5,0.3,4.9,0.3,7.2
						l-0.5,18.1C386.6,109.8,387.9,111.7,390.4,111.7z"/>
					<path class="st7" d="M405.7,111.3l5.5,0.7c1.3,0,2.5-0.6,3.5-1.7s1.7-2.5,2.2-4.1c0.9-3.2,1.4-6,1.4-8.4s-0.4-4.9-1.3-7.3
						c-0.8-2.4-1.9-4.6-3.1-6.7s-2.5-4.2-3.7-6.3c-2.9-5-4.4-10-4.4-14.9c0-3,0.5-5.6,1.6-7.9c2-4.3,4.6-6.4,7.8-6.4
						c1.2,0,2.4,0.4,3.5,1.1s1.7,1.6,1.7,2.4c0,1.5-0.8,2.3-2.5,2.3c-0.7,0-1.5-0.2-2.2-0.6c-2.2,0.1-3.7,2.5-4.5,7.1
						c-0.2,1-0.3,2.2-0.3,3.5c0,1.3,0.3,3,0.9,5s1.4,3.7,2.3,5.3c0.9,1.5,1.9,3.2,3,5.1s2.1,3.7,3,5.4c2.1,4.1,3.2,8.7,3.2,13.9
						c0,4.2-0.9,8-2.6,11.5c-0.9,1.8-2.2,3.3-3.9,4.5c-1.7,1.2-3.6,1.7-5.8,1.8v0.2c-1.3-0.2-2.5-0.6-3.5-1.2
						c-1.1-0.7-1.6-1.5-1.8-2.6L405.7,111.3L405.7,111.3z"/>
				</g>
				<g class="st27">
					<path class="st28" d="M167.6,67.7l0.3-10.9c0-3.1-0.2-5.3-0.5-6.6c-0.3-1.3-0.7-2.6-1.1-3.8c-0.5-1.2-0.7-2.1-0.7-2.8
						c0-0.7,0.1-1.2,0.4-1.6s0.7-0.8,1.2-1c0.5-0.2,1.1-0.4,1.6-0.6c0.5-0.1,1.2-0.3,1.9-0.3c1.3-0.1,2.2-0.1,2.8-0.1h1
						c2.8,0,5.9,1.5,9.1,4.4c3.9,3.5,6.3,7.3,7.1,11.2c0.5,2.3,0.8,4.9,1,7.7c0.2,2.8,0.3,4.7,0.4,5.6c0.2,2.1,0.5,3.6,0.8,4.4v4.6
						c-0.4,0.6-0.6,1.6-0.6,3c0,5-1.2,10.5-3.6,16.5s-5.4,10.5-8.9,13.6c-2.6,2.3-4.4,3.7-5.4,4.1c-0.9,0.4-1.8,0.6-2.7,0.6
						s-1.9-0.3-2.9-0.9c-1.1-0.6-1.6-1.4-1.6-2.6c1.5-1.5,2.3-5.4,2.3-11.7c0-3.7-0.3-9.2-1-16.5C167.9,76.8,167.6,71.3,167.6,67.7z
						 M174.5,100.4v9.5c5.4-3.6,9.2-10.4,11.3-20.3c1.1-5.1,1.6-10.3,1.6-15.7c0-18.7-4.8-28-14.4-28V46c0,6.2,0.2,15.3,0.7,27.4
						S174.5,94.5,174.5,100.4z"/>
					<path class="st28" d="M227.9,85.4L227,98v0.4c-0.4,1.8-0.7,3.8-0.7,6c0,2.1-0.4,4.2-1.1,6.2c-0.8,2-1.9,3.8-3.5,5.3
						s-3.3,2.3-5.2,2.3s-3.6-0.6-5.1-1.8c-1.5-1.2-2.8-2.8-3.8-4.7c-1-1.9-1.9-4.2-2.7-6.9c-0.8-2.7-1.4-5.3-1.8-7.8
						c-0.4-2.5-0.7-5.2-1-8.1c-0.4-4.3-0.6-7.9-0.6-10.6c0-2.8,0.1-5.1,0.2-6.8c0.1-3.3,0.3-6.2,0.5-8.7s0.3-4.5,0.3-5.9
						s0.1-2.5,0.1-3.5c0-0.9,0.1-2.1,0.3-3.5s0.4-2.6,0.6-3.5c0.2-1,0.6-2,1.1-3.1s1.1-1.9,1.8-2.6c1.6-1.5,3.3-2.3,5.2-2.3
						s3.5,0.2,4.6,0.5c1.2,0.4,2.1,0.8,2.9,1.4c0.8,0.6,1.5,1.3,2.2,2.2s1.2,1.8,1.6,2.7c0.4,0.9,0.8,1.9,1.1,3.2
						c0.4,1.6,0.9,3.8,1.3,6.7C227.1,66.4,227.9,76.5,227.9,85.4z M218.8,48.9c-0.7-1.7-1.5-3-2.5-3.9s-2-1.4-2.9-1.4
						s-1.7,0.2-2.3,0.7s-1.1,1.1-1.5,2s-0.8,1.9-1.1,2.9s-0.6,2.3-0.8,3.7c-0.2,1.5-0.4,2.8-0.6,4c-0.2,1.2-0.3,2.6-0.4,4.3
						c-0.1,1.7-0.2,3-0.3,4s-0.1,2.3-0.1,3.7c0,1.5,0,2.4,0,2.9v2c0,5.4,0.5,11.5,1.6,18.4c2.1,13.6,5.1,20.4,8.9,20.4
						c1.4,0,2.5-1.2,3.5-3.7c0.9-2.5,1.6-5.6,2-9.3c0.7-6.3,1-10.9,1-13.7c0-2.8,0-4.9,0-6.1s-0.1-3-0.2-5.4
						c-0.1-2.4-0.2-4.6-0.4-6.6c-0.2-2.1-0.5-4.3-0.8-6.8c-0.3-2.5-0.7-4.7-1.2-6.7C220,52.4,219.4,50.6,218.8,48.9z"/>
					<path class="st28" d="M248.2,109.9h2.1c2.8,0,4.2,0.6,4.2,1.7c0.3,1.1,0.1,1.9-0.4,2.4s-1.3,0.7-2.2,0.7h-13.1
						c-2,0-3-0.8-3-2.3s1-2.3,3.1-2.3h3.2c0.3,0,0.5-1.7,0.5-5s-0.3-10.1-1-20.3c-0.6-10.2-1-17.9-1-23l0.2-10.2
						c0-2.1-0.1-4-0.3-5.5c-0.9,0.3-1.7,0.4-2.4,0.4c-1.6,0-2.4-0.8-2.4-2.4c0-0.8,0.5-1.5,1.6-2.1c1-0.6,2.4-1,3.9-1.3
						c2.9-0.5,5.1-0.7,6.5-0.7s2.4,0.3,3,0.8s0.9,1.2,0.9,1.9c0,0.7-0.2,1.4-0.7,1.9s-1,0.8-1.8,0.8h-1.8c-0.7,0-1.2,0.1-1.5,0.4
						c-0.3,0.3-0.5,0.8-0.5,1.6c0,6.5,0.4,16.2,1.3,29.1c0.9,12.9,1.3,22.7,1.3,29.1L248.2,109.9z"/>
					<path class="st28" d="M277.6,67.7l0.3-10.9c0-3.1-0.2-5.3-0.5-6.6c-0.3-1.3-0.7-2.6-1.1-3.8c-0.5-1.2-0.7-2.1-0.7-2.8
						c0-0.7,0.1-1.2,0.4-1.6c0.3-0.4,0.7-0.8,1.2-1c0.5-0.2,1.1-0.4,1.6-0.6c0.5-0.1,1.2-0.3,1.9-0.3c1.3-0.1,2.2-0.1,2.8-0.1h1
						c2.8,0,5.9,1.5,9.1,4.4c3.9,3.5,6.3,7.3,7.1,11.2c0.5,2.3,0.8,4.9,1,7.7c0.2,2.8,0.3,4.7,0.4,5.6c0.2,2.1,0.5,3.6,0.8,4.4v4.5
						c-0.4,0.6-0.6,1.6-0.6,3c0,5-1.2,10.5-3.6,16.5s-5.4,10.5-8.9,13.6c-2.6,2.3-4.4,3.7-5.4,4.1c-0.9,0.4-1.8,0.6-2.7,0.6
						s-1.9-0.3-2.9-0.9c-1.1-0.6-1.6-1.4-1.6-2.6c1.5-1.5,2.3-5.4,2.3-11.7c0-3.7-0.3-9.2-1-16.5C277.9,76.8,277.6,71.3,277.6,67.7z
						 M284.5,100.4v9.5c5.4-3.6,9.2-10.4,11.3-20.3c1.1-5.1,1.6-10.3,1.6-15.7c0-18.7-4.8-28-14.4-28V46c0,6.2,0.2,15.3,0.7,27.4
						C284.2,85.5,284.4,94.5,284.5,100.4z"/>
					<path class="st28" d="M337,71l0.1,1.7c-0.5,2.3-0.8,6.3-1,12s-0.4,10.3-0.9,13.8c-0.4,3.5-1,6.6-1.8,9.2
						c-0.7,2.6-1.9,4.8-3.6,6.6c-1.6,1.8-3.5,2.6-5.5,2.6s-3.7-0.3-5-1s-2.3-1.7-3.2-3c-0.8-1.3-1.5-2.7-2-4.2s-0.9-3.3-1.2-5.2
						c-0.5-3.5-0.7-7.1-0.7-11l0.6-26.3c0-5.7-0.4-10.5-1.3-14.3v-2.4c1.7,0,3,0.6,3.9,1.8c1,1.2,1.4,2.6,1.4,4.1v48.2
						c0,2.6,0.7,4.9,2,7s3.3,3.2,5.9,3.2c2.9,0,4.9-8.2,5.9-24.6v-0.4l0.1-0.6c0.9-15,1.3-27.1,1.3-36.4l-0.1-1.7
						c0-0.8,0.2-1.4,0.6-1.8s1.1-0.6,2.1-0.6s1.8,0.3,2.3,0.8c0.5,0.6,0.8,1.1,0.9,1.7s0.1,1.3,0.1,2.3l-0.7,10L337,71z"/>
					<path class="st28" d="M370.9,76.1l-0.2,5v5.5c0,6.6-0.3,11-0.9,13.3s-1.2,4.2-1.9,5.7c-0.6,1.5-1.4,2.8-2.3,4
						c-2,2.6-4.6,4.8-7.7,6.4h-7.1c-1.8,0-2.6-4.3-2.6-13l0.3-31.4c0-5.8-0.1-11.3-0.4-16.4c-0.6-0.6-0.9-1.4-0.9-2.3
						c0-0.9,0.4-1.7,1.2-2.3c0.8-0.7,1.7-1,2.8-1c1.1,0,2,0.6,2.8,1.8c0.5,0.2,1.3,0.4,2.3,0.5c1,0.2,1.7,0.4,2.2,0.6
						c3.9,1.7,6.9,4.8,9.1,9.1C369.8,66,370.9,70.8,370.9,76.1z M353.9,64.6l1.2,44v2.4h1.9c3.6-4.2,6-8.1,7-11.6
						c1-3.3,1.5-7.9,1.5-13.7c0-20-3.6-30.5-10.8-31.4C354.1,56.9,353.9,60.3,353.9,64.6z"/>
					<path class="st28" d="M390.4,111.7l4.1-0.2c2.6,0,4,0.8,4,2.4c0,1-0.5,1.7-1.4,2.2s-1.9,0.7-3.1,0.7h-9.8
						c-0.9,0-1.6-0.3-2.3-0.9c-0.6-0.6-1-1.3-1-2.2c-0.1-0.9,0-2,0.2-3.4s0.3-2.4,0.3-3.3l-0.5-12.7l0.7-29.1l-0.6-8.4
						c0-4.7,1.5-7.1,4.4-7.1c0.8,0,1.6,0.2,2.3,0.7c0.3,0,0.9,0.1,2,0.2c1,0.1,1.9,0.2,2.7,0.3c0.8,0.1,1.6,0.3,2.5,0.5
						c2,0.5,2.9,1.4,2.9,2.7c0,1.4-1,2.4-3,3.1c-3.2-1-5.8-1.7-7.9-1.9c0.1,1.4,0.2,2.9,0.2,4.3l-0.5,14.3c0,0.1,0.1,0.6,0.3,1.6
						l3.7-0.1c3.4,0,5,0.9,5,2.7c0,1-0.3,1.8-0.9,2.6c-0.6,0.7-1.4,1.1-2.5,1.1s-2-0.3-2.8-0.9h-2.6c0.2,2.5,0.3,4.9,0.3,7.2
						l-0.5,18.1C386.6,109.8,387.9,111.7,390.4,111.7z"/>
					<path class="st28" d="M405.7,111.3l5.5,0.7c1.3,0,2.5-0.6,3.5-1.7s1.7-2.5,2.2-4.1c0.9-3.2,1.4-6,1.4-8.4s-0.4-4.9-1.3-7.3
						c-0.8-2.4-1.9-4.6-3.1-6.7s-2.5-4.2-3.7-6.3c-2.9-5-4.4-10-4.4-14.9c0-3,0.5-5.6,1.6-7.9c2-4.3,4.6-6.4,7.8-6.4
						c1.2,0,2.4,0.4,3.5,1.1s1.7,1.6,1.7,2.4c0,1.5-0.8,2.3-2.5,2.3c-0.7,0-1.5-0.2-2.2-0.6c-2.2,0.1-3.7,2.5-4.5,7.1
						c-0.2,1-0.3,2.2-0.3,3.5c0,1.3,0.3,3,0.9,5s1.4,3.7,2.3,5.3c0.9,1.5,1.9,3.2,3,5.1s2.1,3.7,3,5.4c2.1,4.1,3.2,8.7,3.2,13.9
						c0,4.2-0.9,8-2.6,11.5c-0.9,1.8-2.2,3.3-3.9,4.5c-1.7,1.2-3.6,1.7-5.8,1.8v0.2c-1.3-0.2-2.5-0.6-3.5-1.2
						c-1.1-0.7-1.6-1.5-1.8-2.6L405.7,111.3L405.7,111.3z"/>
				</g>
			</g>
		</g>
	</g>
	<g>
		<g class="st27">
			<path class="st29" d="M170.7,63.4l0.3-10.9c0-3.1-0.2-5.3-0.5-6.6c-0.3-1.3-0.7-2.6-1.1-3.8c-0.5-1.2-0.7-2.1-0.7-2.8
				c0-0.7,0.1-1.2,0.4-1.6s0.7-0.8,1.2-1c0.5-0.2,1.1-0.4,1.6-0.6c0.5-0.1,1.2-0.3,1.9-0.3c1.3-0.1,2.2-0.1,2.8-0.1h1
				c2.8,0,5.9,1.5,9.1,4.4c3.9,3.5,6.3,7.3,7.1,11.2c0.5,2.3,0.8,4.9,1,7.7c0.2,2.8,0.3,4.7,0.4,5.6c0.2,2.1,0.5,3.6,0.8,4.4v4.6
				c-0.4,0.6-0.6,1.6-0.6,3c0,5-1.2,10.5-3.6,16.5c-2.4,6-5.4,10.5-8.9,13.6c-2.6,2.3-4.4,3.7-5.4,4.1c-0.9,0.4-1.8,0.6-2.7,0.6
				s-1.9-0.3-2.9-0.9c-1.1-0.6-1.6-1.4-1.6-2.6c1.5-1.5,2.3-5.4,2.3-11.7c0-3.7-0.3-9.2-1-16.5C171,72.5,170.7,67,170.7,63.4z
				 M177.6,96.1v9.5c5.4-3.6,9.2-10.4,11.3-20.3c1.1-5.1,1.6-10.3,1.6-15.7c0-18.7-4.8-28-14.4-28v0.2c0,6.2,0.2,15.3,0.7,27.4
				C177.3,81.2,177.6,90.2,177.6,96.1z"/>
			<path class="st29" d="M231,81.1l-0.9,12.6v0.4c-0.4,1.8-0.7,3.8-0.7,6c0,2.1-0.4,4.2-1.1,6.2c-0.8,2-1.9,3.8-3.5,5.3
				s-3.3,2.3-5.2,2.3s-3.6-0.6-5.1-1.8c-1.5-1.2-2.8-2.8-3.8-4.7c-1-1.9-1.9-4.2-2.7-6.9c-0.8-2.7-1.4-5.3-1.8-7.8s-0.7-5.2-1-8.1
				c-0.4-4.3-0.6-7.9-0.6-10.6c0-2.8,0.1-5.1,0.2-6.8c0.1-3.3,0.3-6.2,0.5-8.7s0.3-4.5,0.3-5.9s0.1-2.5,0.1-3.5
				c0-0.9,0.1-2.1,0.3-3.5s0.4-2.6,0.6-3.5c0.2-1,0.6-2,1.1-3.1s1.1-1.9,1.8-2.6c1.6-1.5,3.3-2.3,5.2-2.3s3.5,0.2,4.6,0.5
				c1.2,0.4,2.1,0.8,2.9,1.4c0.8,0.6,1.5,1.3,2.2,2.2s1.2,1.8,1.6,2.7c0.4,0.9,0.8,1.9,1.1,3.2c0.4,1.6,0.9,3.8,1.3,6.7
				C230.2,62.1,231,72.2,231,81.1z M221.8,44.7c-0.7-1.7-1.5-3-2.5-3.9s-2-1.4-2.9-1.4s-1.7,0.2-2.3,0.7s-1.1,1.1-1.5,2
				s-0.8,1.9-1.1,2.9s-0.6,2.3-0.8,3.7c-0.2,1.5-0.4,2.8-0.6,4c-0.2,1.2-0.3,2.6-0.4,4.3c-0.1,1.7-0.2,3-0.3,4s-0.1,2.3-0.1,3.7
				c0,1.5,0,2.4,0,2.9v2c0,5.4,0.5,11.5,1.6,18.4c2.1,13.6,5.1,20.4,8.9,20.4c1.4,0,2.5-1.2,3.5-3.7c0.9-2.5,1.6-5.6,2-9.3
				c0.7-6.3,1-10.9,1-13.7c0-2.8,0-4.9,0-6.1s-0.1-3-0.2-5.4c-0.1-2.4-0.2-4.6-0.4-6.6c-0.2-2.1-0.5-4.3-0.8-6.8s-0.7-4.7-1.2-6.7
				C223.1,48.2,222.5,46.4,221.8,44.7z"/>
			<path class="st29" d="M251.3,105.6h2.1c2.8,0,4.2,0.6,4.2,1.7c0.3,1.1,0.1,1.9-0.4,2.4s-1.3,0.7-2.2,0.7h-13.1c-2,0-3-0.8-3-2.3
				s1-2.3,3.1-2.3h3.2c0.3,0,0.5-1.7,0.5-5s-0.3-10.1-1-20.3c-0.6-10.2-1-17.9-1-23l0.2-10.2c0-2.1-0.1-4-0.3-5.5
				c-0.9,0.3-1.7,0.4-2.4,0.4c-1.6,0-2.4-0.8-2.4-2.4c0-0.8,0.5-1.5,1.6-2.1c1-0.6,2.4-1,3.9-1.3c2.9-0.5,5.1-0.7,6.5-0.7
				s2.4,0.3,3,0.8s0.9,1.2,0.9,1.9c0,0.7-0.2,1.4-0.7,1.9s-1,0.8-1.8,0.8h-1.8c-0.7,0-1.2,0.1-1.5,0.4c-0.3,0.3-0.5,0.8-0.5,1.6
				c0,6.5,0.4,16.2,1.3,29.1c0.9,12.9,1.3,22.7,1.3,29.1v4.3H251.3z"/>
			<path class="st29" d="M280.6,63.4l0.3-10.9c0-3.1-0.2-5.3-0.5-6.6c-0.3-1.3-0.7-2.6-1.1-3.8c-0.5-1.2-0.7-2.1-0.7-2.8
				c0-0.7,0.1-1.2,0.4-1.6c0.3-0.4,0.7-0.8,1.2-1c0.5-0.2,1.1-0.4,1.6-0.6c0.5-0.1,1.2-0.3,1.9-0.3c1.3-0.1,2.2-0.1,2.8-0.1h1
				c2.8,0,5.9,1.5,9.1,4.4c3.9,3.5,6.3,7.3,7.1,11.2c0.5,2.3,0.8,4.9,1,7.7c0.2,2.8,0.3,4.7,0.4,5.6c0.2,2.1,0.5,3.6,0.8,4.4v4.6
				c-0.4,0.6-0.6,1.6-0.6,3c0,5-1.2,10.5-3.6,16.5s-5.4,10.5-8.9,13.6c-2.6,2.3-4.4,3.7-5.4,4.1c-0.9,0.4-1.8,0.6-2.7,0.6
				s-1.9-0.3-2.9-0.9c-1.1-0.6-1.6-1.4-1.6-2.6c1.5-1.5,2.3-5.4,2.3-11.7c0-3.7-0.3-9.2-1-16.5C281,72.5,280.6,67,280.6,63.4z
				 M287.5,96.1v9.5c5.4-3.6,9.2-10.4,11.3-20.3c1.1-5.1,1.6-10.3,1.6-15.7c0-18.7-4.8-28-14.4-28v0.2c0,6.2,0.2,15.3,0.7,27.4
				C287.3,81.2,287.5,90.2,287.5,96.1z"/>
			<path class="st29" d="M340,66.8l0.1,1.7c-0.5,2.3-0.8,6.3-1,12s-0.4,10.3-0.9,13.8c-0.4,3.5-1,6.6-1.8,9.2
				c-0.7,2.6-1.9,4.8-3.6,6.6c-1.6,1.8-3.5,2.6-5.5,2.6s-3.7-0.3-5-1s-2.3-1.7-3.2-3c-0.8-1.3-1.5-2.7-2-4.2s-0.9-3.3-1.2-5.2
				c-0.5-3.5-0.7-7.1-0.7-11l0.6-26.3c0-5.7-0.4-10.5-1.3-14.3v-2.4c1.7,0,3,0.6,3.9,1.8c1,1.2,1.4,2.6,1.4,4.1v48.2
				c0,2.6,0.7,4.9,2,7s3.3,3.2,5.9,3.2c2.9,0,4.9-8.2,5.9-24.6v-0.4l0.1-0.6c0.9-15,1.3-27.1,1.3-36.4l-0.1-1.7
				c0-0.8,0.2-1.4,0.6-1.8s1.1-0.6,2.1-0.6s1.8,0.3,2.3,0.8c0.5,0.6,0.8,1.1,0.9,1.7s0.1,1.3,0.1,2.3l-0.7,10L340,66.8z"/>
			<path class="st29" d="M374,71.9l-0.2,5v5.5c0,6.6-0.3,11-0.9,13.3s-1.2,4.2-1.9,5.7c-0.6,1.5-1.4,2.8-2.3,4
				c-2,2.6-4.6,4.8-7.7,6.4h-7.1c-1.8,0-2.6-4.3-2.6-13l0.3-31.4c0-5.8-0.1-11.3-0.4-16.4c-0.6-0.6-0.9-1.4-0.9-2.3
				c0-0.9,0.4-1.7,1.2-2.3c0.8-0.7,1.7-1,2.8-1c1.1,0,2,0.6,2.8,1.8c0.5,0.2,1.3,0.4,2.3,0.5c1,0.2,1.7,0.4,2.2,0.6
				c3.9,1.7,6.9,4.8,9.1,9.1C372.9,61.7,374,66.6,374,71.9z M356.9,60.3l1.2,44v2.4h1.9c3.6-4.2,6-8.1,7-11.6
				c1-3.3,1.5-7.9,1.5-13.7c0-20-3.6-30.5-10.8-31.4C357.2,52.6,356.9,56.1,356.9,60.3z"/>
			<path class="st29" d="M393.5,107.4l4.1-0.2c2.6,0,4,0.8,4,2.4c0,1-0.5,1.7-1.4,2.2s-1.9,0.7-3.1,0.7h-9.8c-0.9,0-1.6-0.3-2.3-0.9
				c-0.6-0.6-1-1.3-1-2.2c-0.1-0.9,0-2,0.2-3.4s0.3-2.4,0.3-3.3L384,90l0.7-29.1l-0.6-8.4c0-4.7,1.5-7.1,4.4-7.1
				c0.8,0,1.6,0.2,2.3,0.7c0.3,0,0.9,0.1,2,0.2c1,0.1,1.9,0.2,2.7,0.3c0.8,0.1,1.6,0.3,2.5,0.5c2,0.5,2.9,1.4,2.9,2.7
				c0,1.4-1,2.4-3,3.1c-3.2-1-5.8-1.7-7.9-1.9c0.1,1.4,0.2,2.9,0.2,4.3l-0.5,14.3c0,0.1,0.1,0.6,0.3,1.6l3.7-0.1c3.4,0,5,0.9,5,2.7
				c0,1-0.3,1.8-0.9,2.6c-0.6,0.7-1.4,1.1-2.5,1.1s-2-0.3-2.8-0.9h-2.6c0.2,2.5,0.3,4.9,0.3,7.2l-0.5,18
				C389.7,105.6,391,107.4,393.5,107.4z"/>
			<path class="st29" d="M408.8,107l5.5,0.7c1.3,0,2.5-0.6,3.5-1.7s1.7-2.5,2.2-4.1c0.9-3.2,1.4-6,1.4-8.4s-0.4-4.9-1.3-7.3
				c-0.8-2.4-1.9-4.6-3.1-6.7s-2.5-4.2-3.7-6.3c-2.9-5-4.4-10-4.4-14.9c0-3,0.5-5.6,1.6-7.9c2-4.3,4.6-6.4,7.8-6.4
				c1.2,0,2.4,0.4,3.5,1.1s1.7,1.6,1.7,2.4c0,1.5-0.8,2.3-2.5,2.3c-0.7,0-1.5-0.2-2.2-0.6c-2.2,0.1-3.7,2.5-4.5,7.1
				c-0.2,1-0.3,2.2-0.3,3.5c0,1.3,0.3,3,0.9,5c0.6,2,1.4,3.7,2.3,5.3c0.9,1.5,1.9,3.2,3,5.1s2.1,3.7,3,5.4c2.1,4.1,3.2,8.7,3.2,13.9
				c0,4.2-0.9,8-2.6,11.5c-0.9,1.8-2.2,3.3-3.9,4.5s-3.6,1.7-5.8,1.8v0.2c-1.3-0.2-2.5-0.6-3.5-1.2c-1-0.7-1.6-1.5-1.8-2.6
				L408.8,107L408.8,107z"/>
		</g>
		<g class="st27">
			<path class="st30" d="M170.7,63.4l0.3-10.9c0-3.1-0.2-5.3-0.5-6.6c-0.3-1.3-0.7-2.6-1.1-3.8c-0.5-1.2-0.7-2.1-0.7-2.8
				c0-0.7,0.1-1.2,0.4-1.6s0.7-0.8,1.2-1c0.5-0.2,1.1-0.4,1.6-0.6c0.5-0.1,1.2-0.3,1.9-0.3c1.3-0.1,2.2-0.1,2.8-0.1h1
				c2.8,0,5.9,1.5,9.1,4.4c3.9,3.5,6.3,7.3,7.1,11.2c0.5,2.3,0.8,4.9,1,7.7c0.2,2.8,0.3,4.7,0.4,5.6c0.2,2.1,0.5,3.6,0.8,4.4v4.6
				c-0.4,0.6-0.6,1.6-0.6,3c0,5-1.2,10.5-3.6,16.5c-2.4,6-5.4,10.5-8.9,13.6c-2.6,2.3-4.4,3.7-5.4,4.1c-0.9,0.4-1.8,0.6-2.7,0.6
				s-1.9-0.3-2.9-0.9c-1.1-0.6-1.6-1.4-1.6-2.6c1.5-1.5,2.3-5.4,2.3-11.7c0-3.7-0.3-9.2-1-16.5C171,72.5,170.7,67,170.7,63.4z
				 M177.6,96.1v9.5c5.4-3.6,9.2-10.4,11.3-20.3c1.1-5.1,1.6-10.3,1.6-15.7c0-18.7-4.8-28-14.4-28v0.2c0,6.2,0.2,15.3,0.7,27.4
				C177.3,81.2,177.6,90.2,177.6,96.1z"/>
			<path class="st30" d="M231,81.1l-0.9,12.6v0.4c-0.4,1.8-0.7,3.8-0.7,6c0,2.1-0.4,4.2-1.1,6.2c-0.8,2-1.9,3.8-3.5,5.3
				s-3.3,2.3-5.2,2.3s-3.6-0.6-5.1-1.8c-1.5-1.2-2.8-2.8-3.8-4.7c-1-1.9-1.9-4.2-2.7-6.9c-0.8-2.7-1.4-5.3-1.8-7.8s-0.7-5.2-1-8.1
				c-0.4-4.3-0.6-7.9-0.6-10.6c0-2.8,0.1-5.1,0.2-6.8c0.1-3.3,0.3-6.2,0.5-8.7s0.3-4.5,0.3-5.9s0.1-2.5,0.1-3.5
				c0-0.9,0.1-2.1,0.3-3.5s0.4-2.6,0.6-3.5c0.2-1,0.6-2,1.1-3.1s1.1-1.9,1.8-2.6c1.6-1.5,3.3-2.3,5.2-2.3s3.5,0.2,4.6,0.5
				c1.2,0.4,2.1,0.8,2.9,1.4c0.8,0.6,1.5,1.3,2.2,2.2s1.2,1.8,1.6,2.7c0.4,0.9,0.8,1.9,1.1,3.2c0.4,1.6,0.9,3.8,1.3,6.7
				C230.2,62.1,231,72.2,231,81.1z M221.8,44.7c-0.7-1.7-1.5-3-2.5-3.9s-2-1.4-2.9-1.4s-1.7,0.2-2.3,0.7s-1.1,1.1-1.5,2
				s-0.8,1.9-1.1,2.9s-0.6,2.3-0.8,3.7c-0.2,1.5-0.4,2.8-0.6,4c-0.2,1.2-0.3,2.6-0.4,4.3c-0.1,1.7-0.2,3-0.3,4s-0.1,2.3-0.1,3.7
				c0,1.5,0,2.4,0,2.9v2c0,5.4,0.5,11.5,1.6,18.4c2.1,13.6,5.1,20.4,8.9,20.4c1.4,0,2.5-1.2,3.5-3.7c0.9-2.5,1.6-5.6,2-9.3
				c0.7-6.3,1-10.9,1-13.7c0-2.8,0-4.9,0-6.1s-0.1-3-0.2-5.4c-0.1-2.4-0.2-4.6-0.4-6.6c-0.2-2.1-0.5-4.3-0.8-6.8s-0.7-4.7-1.2-6.7
				C223.1,48.2,222.5,46.4,221.8,44.7z"/>
			<path class="st30" d="M251.3,105.6h2.1c2.8,0,4.2,0.6,4.2,1.7c0.3,1.1,0.1,1.9-0.4,2.4s-1.3,0.7-2.2,0.7h-13.1c-2,0-3-0.8-3-2.3
				s1-2.3,3.1-2.3h3.2c0.3,0,0.5-1.7,0.5-5s-0.3-10.1-1-20.3c-0.6-10.2-1-17.9-1-23l0.2-10.2c0-2.1-0.1-4-0.3-5.5
				c-0.9,0.3-1.7,0.4-2.4,0.4c-1.6,0-2.4-0.8-2.4-2.4c0-0.8,0.5-1.5,1.6-2.1c1-0.6,2.4-1,3.9-1.3c2.9-0.5,5.1-0.7,6.5-0.7
				s2.4,0.3,3,0.8s0.9,1.2,0.9,1.9c0,0.7-0.2,1.4-0.7,1.9s-1,0.8-1.8,0.8h-1.8c-0.7,0-1.2,0.1-1.5,0.4c-0.3,0.3-0.5,0.8-0.5,1.6
				c0,6.5,0.4,16.2,1.3,29.1c0.9,12.9,1.3,22.7,1.3,29.1v4.3H251.3z"/>
			<path class="st30" d="M280.6,63.4l0.3-10.9c0-3.1-0.2-5.3-0.5-6.6c-0.3-1.3-0.7-2.6-1.1-3.8c-0.5-1.2-0.7-2.1-0.7-2.8
				c0-0.7,0.1-1.2,0.4-1.6c0.3-0.4,0.7-0.8,1.2-1c0.5-0.2,1.1-0.4,1.6-0.6c0.5-0.1,1.2-0.3,1.9-0.3c1.3-0.1,2.2-0.1,2.8-0.1h1
				c2.8,0,5.9,1.5,9.1,4.4c3.9,3.5,6.3,7.3,7.1,11.2c0.5,2.3,0.8,4.9,1,7.7c0.2,2.8,0.3,4.7,0.4,5.6c0.2,2.1,0.5,3.6,0.8,4.4v4.6
				c-0.4,0.6-0.6,1.6-0.6,3c0,5-1.2,10.5-3.6,16.5s-5.4,10.5-8.9,13.6c-2.6,2.3-4.4,3.7-5.4,4.1c-0.9,0.4-1.8,0.6-2.7,0.6
				s-1.9-0.3-2.9-0.9c-1.1-0.6-1.6-1.4-1.6-2.6c1.5-1.5,2.3-5.4,2.3-11.7c0-3.7-0.3-9.2-1-16.5C281,72.5,280.6,67,280.6,63.4z
				 M287.5,96.1v9.5c5.4-3.6,9.2-10.4,11.3-20.3c1.1-5.1,1.6-10.3,1.6-15.7c0-18.7-4.8-28-14.4-28v0.2c0,6.2,0.2,15.3,0.7,27.4
				C287.3,81.2,287.5,90.2,287.5,96.1z"/>
			<path class="st30" d="M340,66.8l0.1,1.7c-0.5,2.3-0.8,6.3-1,12s-0.4,10.3-0.9,13.8c-0.4,3.5-1,6.6-1.8,9.2
				c-0.7,2.6-1.9,4.8-3.6,6.6c-1.6,1.8-3.5,2.6-5.5,2.6s-3.7-0.3-5-1s-2.3-1.7-3.2-3c-0.8-1.3-1.5-2.7-2-4.2s-0.9-3.3-1.2-5.2
				c-0.5-3.5-0.7-7.1-0.7-11l0.6-26.3c0-5.7-0.4-10.5-1.3-14.3v-2.4c1.7,0,3,0.6,3.9,1.8c1,1.2,1.4,2.6,1.4,4.1v48.2
				c0,2.6,0.7,4.9,2,7s3.3,3.2,5.9,3.2c2.9,0,4.9-8.2,5.9-24.6v-0.4l0.1-0.6c0.9-15,1.3-27.1,1.3-36.4l-0.1-1.7
				c0-0.8,0.2-1.4,0.6-1.8s1.1-0.6,2.1-0.6s1.8,0.3,2.3,0.8c0.5,0.6,0.8,1.1,0.9,1.7s0.1,1.3,0.1,2.3l-0.7,10L340,66.8z"/>
			<path class="st30" d="M374,71.9l-0.2,5v5.5c0,6.6-0.3,11-0.9,13.3s-1.2,4.2-1.9,5.7c-0.6,1.5-1.4,2.8-2.3,4
				c-2,2.6-4.6,4.8-7.7,6.4h-7.1c-1.8,0-2.6-4.3-2.6-13l0.3-31.4c0-5.8-0.1-11.3-0.4-16.4c-0.6-0.6-0.9-1.4-0.9-2.3
				c0-0.9,0.4-1.7,1.2-2.3c0.8-0.7,1.7-1,2.8-1c1.1,0,2,0.6,2.8,1.8c0.5,0.2,1.3,0.4,2.3,0.5c1,0.2,1.7,0.4,2.2,0.6
				c3.9,1.7,6.9,4.8,9.1,9.1C372.9,61.7,374,66.6,374,71.9z M356.9,60.3l1.2,44v2.4h1.9c3.6-4.2,6-8.1,7-11.6
				c1-3.3,1.5-7.9,1.5-13.7c0-20-3.6-30.5-10.8-31.4C357.2,52.6,356.9,56.1,356.9,60.3z"/>
			<path class="st30" d="M393.5,107.4l4.1-0.2c2.6,0,4,0.8,4,2.4c0,1-0.5,1.7-1.4,2.2s-1.9,0.7-3.1,0.7h-9.8c-0.9,0-1.6-0.3-2.3-0.9
				c-0.6-0.6-1-1.3-1-2.2c-0.1-0.9,0-2,0.2-3.4s0.3-2.4,0.3-3.3L384,90l0.7-29.1l-0.6-8.4c0-4.7,1.5-7.1,4.4-7.1
				c0.8,0,1.6,0.2,2.3,0.7c0.3,0,0.9,0.1,2,0.2c1,0.1,1.9,0.2,2.7,0.3c0.8,0.1,1.6,0.3,2.5,0.5c2,0.5,2.9,1.4,2.9,2.7
				c0,1.4-1,2.4-3,3.1c-3.2-1-5.8-1.7-7.9-1.9c0.1,1.4,0.2,2.9,0.2,4.3l-0.5,14.3c0,0.1,0.1,0.6,0.3,1.6l3.7-0.1c3.4,0,5,0.9,5,2.7
				c0,1-0.3,1.8-0.9,2.6c-0.6,0.7-1.4,1.1-2.5,1.1s-2-0.3-2.8-0.9h-2.6c0.2,2.5,0.3,4.9,0.3,7.2l-0.5,18
				C389.7,105.6,391,107.4,393.5,107.4z"/>
			<path class="st30" d="M408.8,107l5.5,0.7c1.3,0,2.5-0.6,3.5-1.7s1.7-2.5,2.2-4.1c0.9-3.2,1.4-6,1.4-8.4s-0.4-4.9-1.3-7.3
				c-0.8-2.4-1.9-4.6-3.1-6.7s-2.5-4.2-3.7-6.3c-2.9-5-4.4-10-4.4-14.9c0-3,0.5-5.6,1.6-7.9c2-4.3,4.6-6.4,7.8-6.4
				c1.2,0,2.4,0.4,3.5,1.1s1.7,1.6,1.7,2.4c0,1.5-0.8,2.3-2.5,2.3c-0.7,0-1.5-0.2-2.2-0.6c-2.2,0.1-3.7,2.5-4.5,7.1
				c-0.2,1-0.3,2.2-0.3,3.5c0,1.3,0.3,3,0.9,5c0.6,2,1.4,3.7,2.3,5.3c0.9,1.5,1.9,3.2,3,5.1s2.1,3.7,3,5.4c2.1,4.1,3.2,8.7,3.2,13.9
				c0,4.2-0.9,8-2.6,11.5c-0.9,1.8-2.2,3.3-3.9,4.5s-3.6,1.7-5.8,1.8v0.2c-1.3-0.2-2.5-0.6-3.5-1.2c-1-0.7-1.6-1.5-1.8-2.6
				L408.8,107L408.8,107z"/>
		</g>
	</g>
	<g>
		<g class="st27">
			<path class="st14" d="M170.7,63.4l0.3-10.9c0-3.1-0.2-5.3-0.5-6.6c-0.3-1.3-0.7-2.6-1.1-3.8c-0.5-1.2-0.7-2.1-0.7-2.8
				c0-0.7,0.1-1.2,0.4-1.6s0.7-0.8,1.2-1c0.5-0.2,1.1-0.4,1.6-0.6c0.5-0.1,1.2-0.3,1.9-0.3c1.3-0.1,2.2-0.1,2.8-0.1h1
				c2.8,0,5.9,1.5,9.1,4.4c3.9,3.5,6.3,7.3,7.1,11.2c0.5,2.3,0.8,4.9,1,7.7c0.2,2.8,0.3,4.7,0.4,5.6c0.2,2.1,0.5,3.6,0.8,4.4v4.6
				c-0.4,0.6-0.6,1.6-0.6,3c0,5-1.2,10.5-3.6,16.5c-2.4,6-5.4,10.5-8.9,13.6c-2.6,2.3-4.4,3.7-5.4,4.1c-0.9,0.4-1.8,0.6-2.7,0.6
				s-1.9-0.3-2.9-0.9c-1.1-0.6-1.6-1.4-1.6-2.6c1.5-1.5,2.3-5.4,2.3-11.7c0-3.7-0.3-9.2-1-16.5C171,72.5,170.7,67,170.7,63.4z
				 M177.6,96.1v9.5c5.4-3.6,9.2-10.4,11.3-20.3c1.1-5.1,1.6-10.3,1.6-15.7c0-18.7-4.8-28-14.4-28v0.2c0,6.2,0.2,15.3,0.7,27.4
				C177.3,81.2,177.6,90.2,177.6,96.1z"/>
			<path class="st14" d="M231,81.1l-0.9,12.6v0.4c-0.4,1.8-0.7,3.8-0.7,6c0,2.1-0.4,4.2-1.1,6.2c-0.8,2-1.9,3.8-3.5,5.3
				s-3.3,2.3-5.2,2.3s-3.6-0.6-5.1-1.8c-1.5-1.2-2.8-2.8-3.8-4.7c-1-1.9-1.9-4.2-2.7-6.9c-0.8-2.7-1.4-5.3-1.8-7.8s-0.7-5.2-1-8.1
				c-0.4-4.3-0.6-7.9-0.6-10.6c0-2.8,0.1-5.1,0.2-6.8c0.1-3.3,0.3-6.2,0.5-8.7s0.3-4.5,0.3-5.9s0.1-2.5,0.1-3.5
				c0-0.9,0.1-2.1,0.3-3.5s0.4-2.6,0.6-3.5c0.2-1,0.6-2,1.1-3.1s1.1-1.9,1.8-2.6c1.6-1.5,3.3-2.3,5.2-2.3s3.5,0.2,4.6,0.5
				c1.2,0.4,2.1,0.8,2.9,1.4c0.8,0.6,1.5,1.3,2.2,2.2s1.2,1.8,1.6,2.7c0.4,0.9,0.8,1.9,1.1,3.2c0.4,1.6,0.9,3.8,1.3,6.7
				C230.2,62.1,231,72.2,231,81.1z M221.8,44.7c-0.7-1.7-1.5-3-2.5-3.9s-2-1.4-2.9-1.4s-1.7,0.2-2.3,0.7s-1.1,1.1-1.5,2
				s-0.8,1.9-1.1,2.9s-0.6,2.3-0.8,3.7c-0.2,1.5-0.4,2.8-0.6,4c-0.2,1.2-0.3,2.6-0.4,4.3c-0.1,1.7-0.2,3-0.3,4s-0.1,2.3-0.1,3.7
				c0,1.5,0,2.4,0,2.9v2c0,5.4,0.5,11.5,1.6,18.4c2.1,13.6,5.1,20.4,8.9,20.4c1.4,0,2.5-1.2,3.5-3.7c0.9-2.5,1.6-5.6,2-9.3
				c0.7-6.3,1-10.9,1-13.7c0-2.8,0-4.9,0-6.1s-0.1-3-0.2-5.4c-0.1-2.4-0.2-4.6-0.4-6.6c-0.2-2.1-0.5-4.3-0.8-6.8s-0.7-4.7-1.2-6.7
				C223.1,48.2,222.5,46.4,221.8,44.7z"/>
			<path class="st14" d="M251.3,105.6h2.1c2.8,0,4.2,0.6,4.2,1.7c0.3,1.1,0.1,1.9-0.4,2.4s-1.3,0.7-2.2,0.7h-13.1c-2,0-3-0.8-3-2.3
				s1-2.3,3.1-2.3h3.2c0.3,0,0.5-1.7,0.5-5s-0.3-10.1-1-20.3c-0.6-10.2-1-17.9-1-23l0.2-10.2c0-2.1-0.1-4-0.3-5.5
				c-0.9,0.3-1.7,0.4-2.4,0.4c-1.6,0-2.4-0.8-2.4-2.4c0-0.8,0.5-1.5,1.6-2.1c1-0.6,2.4-1,3.9-1.3c2.9-0.5,5.1-0.7,6.5-0.7
				s2.4,0.3,3,0.8s0.9,1.2,0.9,1.9c0,0.7-0.2,1.4-0.7,1.9s-1,0.8-1.8,0.8h-1.8c-0.7,0-1.2,0.1-1.5,0.4c-0.3,0.3-0.5,0.8-0.5,1.6
				c0,6.5,0.4,16.2,1.3,29.1c0.9,12.9,1.3,22.7,1.3,29.1v4.3H251.3z"/>
			<path class="st14" d="M280.6,63.4l0.3-10.9c0-3.1-0.2-5.3-0.5-6.6c-0.3-1.3-0.7-2.6-1.1-3.8c-0.5-1.2-0.7-2.1-0.7-2.8
				c0-0.7,0.1-1.2,0.4-1.6c0.3-0.4,0.7-0.8,1.2-1c0.5-0.2,1.1-0.4,1.6-0.6c0.5-0.1,1.2-0.3,1.9-0.3c1.3-0.1,2.2-0.1,2.8-0.1h1
				c2.8,0,5.9,1.5,9.1,4.4c3.9,3.5,6.3,7.3,7.1,11.2c0.5,2.3,0.8,4.9,1,7.7c0.2,2.8,0.3,4.7,0.4,5.6c0.2,2.1,0.5,3.6,0.8,4.4v4.6
				c-0.4,0.6-0.6,1.6-0.6,3c0,5-1.2,10.5-3.6,16.5s-5.4,10.5-8.9,13.6c-2.6,2.3-4.4,3.7-5.4,4.1c-0.9,0.4-1.8,0.6-2.7,0.6
				s-1.9-0.3-2.9-0.9c-1.1-0.6-1.6-1.4-1.6-2.6c1.5-1.5,2.3-5.4,2.3-11.7c0-3.7-0.3-9.2-1-16.5C281,72.5,280.6,67,280.6,63.4z
				 M287.5,96.1v9.5c5.4-3.6,9.2-10.4,11.3-20.3c1.1-5.1,1.6-10.3,1.6-15.7c0-18.7-4.8-28-14.4-28v0.2c0,6.2,0.2,15.3,0.7,27.4
				C287.3,81.2,287.5,90.2,287.5,96.1z"/>
			<path class="st14" d="M340,66.8l0.1,1.7c-0.5,2.3-0.8,6.3-1,12s-0.4,10.3-0.9,13.8c-0.4,3.5-1,6.6-1.8,9.2
				c-0.7,2.6-1.9,4.8-3.6,6.6c-1.6,1.8-3.5,2.6-5.5,2.6s-3.7-0.3-5-1s-2.3-1.7-3.2-3c-0.8-1.3-1.5-2.7-2-4.2s-0.9-3.3-1.2-5.2
				c-0.5-3.5-0.7-7.1-0.7-11l0.6-26.3c0-5.7-0.4-10.5-1.3-14.3v-2.4c1.7,0,3,0.6,3.9,1.8c1,1.2,1.4,2.6,1.4,4.1v48.2
				c0,2.6,0.7,4.9,2,7s3.3,3.2,5.9,3.2c2.9,0,4.9-8.2,5.9-24.6v-0.4l0.1-0.6c0.9-15,1.3-27.1,1.3-36.4l-0.1-1.7
				c0-0.8,0.2-1.4,0.6-1.8s1.1-0.6,2.1-0.6s1.8,0.3,2.3,0.8c0.5,0.6,0.8,1.1,0.9,1.7s0.1,1.3,0.1,2.3l-0.7,10L340,66.8z"/>
			<path class="st14" d="M374,71.9l-0.2,5v5.5c0,6.6-0.3,11-0.9,13.3s-1.2,4.2-1.9,5.7c-0.6,1.5-1.4,2.8-2.3,4
				c-2,2.6-4.6,4.8-7.7,6.4h-7.1c-1.8,0-2.6-4.3-2.6-13l0.3-31.4c0-5.8-0.1-11.3-0.4-16.4c-0.6-0.6-0.9-1.4-0.9-2.3
				c0-0.9,0.4-1.7,1.2-2.3c0.8-0.7,1.7-1,2.8-1c1.1,0,2,0.6,2.8,1.8c0.5,0.2,1.3,0.4,2.3,0.5c1,0.2,1.7,0.4,2.2,0.6
				c3.9,1.7,6.9,4.8,9.1,9.1C372.9,61.7,374,66.6,374,71.9z M356.9,60.3l1.2,44v2.4h1.9c3.6-4.2,6-8.1,7-11.6
				c1-3.3,1.5-7.9,1.5-13.7c0-20-3.6-30.5-10.8-31.4C357.2,52.6,356.9,56.1,356.9,60.3z"/>
			<path class="st14" d="M393.5,107.4l4.1-0.2c2.6,0,4,0.8,4,2.4c0,1-0.5,1.7-1.4,2.2s-1.9,0.7-3.1,0.7h-9.8c-0.9,0-1.6-0.3-2.3-0.9
				c-0.6-0.6-1-1.3-1-2.2c-0.1-0.9,0-2,0.2-3.4s0.3-2.4,0.3-3.3L384,90l0.7-29.1l-0.6-8.4c0-4.7,1.5-7.1,4.4-7.1
				c0.8,0,1.6,0.2,2.3,0.7c0.3,0,0.9,0.1,2,0.2c1,0.1,1.9,0.2,2.7,0.3c0.8,0.1,1.6,0.3,2.5,0.5c2,0.5,2.9,1.4,2.9,2.7
				c0,1.4-1,2.4-3,3.1c-3.2-1-5.8-1.7-7.9-1.9c0.1,1.4,0.2,2.9,0.2,4.3l-0.5,14.3c0,0.1,0.1,0.6,0.3,1.6l3.7-0.1c3.4,0,5,0.9,5,2.7
				c0,1-0.3,1.8-0.9,2.6c-0.6,0.7-1.4,1.1-2.5,1.1s-2-0.3-2.8-0.9h-2.6c0.2,2.5,0.3,4.9,0.3,7.2l-0.5,18
				C389.7,105.6,391,107.4,393.5,107.4z"/>
			<path class="st14" d="M408.8,107l5.5,0.7c1.3,0,2.5-0.6,3.5-1.7s1.7-2.5,2.2-4.1c0.9-3.2,1.4-6,1.4-8.4s-0.4-4.9-1.3-7.3
				c-0.8-2.4-1.9-4.6-3.1-6.7s-2.5-4.2-3.7-6.3c-2.9-5-4.4-10-4.4-14.9c0-3,0.5-5.6,1.6-7.9c2-4.3,4.6-6.4,7.8-6.4
				c1.2,0,2.4,0.4,3.5,1.1s1.7,1.6,1.7,2.4c0,1.5-0.8,2.3-2.5,2.3c-0.7,0-1.5-0.2-2.2-0.6c-2.2,0.1-3.7,2.5-4.5,7.1
				c-0.2,1-0.3,2.2-0.3,3.5c0,1.3,0.3,3,0.9,5c0.6,2,1.4,3.7,2.3,5.3c0.9,1.5,1.9,3.2,3,5.1s2.1,3.7,3,5.4c2.1,4.1,3.2,8.7,3.2,13.9
				c0,4.2-0.9,8-2.6,11.5c-0.9,1.8-2.2,3.3-3.9,4.5s-3.6,1.7-5.8,1.8v0.2c-1.3-0.2-2.5-0.6-3.5-1.2c-1-0.7-1.6-1.5-1.8-2.6
				L408.8,107L408.8,107z"/>
		</g>
		<g class="st27">
			<path class="st31" d="M170.7,63.4l0.3-10.9c0-3.1-0.2-5.3-0.5-6.6c-0.3-1.3-0.7-2.6-1.1-3.8c-0.5-1.2-0.7-2.1-0.7-2.8
				c0-0.7,0.1-1.2,0.4-1.6s0.7-0.8,1.2-1c0.5-0.2,1.1-0.4,1.6-0.6c0.5-0.1,1.2-0.3,1.9-0.3c1.3-0.1,2.2-0.1,2.8-0.1h1
				c2.8,0,5.9,1.5,9.1,4.4c3.9,3.5,6.3,7.3,7.1,11.2c0.5,2.3,0.8,4.9,1,7.7c0.2,2.8,0.3,4.7,0.4,5.6c0.2,2.1,0.5,3.6,0.8,4.4v4.6
				c-0.4,0.6-0.6,1.6-0.6,3c0,5-1.2,10.5-3.6,16.5c-2.4,6-5.4,10.5-8.9,13.6c-2.6,2.3-4.4,3.7-5.4,4.1c-0.9,0.4-1.8,0.6-2.7,0.6
				s-1.9-0.3-2.9-0.9c-1.1-0.6-1.6-1.4-1.6-2.6c1.5-1.5,2.3-5.4,2.3-11.7c0-3.7-0.3-9.2-1-16.5C171,72.5,170.7,67,170.7,63.4z
				 M177.6,96.1v9.5c5.4-3.6,9.2-10.4,11.3-20.3c1.1-5.1,1.6-10.3,1.6-15.7c0-18.7-4.8-28-14.4-28v0.2c0,6.2,0.2,15.3,0.7,27.4
				C177.3,81.2,177.6,90.2,177.6,96.1z"/>
			<path class="st31" d="M231,81.1l-0.9,12.6v0.4c-0.4,1.8-0.7,3.8-0.7,6c0,2.1-0.4,4.2-1.1,6.2c-0.8,2-1.9,3.8-3.5,5.3
				s-3.3,2.3-5.2,2.3s-3.6-0.6-5.1-1.8c-1.5-1.2-2.8-2.8-3.8-4.7c-1-1.9-1.9-4.2-2.7-6.9c-0.8-2.7-1.4-5.3-1.8-7.8s-0.7-5.2-1-8.1
				c-0.4-4.3-0.6-7.9-0.6-10.6c0-2.8,0.1-5.1,0.2-6.8c0.1-3.3,0.3-6.2,0.5-8.7s0.3-4.5,0.3-5.9s0.1-2.5,0.1-3.5
				c0-0.9,0.1-2.1,0.3-3.5s0.4-2.6,0.6-3.5c0.2-1,0.6-2,1.1-3.1s1.1-1.9,1.8-2.6c1.6-1.5,3.3-2.3,5.2-2.3s3.5,0.2,4.6,0.5
				c1.2,0.4,2.1,0.8,2.9,1.4c0.8,0.6,1.5,1.3,2.2,2.2s1.2,1.8,1.6,2.7c0.4,0.9,0.8,1.9,1.1,3.2c0.4,1.6,0.9,3.8,1.3,6.7
				C230.2,62.1,231,72.2,231,81.1z M221.8,44.7c-0.7-1.7-1.5-3-2.5-3.9s-2-1.4-2.9-1.4s-1.7,0.2-2.3,0.7s-1.1,1.1-1.5,2
				s-0.8,1.9-1.1,2.9s-0.6,2.3-0.8,3.7c-0.2,1.5-0.4,2.8-0.6,4c-0.2,1.2-0.3,2.6-0.4,4.3c-0.1,1.7-0.2,3-0.3,4s-0.1,2.3-0.1,3.7
				c0,1.5,0,2.4,0,2.9v2c0,5.4,0.5,11.5,1.6,18.4c2.1,13.6,5.1,20.4,8.9,20.4c1.4,0,2.5-1.2,3.5-3.7c0.9-2.5,1.6-5.6,2-9.3
				c0.7-6.3,1-10.9,1-13.7c0-2.8,0-4.9,0-6.1s-0.1-3-0.2-5.4c-0.1-2.4-0.2-4.6-0.4-6.6c-0.2-2.1-0.5-4.3-0.8-6.8s-0.7-4.7-1.2-6.7
				C223.1,48.2,222.5,46.4,221.8,44.7z"/>
			<path class="st31" d="M251.3,105.6h2.1c2.8,0,4.2,0.6,4.2,1.7c0.3,1.1,0.1,1.9-0.4,2.4s-1.3,0.7-2.2,0.7h-13.1c-2,0-3-0.8-3-2.3
				s1-2.3,3.1-2.3h3.2c0.3,0,0.5-1.7,0.5-5s-0.3-10.1-1-20.3c-0.6-10.2-1-17.9-1-23l0.2-10.2c0-2.1-0.1-4-0.3-5.5
				c-0.9,0.3-1.7,0.4-2.4,0.4c-1.6,0-2.4-0.8-2.4-2.4c0-0.8,0.5-1.5,1.6-2.1c1-0.6,2.4-1,3.9-1.3c2.9-0.5,5.1-0.7,6.5-0.7
				s2.4,0.3,3,0.8s0.9,1.2,0.9,1.9c0,0.7-0.2,1.4-0.7,1.9s-1,0.8-1.8,0.8h-1.8c-0.7,0-1.2,0.1-1.5,0.4c-0.3,0.3-0.5,0.8-0.5,1.6
				c0,6.5,0.4,16.2,1.3,29.1c0.9,12.9,1.3,22.7,1.3,29.1v4.3H251.3z"/>
			<path class="st31" d="M280.6,63.4l0.3-10.9c0-3.1-0.2-5.3-0.5-6.6c-0.3-1.3-0.7-2.6-1.1-3.8c-0.5-1.2-0.7-2.1-0.7-2.8
				c0-0.7,0.1-1.2,0.4-1.6c0.3-0.4,0.7-0.8,1.2-1c0.5-0.2,1.1-0.4,1.6-0.6c0.5-0.1,1.2-0.3,1.9-0.3c1.3-0.1,2.2-0.1,2.8-0.1h1
				c2.8,0,5.9,1.5,9.1,4.4c3.9,3.5,6.3,7.3,7.1,11.2c0.5,2.3,0.8,4.9,1,7.7c0.2,2.8,0.3,4.7,0.4,5.6c0.2,2.1,0.5,3.6,0.8,4.4v4.6
				c-0.4,0.6-0.6,1.6-0.6,3c0,5-1.2,10.5-3.6,16.5s-5.4,10.5-8.9,13.6c-2.6,2.3-4.4,3.7-5.4,4.1c-0.9,0.4-1.8,0.6-2.7,0.6
				s-1.9-0.3-2.9-0.9c-1.1-0.6-1.6-1.4-1.6-2.6c1.5-1.5,2.3-5.4,2.3-11.7c0-3.7-0.3-9.2-1-16.5C281,72.5,280.6,67,280.6,63.4z
				 M287.5,96.1v9.5c5.4-3.6,9.2-10.4,11.3-20.3c1.1-5.1,1.6-10.3,1.6-15.7c0-18.7-4.8-28-14.4-28v0.2c0,6.2,0.2,15.3,0.7,27.4
				C287.3,81.2,287.5,90.2,287.5,96.1z"/>
			<path class="st31" d="M340,66.8l0.1,1.7c-0.5,2.3-0.8,6.3-1,12s-0.4,10.3-0.9,13.8c-0.4,3.5-1,6.6-1.8,9.2
				c-0.7,2.6-1.9,4.8-3.6,6.6c-1.6,1.8-3.5,2.6-5.5,2.6s-3.7-0.3-5-1s-2.3-1.7-3.2-3c-0.8-1.3-1.5-2.7-2-4.2s-0.9-3.3-1.2-5.2
				c-0.5-3.5-0.7-7.1-0.7-11l0.6-26.3c0-5.7-0.4-10.5-1.3-14.3v-2.4c1.7,0,3,0.6,3.9,1.8c1,1.2,1.4,2.6,1.4,4.1v48.2
				c0,2.6,0.7,4.9,2,7s3.3,3.2,5.9,3.2c2.9,0,4.9-8.2,5.9-24.6v-0.4l0.1-0.6c0.9-15,1.3-27.1,1.3-36.4l-0.1-1.7
				c0-0.8,0.2-1.4,0.6-1.8s1.1-0.6,2.1-0.6s1.8,0.3,2.3,0.8c0.5,0.6,0.8,1.1,0.9,1.7s0.1,1.3,0.1,2.3l-0.7,10L340,66.8z"/>
			<path class="st31" d="M374,71.9l-0.2,5v5.5c0,6.6-0.3,11-0.9,13.3s-1.2,4.2-1.9,5.7c-0.6,1.5-1.4,2.8-2.3,4
				c-2,2.6-4.6,4.8-7.7,6.4h-7.1c-1.8,0-2.6-4.3-2.6-13l0.3-31.4c0-5.8-0.1-11.3-0.4-16.4c-0.6-0.6-0.9-1.4-0.9-2.3
				c0-0.9,0.4-1.7,1.2-2.3c0.8-0.7,1.7-1,2.8-1c1.1,0,2,0.6,2.8,1.8c0.5,0.2,1.3,0.4,2.3,0.5c1,0.2,1.7,0.4,2.2,0.6
				c3.9,1.7,6.9,4.8,9.1,9.1C372.9,61.7,374,66.6,374,71.9z M356.9,60.3l1.2,44v2.4h1.9c3.6-4.2,6-8.1,7-11.6
				c1-3.3,1.5-7.9,1.5-13.7c0-20-3.6-30.5-10.8-31.4C357.2,52.6,356.9,56.1,356.9,60.3z"/>
			<path class="st31" d="M393.5,107.4l4.1-0.2c2.6,0,4,0.8,4,2.4c0,1-0.5,1.7-1.4,2.2s-1.9,0.7-3.1,0.7h-9.8c-0.9,0-1.6-0.3-2.3-0.9
				c-0.6-0.6-1-1.3-1-2.2c-0.1-0.9,0-2,0.2-3.4s0.3-2.4,0.3-3.3L384,90l0.7-29.1l-0.6-8.4c0-4.7,1.5-7.1,4.4-7.1
				c0.8,0,1.6,0.2,2.3,0.7c0.3,0,0.9,0.1,2,0.2c1,0.1,1.9,0.2,2.7,0.3c0.8,0.1,1.6,0.3,2.5,0.5c2,0.5,2.9,1.4,2.9,2.7
				c0,1.4-1,2.4-3,3.1c-3.2-1-5.8-1.7-7.9-1.9c0.1,1.4,0.2,2.9,0.2,4.3l-0.5,14.3c0,0.1,0.1,0.6,0.3,1.6l3.7-0.1c3.4,0,5,0.9,5,2.7
				c0,1-0.3,1.8-0.9,2.6c-0.6,0.7-1.4,1.1-2.5,1.1s-2-0.3-2.8-0.9h-2.6c0.2,2.5,0.3,4.9,0.3,7.2l-0.5,18
				C389.7,105.6,391,107.4,393.5,107.4z"/>
			<path class="st31" d="M408.8,107l5.5,0.7c1.3,0,2.5-0.6,3.5-1.7s1.7-2.5,2.2-4.1c0.9-3.2,1.4-6,1.4-8.4s-0.4-4.9-1.3-7.3
				c-0.8-2.4-1.9-4.6-3.1-6.7s-2.5-4.2-3.7-6.3c-2.9-5-4.4-10-4.4-14.9c0-3,0.5-5.6,1.6-7.9c2-4.3,4.6-6.4,7.8-6.4
				c1.2,0,2.4,0.4,3.5,1.1s1.7,1.6,1.7,2.4c0,1.5-0.8,2.3-2.5,2.3c-0.7,0-1.5-0.2-2.2-0.6c-2.2,0.1-3.7,2.5-4.5,7.1
				c-0.2,1-0.3,2.2-0.3,3.5c0,1.3,0.3,3,0.9,5c0.6,2,1.4,3.7,2.3,5.3c0.9,1.5,1.9,3.2,3,5.1s2.1,3.7,3,5.4c2.1,4.1,3.2,8.7,3.2,13.9
				c0,4.2-0.9,8-2.6,11.5c-0.9,1.8-2.2,3.3-3.9,4.5s-3.6,1.7-5.8,1.8v0.2c-1.3-0.2-2.5-0.6-3.5-1.2c-1-0.7-1.6-1.5-1.8-2.6
				L408.8,107L408.8,107z"/>
		</g>
	</g>
</g>
</svg>
