<?xml version="1.0" encoding="utf-8"?>
<!-- Generator: Adobe Illustrator 19.1.0, SVG Export Plug-In . SVG Version: 6.00 Build 0)  -->
<svg version="1.1" id="Layer_1" xmlns="http://www.w3.org/2000/svg" xmlns:xlink="http://www.w3.org/1999/xlink" x="0px" y="0px"
	 viewBox="-54 16 192 70" style="enable-background:new -54 16 192 70;" xml:space="preserve">
<style type="text/css">
	.st0{fill:#231F20;}
	.st1{font-family:'GoudyOldStyleT-Regular';}
	.st2{font-size:22.3653px;}
	.st3{fill:#FFFFFF;}
	.st4{font-family:'GoudyOldStyleT-Bold';}
	.st5{font-size:53.7832px;}
</style>
<text transform="matrix(1 0 0 1 13.6758 38.3291)" class="st0 st1 st2">PUBLISHER</text>
<path id="path9119_2_" class="st0" d="M-50.5,21.4v0.5v61.4v0.5h0.5H6.4h0.5v-0.5V21.9v-0.5H6.4H-50H-50.5z M-49.1,22.4h55v60.4
	h-55.4V67.4c0-20.3,0.2-42.5,0.4-43.9V22.4z M-48.4,23.1l-0.2,10.2c-0.3,11.8-0.4,48.6-0.1,48.9c0.1,0.2,2.2,0.2,9.9,0.1
	c10.7-0.1,18.6-0.2,19-0.4c0.1,0,0.5-0.3,0.7-0.6l0.4-0.5l-0.6,0.1c-0.8,0.1-1-0.1-0.5-0.6c1.4-1.1,1.6-1.3,1.6-1.7
	c0-0.4-0.1-0.5-1-0.7c-0.6-0.1-1.1-0.3-1.2-0.3c-0.4-0.3,0-0.5,0.9-0.5h0.9l-0.6-0.5c-0.7-0.6-2-1.4-2.1-1.4s-0.5-0.2-1-0.4
	c-0.5-0.2-1.6-0.6-2.4-0.8c-1.9-0.4-3.3-1.2-4.4-2.4c-0.7-0.8-1-1.6-0.8-2.1c0-0.1,0.2,0,0.4,0.4c1,1.8,3,3.1,5,3.4
	c1.6,0.2,3.7,1.2,5.3,2.3c0.8,0.5,1.7,1.2,2,1.4c0.3,0.2,1.1,0.6,1.6,0.8l1,0.3l0.8-0.4c1.7-0.7,2.4-1.9,2.2-3.4
	c-0.1-1.1,0-1.3,0.6-1c0.3,0.1,0.4,0.4,0.4,0.8c0,0.3,0.1,0.6,0.2,0.6c0.1,0,0.2-0.1,0.2-0.1c0-0.7,3.5-3.1,4.4-3.1
	c0.4,0,0.1,0.4-0.6,0.7c-0.8,0.4-4,3.4-3.7,3.5c0.2,0.1,1.6-0.8,2.3-1.4C-7.4,74-7,74-7,74.4s-1.8,1.7-3.3,2.5
	c-1.3,0.7-1.4,0.7-0.8,0.7c1.5,0,4.6-1.1,5.4-1.9c0.8-0.9,1.7-2.8,1.8-4.3c0.2-1.3,0.4-2.1,0.7-2.1s0.6,0.3,0.5,0.7
	c-0.1,0.3,0,0.3,0.2,0.3s0.3-0.1,0.3-0.3c0-0.2,0.1-0.6,0.2-0.9c0.1-0.3,0.3-1,0.4-1.4c0.1-1,0.3-1.2,0.8-0.9
	c0.2,0.1,0.4,0.2,0.4,0.1c0.4-0.4,1.2-2.4,1.2-2.8c0-0.7,0.2-0.8,0.5-0.6c0.1,0.1,0.2,0.5,0.2,1c0,1,0.4,1.4,0.7,0.7
	c0.4-1,0.9-4.4,0.9-5.9c0-1.1,0.3-1.4,0.4-0.4c0.1,0.4,0.1,0.8,0.2,1.1c0,0.2,0,1.2-0.1,2.2c-0.3,2.9-0.3,3.3,0.2,3.5
	c0.5,0.2,0.5,0.5,0.1,2.8c-0.3,2.1-0.3,1.9,0.1,2.1c0.6,0.2,0.6,1,0.1,1.6S3.6,73,3.8,73.1C3.9,73.2,4,73.3,4,73.5
	c0,0.4-0.7,0.4-1.2,0c-0.3-0.3-0.5-0.3-0.9-0.1c-0.7,0.3-0.7,0,0-0.8c1.2-1.3,0.9-1.6-0.3-0.3c-0.8,0.8-1.7,1.5-2.1,1.5
	c-0.2,0,0.7-2,1.2-2.5C1,71,1.1,70.7,1.1,70.2c0-0.4,0.1-0.8,0.2-0.8c0.2-0.1,0.5-1.3,0.5-1.9c0-0.2,0.1-0.5,0.2-0.6
	c0.1-0.2,0.1-0.3,0-0.3c-0.3,0-0.5,0.4-0.8,1.8c-0.4,1.5-0.6,2.3-0.9,2.6c-0.2,0.3-0.5,0.1-0.3-0.3c0.1-0.2,0.2-0.7,0.3-1.2
	s0.2-1,0.3-1.2c0.1-0.1,0.1-0.3-0.1-0.6l-0.3-0.4L0,67.7c-0.1,0.2-0.1,0.6-0.1,0.8C0,69-0.8,72.2-1.4,73.4c-0.3,0.6-0.6,1-0.8,1
	s-0.2-0.1-0.2-0.3c0.1-0.2,0.2-0.7,0.3-1.1s0.3-0.8,0.3-0.8c0.2,0,0.2-1,0-1.1s-0.2,0-0.5,1.2c-0.2,1.1-0.6,1.9-1.1,2.7
	c-0.4,0.6-0.4,0.7-0.1,0.8c0.4,0.3,0.2,0.9-0.4,1.2c-0.6,0.3-0.8,0.8-0.3,1.2c0.5,0.4,0.4,0.8-0.1,1.1c-0.6,0.4-4.3,0.8-6.1,0.8
	c-1.5,0-3.5-0.5-3.4-0.8c0-0.1,0.3-0.2,0.5-0.2c1.1,0.1,3.8-0.3,4.5-0.5c1.7-0.7,2.9-1.3,2.9-1.5s-0.2-0.2-1,0.3
	c-0.4,0.2-0.9,0.4-1.1,0.4c-0.2,0-0.6,0.1-1,0.2c-0.4,0.1-1.7,0.3-2.9,0.4s-2.4,0.2-2.7,0.3c-0.3,0.1-0.6,0.1-0.7,0
	s-0.5-0.2-0.8-0.3c-0.7-0.1-0.7,0-0.3,1c0.3,0.7,0.3,1.3,0.2,1.3s-0.3-0.1-0.6-0.3c-0.5-0.3-0.4-0.3-1.2,0.6l-0.8,0.8h2
	c1.8,0,2.1,0,2.4-0.3c0.3-0.3,0.3-0.3,0-0.8c-0.2-0.2-0.5-0.5-0.7-0.5c-0.3-0.1-1-1.2-0.8-1.4c0.2-0.2,1,0.2,1.7,0.8
	c0.7,0.7,0.7,0.8,0.6,1.4v1.1l7.8,0.1c4.3,0,8.5,0,9.2,0l1.4-0.1H5v-1.8v-0.6v-1.2V78v-1v-0.6v-1.7v-0.6v-0.3v-0.5v-2.1v-1.1v-0.7
	v-3.7v-0.1v-4.2V61v-2.5v-4c0-0.1,0-0.1,0-0.2v-2.8l0,0c-0.1-5-0.1-21.9,0.2-23.8v-0.9c-0.1-0.3-0.1-0.7,0-1.4
	c0.1-1.2,0.1-1.9-0.1-2.1c0,0-0.6-0.1-1.4-0.1h-52.1V23.1z M-36.1,24.2c0.1,0,0.2,0.1,0.4,0.4c1,1.2,1.3,1.9,1.3,3.1
	c0,2.2-0.3,4.2-0.9,5.1l-0.4,0.5l0.4,0.2c0.3,0.1,0.5,0.1,0.9-0.1c0.7-0.3,1.4-2.2,1.1-3c-0.2-0.6-0.2-0.7,0.7-0.8
	c0.6-0.1,0.8,0,2.3,1.2c1.6,1.3,1.6,1.3,2.1,1.1c1.2-0.6,3.9-1.6,4.9-1.7c0.6-0.1,2-0.1,3.1-0.1c7.6,0.1,13.2,3,18,9.1
	c1.5,2,3.3,6.3,3.7,8.9c0.1,0.7,0.1,0.7-0.3,0.9c-1.1,0.4-1.7,1.7-1.7,3.5c0,1.3,0.5,2.2,1.5,2.9l0.7,0.5l-0.3,0.4
	c-0.2,0.4-0.3,0.7-0.3,0.8c0,0.2-1.1,2.5-1.4,2.9c-2.7,4.1-4.2,5.7-7.6,7.9c-1,0.7-3,1.6-3.4,1.6c-0.1,0-0.4,0.1-0.5,0.2
	c-0.1,0.2-0.5,0.4-0.8,0.4c-0.3,0.1-1.3,0.3-2.2,0.4c-0.9,0.2-2.1,0.4-2.7,0.4c-0.6,0.1-1.5,0.2-1.9,0.3c-1.9,0.5-6.9-0.9-10.4-2.8
	c-0.6-0.3-1.2-0.6-1.3-0.6c-0.3,0.1-0.2,3,0.2,4.9c0.2,1,0.6,2.3,0.9,2.9c0.5,1.1,0.8,1.3,2.1,1.3s1.9-0.2,2.8-1.1
	c0.7-0.6,1-0.8,1.4-0.8c0.7,0,1,0.6,0.7,1.5c-0.3,0.8-0.9,1.2-2.3,1.6c-1.4,0.4-3.1,0.3-4.5-0.2c-1.1-0.4-1.4-0.4-2.5,0.2
	c-1.2,0.6-1.3,0.5-1.1-1.2c0.1-1.2,0.1-1.4-0.3-2.1c-0.7-1.3-1-1.5-1.9-1.3c-1.4,0.4-2,1.7-1.7,4c0.1,1,0.1,1.1-0.4,1.3
	c-0.4,0.2-0.5,0.2-0.7,0c-0.4-0.5-1-0.7-2.5-0.6c-1.9,0.1-2.8-0.2-3.6-1c-0.6-0.5-0.7-0.7-0.7-1.4c0-0.9,0.1-1,0.7-1.4
	c0.8-0.5,1-0.5,1.6,0c0.5,0.4,0.5,0.5,0.5,1.7c0,1.5,0.1,1.6,1.2,1.3c1.2-0.3,1.4-0.8,1.8-3.2c0.2-1.2,0.4-2.6,0.5-3.1
	c0.2-0.9,0.4-3.3,0.7-7.1c0.2-3.8,0.2-6.3,0-7.2c-0.7-2.7-1.1-2.7-2.4-0.2c-0.3,0.6-0.6,1.1-0.7,1.2c-0.2,0,0-1.3,0.4-2.1
	c0.1-0.4,0.2-0.7,0.2-0.8c-0.1-0.3-1.2,0.4-1.7,1s-0.5,0.6-0.3,1.9c0.2,1.5,0.6,2,1.7,2.2c0.4,0.1,0.8,0.1,1,0.2
	c0.5,0.2-0.4,0.5-1.5,0.6c-0.9,0.1-1.1,0.1-1.1,0.4c0,0.3,0.1,0.4,0.6,0.6c0.5,0.2,0.6,0.3,0.6,0.6s-0.1,0.4-0.3,0.3
	c-0.8-0.3-0.9-0.3-1,0.3c-0.1,0.5,0,0.7,0.2,0.9c0.4,0.3,1.1,2.1,1,2.2c-0.2,0.2-0.8-0.5-0.9-1.1c-0.2-0.7-0.4-0.7-0.5,0.1
	c-0.1,1.7-0.9,3.4-2.2,4.8c-0.6,0.6-0.8,1.5-0.7,2.7c0,0.4-0.1,1.5-0.2,2.4c-0.3,1.6-0.2,1.8,0,2.9c0.2,0.6,0.4,1.3,0.5,1.5
	c0.4,0.5,1.5,0.8,2.1,0.6c0.4-0.2,0.6-0.1,1.2,0.2c0.9,0.5,2,0.4,2.9-0.1c0.4-0.2,0.8-0.4,0.9-0.3c0.1,0,1.3,0.1,2.9,0.1
	c2.5,0,2.9,0.1,4.4,0.5c1.8,0.5,4.1,0.7,5.4,0.3c0.4-0.1,0.8-0.2,0.9-0.1c0.2,0.2-0.5,0.6-1.4,0.8c-0.9,0.2-2.7,0.2-3.4,0.1
	c-0.2,0-1.1-0.3-1.9-0.5c-1.4-0.4-1.9-0.4-4.3-0.4c-2,0-2.8,0.1-3.2,0.3c-0.9,0.4-2.3,0.5-3,0.2c-0.4-0.2-0.9-0.3-1.7-0.3
	c-0.6,0-1.3-0.1-1.5-0.2c-0.5-0.2-1-1.1-1.4-2.6c-0.3-0.9-0.3-1.1-0.1-1.9c0.1-0.6,0.2-1.8,0.2-3.1c0-1.9,0-2.3,0.2-2.5
	S-46,70-46,69.8s0.2-0.8,0.5-1.4c0.4-0.8,0.5-1.3,0.5-2.1c0-1,0-1-0.4-0.7c-0.2,0.2-0.4,0.3-0.5,0.2s0-0.5,0.7-2.3
	c0.2-0.6,0.5-1.9,0.7-2.8c0.2-2,0.8-3.6,1.6-4.8c1-1.5,3-2.2,4.3-1.6c0.6,0.3,0.6,0.4,0.7,1.2c0.1,0.5,0.2,0.9,0.3,0.9
	c0.3,0,0-12.7-0.3-15.9c-0.4-3.8-1.5-6.8-2.6-7.6c-0.7-0.5-1.1-0.4-1.2,0.3c-0.2,0.8-1.4,1.6-2.2,1.4c-0.9-0.2-1.2-0.5-1.4-1.2
	c-0.2-0.6-0.2-0.8,0.1-1.6c0.2-0.5,0.5-1.1,0.7-1.3c0.4-0.4,0.6-0.4,1.6-0.4c0.7,0,1.5,0.2,2,0.4c0.6,0.2,1.2,0.4,1.7,0.4
	c0.7,0,0.9-0.1,1.3-0.6c0.5-0.6,1-0.8,1.3-0.4c0.1,0.1-0.1,0.3-0.3,0.4c-0.3,0.2-0.4,0.4-0.4,1.2c0,0.7,0.1,0.9,0.2,0.9
	c0.1,0,0.4,0.2,0.7,0.4c0.2,0.2,0.5,0.4,0.5,0.4c0.2,0,0.8-2,1-3.3c0.1-1.1,0.1-1.1-0.4-1.6c-0.6-0.6-1.6-1-2.4-1
	c-0.6,0-0.6,0-0.6-0.4c0.1-0.6,0.8-0.8,1.7-0.4c0.4,0.2,0.8,0.5,1,0.6c0.3,0.3,0.8,0.4,0.8,0.2c0-0.2-1.3-1.1-2.1-1.3
	c-0.4-0.1-1-0.2-1.3-0.2c-0.8,0-2.7,0.4-3.7,0.9c-1.2,0.4-3.7,0.6-4.1,0.4c-0.3-0.2-0.1-1.4,0.2-1.4c0.1,0,0.5,0.2,0.9,0.3
	c0.5,0.2,0.9,0.3,1.3,0.3c0.9-0.1,2.3-0.8,2.4-1.1c0.1-0.2,0.4-0.2,1.1-0.2c0.6,0,1.1-0.1,1.4-0.2c0.4-0.2,0.6-0.2,1.6,0.4
	c1.2,0.6,1.4,0.6,0.9-0.1c-0.2-0.2-0.2-0.5-0.2-0.7C-36.2,24.2-36.2,24.2-36.1,24.2z M-3.4,26.3c0.1,0,0.3,0.3,0.4,0.7
	c0.5,1.3,1.4,2.2,1.2,1.2c-0.1-0.3,0-0.6,0.1-0.7c0.2-0.2,0.2-0.2,0.3,0c0.1,0.1,0.2,0.4,0.2,0.5c0,0.5,1,1.8,1.6,2.1
	c0.3,0.1,1,0.4,1.5,0.5c1.1,0.3,1.5,0.6,1.2,1.1c-0.2,0.4-0.1,0.5,0.7,0.9c0.6,0.3,0.8,0.9,0.5,1.3c-0.3,0.4-0.6,0.3-1.4-0.4
	C2.5,33.2,2.1,32.9,2,33c-0.1,0,0.5,0.7,1.3,1.5c1.1,1,1.5,1.5,1.4,1.7s-0.2,0.2-0.6,0c-0.2-0.2-0.5-0.3-0.5-0.3
	c-0.1,0,0,1.9,0.2,2.2c0.3,0.5,0.3,5.7,0,6.6c-0.3,1-0.5,0.8-0.5-0.4c0-0.6-0.2-2-0.5-3.1S2.3,39,2.2,38.7c0-0.3-0.1-0.5-0.2-0.5
	c-0.1,0-0.2,0.1-0.2,1.1c0,0.7-0.4,1.2-0.7,0.8c-0.2-0.3-0.2-1,0-1.7c0.3-0.8,0-1-0.7-0.6c-0.3,0.1-0.6,0.3-0.7,0.3
	c-0.3,0-0.2-0.7,0.1-1.1c0.1-0.2,0.3-0.5,0.3-0.6c0-0.2,0.1-0.5,0.3-0.7c0.2-0.3,0.2-0.5,0.1-0.8c-0.2-0.4-0.2-0.4-0.4-0.1
	C0,35,0,35.3,0,35.5c0,0.3-0.5,0.8-0.9,0.8c-0.7,0-1-1.3-0.5-1.9c0.2-0.2,0.3-0.6,0.4-1.1c0-0.7,0.1-0.7,0.5-0.8
	c0.7-0.1,0.9-0.3,0.6-0.7c-0.1-0.2-0.3-0.4-0.6-0.3c-0.3,0-0.6-0.2-1.2-0.8c-0.5-0.6-1.2-1-2.2-1.5c-1.4-0.7-1.4-0.7-1.6-1.5
	c-0.1-0.5-0.1-0.9-0.1-0.9c0.2-0.1,0.8,0.5,1.1,1.2c0.3,0.6,0.5,0.8,0.9,0.8c0.3,0,0.4-0.5,0.1-0.8C-3.7,27.4-3.7,26.3-3.4,26.3z
	 M3.8,26.4c0.5,0,0.7,0.4,0.4,0.8c-0.3,0.3-0.8,0.3-1,0C3.1,26.7,3.3,26.4,3.8,26.4z M-39.4,26.6c0.8,0,0.6,0.2-0.7,0.7
	c-1.5,0.5-2.2,0.6-2.2,0.2c0-0.4,0.4-0.6,1.8-0.8C-40,26.6-39.6,26.6-39.4,26.6z M-15.8,26.7c0.6,0,0.9,0.1,1.4,0.3
	c1,0.5,2.2,0.5,4.2,0.1c0.8-0.2,2-0.3,2.5-0.2c0.9,0,1.1,0.1,1.1,0.4s-0.2,0.3-1.4,0.4c-0.7,0.1-1.4,0.2-1.5,0.2
	c-0.4,0.3-0.1,0.4,1.2,0.5c1.6,0.1,3.6,0.6,4.9,1.2c1.5,0.7,1.8,1.4,1,2.2c-0.5,0.5-0.7,0.5-1.3-0.1c-0.4-0.4-0.6-0.5-1.7-0.5
	c-0.7,0-1.4,0-1.5,0.1c-0.2,0.1-0.5,0-0.9-0.4c-0.4-0.3-1.2-0.7-2-1c-0.8-0.3-1.5-0.6-1.6-0.7c-0.1-0.1-0.6-0.2-1.1-0.3
	s-1.4-0.4-2.2-0.7c-2.1-0.9-2.7-0.9-4.4-0.5c-1.1,0.3-2,0.4-3.3,0.4c-1.6,0-2.1-0.1-3.8-0.6c-2.2-0.6-2.5-1-0.5-0.6
	c4.3,0.9,5,0.9,7.4,0.2c0.8-0.2,2-0.5,2.7-0.6C-16.2,26.7-16,26.7-15.8,26.7z M1.1,27.1c0.1,0,0.3,0,0.6,0.2
	c1.5,0.7,2.1,1.6,1.4,2.2c-0.4,0.4-1.7,0.4-2.4,0c-1-0.5-1-1.6,0-2.2C0.8,27.2,1,27.1,1.1,27.1z M-21.8,32.1c-1,0-2,0.1-2.6,0.3
	c-1.4,0.4-4,1.9-4.8,2.8c-1.2,1.3-1.9,2.8-2.4,5.1c-0.4,1.9-0.4,2.5-0.4,6.2c0,2.3-0.1,6.8-0.2,10l-0.2,5.9l0.8,1.1
	c1.4,2,4.1,3.8,7.4,5c0.8,0.3,1.4,0.4,2.6,0.4c1.4,0,3.8-0.3,4.7-0.7c1.4-0.6,3.3-1.5,4.2-2.1c1.5-1,4.2-3.7,4.2-4.3
	c0-0.1,0.1-0.2,0.3-0.3c0.1-0.1,0.3-0.2,0.3-0.3s0.1-0.3,0.2-0.3c0.2-0.1,1.6-2.8,1.6-3.2c0-0.2,0.1-0.4,0.1-0.5
	c0.4-0.4,1.1-4.6,1.1-6.3c0-2.2-0.4-4.9-0.8-6.3c-0.6-1.9-1-3.1-1.2-3.3c-0.1-0.1-0.4-0.6-0.6-1c-0.2-0.5-0.6-1-0.8-1.1
	c-0.2-0.2-0.3-0.4-0.3-0.5c0-0.2-3.5-3.8-3.7-3.8c-0.1,0-0.4-0.2-0.7-0.4c-1-0.7-3.3-1.8-4.7-2.2C-19,32.3-20.5,32.1-21.8,32.1z
	 M0.7,32.5c-0.2,0-0.3,0.1-0.3,0.2c0,0.1,0.1,0.2,0.3,0.2C0.8,32.9,1,33,1,33.2c0,0.2,0.3,0.9,0.7,1.7s0.8,1.6,0.9,1.9
	c0.3,0.7,0.4,0.7,0.3,0c-0.1-0.4,0-0.6,0.2-0.7c0.3-0.2,0.2-0.5-0.3-0.5c-0.2,0-0.5-0.4-0.8-1.1c-0.2-0.6-0.4-1.1-0.4-1.2
	C1.6,33,1,32.5,0.7,32.5z M-22.5,35.1c0.7,0,1.2,0.1,2.3,0.5c1.4,0.5,3.8,0.9,5.2,0.9c0.7,0,2.2,1.8,1.7,2c-0.1,0-0.3,0.2-0.5,0.3
	c-0.3,0.2-0.3,0.3,0.2,0.2c0.4-0.1,0.5,0,0.7,0.4c0.1,0.3,0.4,0.6,0.8,0.8c1.4,0.6,3.2,1.8,3.7,2.5c1,1.2,1.6,3.1,1.1,3.1
	c-0.1,0-0.2-0.1-0.2-0.2c0-0.1-0.1-0.3-0.1-0.3c-0.1,0-0.3-0.3-0.4-0.7c-0.2-0.6-2.1-2.7-2.4-2.7c-0.1,0-0.5-0.2-1-0.5
	s-0.9-0.5-1-0.4c-0.1,0.1,0.2,0.4,2,1.8c1,0.8,1.6,1.6,1.4,1.8c-0.1,0.1-6.4-0.2-7-0.3c-1.2-0.2-2.2-1.3-3.3-3.5
	c-0.7-1.4-2-2.5-3.1-2.8c-0.5-0.1-1-0.3-1.2-0.4c-0.3-0.1-0.4-0.1-0.9,0.4c-0.8,0.7-1.1,1.4-1.1,2.5c0,1.7,0.6,2.9,1.7,3.6
	c1,0.6,4.8,1.8,9.4,3c1,0.3,3.1,1.3,3.4,1.7c0.2,0.2,0.4,0.4,0.5,0.5c0.5,0.3,1.2,1.7,1.5,2.9c0.3,1.7,0.1,3.4-0.6,4.9
	c-0.7,1.4-2.4,3.3-3.5,3.7c-0.9,0.3-3.5,0.4-6.8,0.2c-2.6-0.2-3.1,0-3.8,1.5c-0.5,0.9-0.5,1-0.3,1.4c0.3,0.6,1.8,1.2,3.4,1.5
	c0.9,0.1,1.4,0.3,1.6,0.5c0.5,0.5,0.1,0.7-1.1,0.4c-1-0.3-1.2-0.2-0.6,0.3c0.2,0.2,0.3,0.4,0.3,0.5c-0.2,0.2-0.9,0.2-1.1-0.1
	c-0.1-0.1-0.6-0.5-1.1-0.8c-1-0.6-1-0.5-0.6,1c0.1,0.5,0.3,1,0.3,1.1s-0.2,0.1-0.3,0.1c-0.3,0-0.5-0.3-0.8-1.8
	c-0.1-0.4-0.2-0.6-0.5-0.6c-0.2,0-0.3,0.1-0.3,0.2s-0.2,0-0.5-0.3c-0.4-0.4-0.5-0.6-0.6-1.7c-0.2-1.9,0.4-3.6,1.7-5.4
	c0.2-0.3,0.4-0.7,0.4-0.7c0-0.2-1.1,0.7-2.4,1.9c-1,0.9-1.3,0.9-1.2,0.2c0-0.4,0.2-0.8,1-1.6c0.5-0.5,1-1,1-1.1c0,0-0.2-0.1-0.4-0.1
	s-0.8,0.4-1.4,1c-1.1,1.1-1.3,1.2-1.4,0.8c-0.2-0.5-0.1-0.7,0.5-1.5c0.7-0.9,0.7-0.9,0.3-1c-0.2-0.1-0.5,0.1-0.8,0.4
	c-0.6,0.6-0.7,0.6-1,0.3c-0.2-0.2-0.2-0.4,0-0.8c0.2-0.6,0-1-0.4-0.9c-0.5,0.2-0.2-0.5,0.3-0.8s0.5-0.4,0.4-0.9s0-0.8,0.8-1.8
	c0.9-1.3,1-1.4,0.8-1.4s-1.8,1.5-2.4,2.3c-1,1.3-1,0.5,0-0.9c1.3-1.7,2.7-2.5,6.5-3.4c1.5-0.4,2.7-0.7,2.7-0.7
	c0-0.1-0.5-0.3-1.1-0.5c-1.6-0.5-3.2-1.3-4.2-2.1c-0.7-0.5-1.1-1-1.6-2c-0.9-1.8-1-2.5-0.4-4.1c0.6-1.5,1.1-2.3,2-3
	c1.1-0.8,1.8-1,3.4-1.1C-22.9,35.1-22.7,35.1-22.5,35.1z M-40.3,36.8c0.3,0,0.6,0,0.8,0.1c0.5,0.2,0.3,0.4-0.2,0.4
	c-1.4,0-2.5,2.1-2.5,4.9c0,0.8,0,0.9,0.8,1.6l0.8,0.7l-0.5,0.1c-0.3,0.1-0.5,0.2-0.5,0.5c0,0.5,0.4,1.4,0.8,1.7
	c0.2,0.1,0.3,0.4,0.3,0.7s-0.1,0.4-0.3,0.3c-0.3-0.1-0.3,0.1-0.4,1.7c-0.1,2.1-0.4,2.9-1.5,4c-0.6,0.6-0.7,0.6-1.6,0.6
	c-1.1,0-1.4-0.1-1.7-1c-0.2-0.6-0.2-0.7,0.2-1c0.3-0.2,0.6-0.3,0.9-0.2s0.6,0,0.8-0.2c0.4-0.4,1.1-2.5,1.1-3.5c0-0.7,0-0.8-0.3-0.7
	c-0.6,0.3-0.8,0.2-0.8-0.3c0.2-0.8,0.1-4.2-0.1-4.3c-0.1,0-0.3,0.3-0.4,0.7s-0.3,0.9-0.5,1s-0.5,0.7-0.7,1.2
	c-0.3,0.5-0.5,0.9-0.6,0.9c-0.3,0-0.2-0.3,0.2-1c0.2-0.3,0.4-1.3,0.5-2c0.5-3,1.2-4.6,2.6-5.9C-42.4,37.2-41.2,36.8-40.3,36.8z
	 M-15.4,37.2c-0.1,0-0.2,0.1-0.3,0.2c-0.1,0.3,0,0.8,0.3,1s0.7,0.2,1.1-0.1c0.3-0.2,0.3-0.3-0.1-0.7c-0.3-0.3-0.6-0.4-0.8-0.4
	C-15.3,37.2-15.4,37.2-15.4,37.2z M-42.6,39c-0.1,0-0.2,0.2-0.3,0.7c-0.2,0.7-0.2,3-0.1,3.6c0.1,0.2,0.2,0.4,0.2,0.4
	c0.2,0,0.3-0.4,0.1-1s-0.1-1.1,0.1-2.8C-42.5,39.3-42.5,39-42.6,39z M-42.5,44.7c-0.1,0-0.1,0.1-0.1,0.3c0.7,2.2,0.7,4.6,0,6.2
	c-0.4,1.1-0.5,1.2-1.2,1.5c-0.4,0.2-0.8,0.3-1,0.3c-0.1,0-0.2,0.1-0.1,0.2c0.4,0.6,1.7-0.2,2.4-1.3c0.7-1.2,0.9-2.5,0.6-4.7
	C-42.1,45.2-42.2,44.7-42.5,44.7z M-18.9,47.6c-0.1,0,0,0.1,0.2,0.3s0.6,0.5,1,0.7c0.7,0.4,1.1,1,1.2,2.2c0.1,0.5,0.2,0.9,0.2,0.9
	c0.3,0,0.4-0.6,0.2-1.5c-0.1-0.8-0.2-1-0.8-1.5c-0.8-0.7-0.9-0.8-1.6-1C-18.7,47.7-18.8,47.6-18.9,47.6z M-25.8,51
	c-0.4,0-0.3,0.2,0.3,0.3c0.2,0,0.7,0.1,1.1,0.1c1,0,0.4-0.2-1-0.3C-25.5,51-25.7,50.9-25.8,51z M-27,51.9C-27,51.9-27,52-27,51.9
	c0.1,0.2,0.7,0.3,1.3,0.4c1.5,0.3,1.8,0.3,1.8,0.1c0-0.1-0.5-0.2-1.2-0.3c-0.7-0.1-1.4-0.2-1.6-0.2C-26.8,51.9-26.9,51.9-27,51.9z
	 M-16.4,52.1c-0.1,0-0.3,0.2-0.6,0.5c-1.5,1.6-4.2,2.6-6.6,2.6c-0.8,0-1.1,0-0.9,0.2c0.4,0.3,2.3,0.2,3.6-0.2c2-0.5,3.7-1.4,4.2-2.2
	C-16.3,52.4-16.2,52-16.4,52.1z M-28.1,52.9c-0.4,0,0.2,0.3,1.4,0.5c1.5,0.3,2.5,0.4,2.5,0.2c0-0.1-1.4-0.4-3.4-0.7
	C-27.9,53-28,52.9-28.1,52.9z M-11.4,53C-11.4,53.1-11.5,53.1-11.4,53c-0.1,0.1,0,0.3,0.2,0.4c0.7,0.5,1,0.4,0.3-0.2
	C-11.1,53.1-11.3,53-11.4,53z M-11.8,53.8c-0.5,0-0.3,0.3,0.7,1c0.5,0.4,0.9,0.7,1,0.7c0,0-0.3-0.4-0.7-0.9
	C-11.3,54.2-11.7,53.8-11.8,53.8z M-12.6,54.5c-0.3,0-0.2,0.3,0.3,0.6c0.3,0.1,0.5,0.2,0.5,0.2s0-0.2-0.1-0.4
	c-0.1-0.2-0.3-0.4-0.5-0.4C-12.5,54.5-12.6,54.5-12.6,54.5z M-11.3,55.7c0,0-0.1,0.1,0,0.2c0.1,0.1,0.2,0.2,0.3,0.2
	c0.1,0,0.1-0.1,0.1-0.2C-11,55.8-11.1,55.7-11.3,55.7L-11.3,55.7z M-13.3,56c-0.3,0-0.2,0.5,0.1,0.6c0.2,0.1,0.6,0.5,0.9,0.9
	s0.6,0.7,0.7,0.6c0-0.1,0-0.3-0.1-0.4C-11.9,57.2-13.2,56-13.3,56z M-11.4,56.7c-0.1,0-0.1,0.1,0,0.2c0.1,0.1,0.3,0.2,0.3,0.2
	C-11,57-11.2,56.7-11.4,56.7z M-14.4,57.9c-0.1,0,0.1,0.3,0.3,0.6c0.3,0.4,0.5,0.7,0.6,0.6C-13.4,59.1-14.1,58-14.4,57.9L-14.4,57.9
	z M-13.2,58c0,0-0.1,0,0,0.2c0.1,0.1,0.3,0.3,0.4,0.5c0.4,0.5,0.6,0.4,0.3-0.1C-12.8,58.2-13.1,58-13.2,58z M-15.2,58.1
	c-0.2,0-0.1,0.3,0.3,0.8c0.6,1,0.8,1.1,0.8,0.4c0-0.3-0.1-0.6-0.5-0.9C-14.9,58.2-15.1,58.1-15.2,58.1z M-16,58.3L-16,58.3
	c-0.1,0.1,0.3,1.5,0.5,1.7c0.2,0.3,0.3,0.1,0.2-0.7c0-0.5-0.2-0.8-0.4-1C-15.8,58.3-15.9,58.3-16,58.3z M-43.5,58.7
	C-43.5,58.7-43.6,58.7-43.5,58.7c-0.3,0.2-0.4,2.2-0.3,2.6c0.1,0.2,0.2-0.2,0.3-1.1C-43.4,59.2-43.4,58.7-43.5,58.7z M-17.4,58.7
	C-17.4,58.7-17.4,58.8-17.4,58.7c-0.1,0.1,0,0.3,0,0.7c0.2,0.6,0.5,0.8,0.5,0.2C-16.8,59.3-17.2,58.7-17.4,58.7z M-19.1,58.8
	c-0.1,0.1-0.2,0.3,0,0.6c0.2,0.5,0.5,0.5,0.6,0c0.1-0.2,0-0.4-0.1-0.5C-18.8,58.8-18.9,58.8-19.1,58.8C-19,58.8-19.1,58.8-19.1,58.8
	z M-19.6,59.3c-0.1,0-0.2,0.1-0.2,0.2c0,0.1,0.1,0.2,0.2,0.2c0.1,0,0.2-0.1,0.2-0.2C-19.5,59.3-19.5,59.3-19.6,59.3z M-18.1,59.3
	c-0.2,0-0.2,0.2,0,0.4s0.4,0.1,0.3-0.2C-17.9,59.4-18,59.3-18.1,59.3z M-11.5,60.3c0.3,0,0.6,0.2,0.9,0.5c0.8,0.8,0.7,1.1-0.2,0.6
	c-0.4-0.2-0.8-0.4-0.8-0.4s-0.1,0.7-0.1,1.5c0,0.9-0.1,1.5-0.2,1.6c-0.2,0.2-0.2,0.1-0.2-0.2c0-0.6-0.4-1.7-0.6-1.7
	c-0.1,0-0.4,0.5-0.8,1c-0.9,1.2-1.2,1.3-0.8,0.3c0.3-1,0.2-1.7-0.3-1.9c-0.3-0.1-0.1-0.2,0.9-0.5c0.7-0.2,1.5-0.4,1.6-0.5
	C-11.8,60.4-11.6,60.3-11.5,60.3z M-43.6,61.7C-43.6,61.7-43.7,61.7-43.6,61.7c-0.2,0.2-0.6,2.2-0.6,2.8c0,0.5,0.1,0.4,0.4-0.2
	C-43.5,63.7-43.4,61.8-43.6,61.7z M1.7,74.2c0.1,0,0.2,0.1,0.3,0.2c0.2,0.3-0.4,1-0.8,1.1c-0.2,0-0.5,0.1-0.7,0.2
	c-0.5,0.2-0.3-0.4,0.3-0.9C1.2,74.4,1.5,74.2,1.7,74.2z M-1.5,75c0.8,0,1.1,1.6,0.7,3.1c-0.1,0.4-0.1,0.7,0,1.1
	c0.3,0.6,0.1,1.2-0.5,1.5c-0.6,0.2-0.5,0.3-0.8,0c-0.3-0.4-0.1-1.3,0.4-1.5c0.4-0.1,0.4-0.2,0.2-0.6s-0.3-0.4-1-0.3
	s-0.8,0.1-0.8-0.2c0-0.5,0.4-0.7,0.9-0.7h0.5L-2,76.3C-1.8,75.2-1.8,75-1.5,75z M3.8,75.9c0.3,0,0.6,0.1,0.6,0.2s0.1,0.1,0.1,0.2
	v0.8c-0.1,0-0.2,0.1-0.3,0.2c-0.4,0.4-0.7,0.3-0.7-0.2c0-0.3-0.1-0.6-0.3-0.7C3.1,76.3,3,76.1,3,76C3.2,76,3.5,75.9,3.8,75.9z
	 M-5,76.1c-0.2,0-0.8,0.6-0.8,0.7s0.2,0,0.4-0.1C-4.9,76.4-4.8,76.1-5,76.1z M1.2,76.1c0.1,0,0.2,0.1,0.2,0.2s-0.1,0.3-0.2,0.3
	S1,76.5,1,76.3C1.1,76.2,1.1,76.1,1.2,76.1z M2.4,76.6L2.4,76.6c0.1,0,0,0.3-0.1,0.5c-0.2,0.5-0.4,0.6-0.6,0.3
	C1.6,77.3,2.2,76.6,2.4,76.6z M0.4,76.7c0.1,0,0.2,0.1,0.2,0.3c0,0.1-0.1,0.2-0.2,0.2S0.2,77.1,0.2,77S0.3,76.7,0.4,76.7z M0.9,77.5
	c0.1,0,0.2,0.1,0.2,0.2c0,0.3-0.5,0.4-0.6,0.1c-0.1-0.1-0.1-0.2,0-0.2C0.5,77.6,0.7,77.6,0.9,77.5C0.8,77.5,0.9,77.5,0.9,77.5z
	 M2.2,77.8c0.1,0,0.1,0,0.2,0.1c0.1,0.1,0,0.2-0.1,0.2c-0.1,0.1-0.2,0-0.3-0.1C2,78,2,77.9,2.2,77.8C2.1,77.9,2.2,77.8,2.2,77.8z
	 M-0.2,78.1c0.1,0,0.2,0.1,0.2,0.2s0,0.2-0.1,0.2c0,0-0.1-0.1-0.2-0.2C-0.3,78.2-0.3,78.1-0.2,78.1z M1.1,78.2c0.1,0,0.2,0,0.3,0.1
	c0.2,0.2,0.1,0.3-0.1,0.3c-0.4,0.1-0.4,0.1-0.4-0.1C0.9,78.3,1,78.2,1.1,78.2z M3.5,78.3c0.2,0,0.4,0.1,0.7,0.2
	c0.2,0.1,0.3,0.2,0.4,0.2v1C4,79.8,3.1,79.9,3,79.8C2.8,79.5,3.1,78.4,3.5,78.3C3.4,78.3,3.4,78.3,3.5,78.3z M0.2,78.8
	c0.1,0,0.2,0.1,0.2,0.2s-0.1,0.2-0.2,0.2C0.1,79.2,0,79.1,0,79C0,78.9,0.1,78.8,0.2,78.8z M1.4,79.1c0.1,0,0.2,0.1,0.2,0.2
	s0,0.2-0.1,0.2c0,0-0.1-0.1-0.2-0.2C1.3,79.2,1.3,79.1,1.4,79.1z M1.8,79.9c0.2,0,0.3,0.1,0.4,0.4c0.1,0.4,0,0.6-0.4,0.9
	C1,81.8,0,81.7,0,81c0-0.3,0.2-0.5,0.9-0.8C1.3,80,1.6,79.9,1.8,79.9z"/>
<g>
	<path id="path9119_4_" class="st0" d="M-50.5,21.2v0.5v61.4v0.5h0.5H6.4h0.5v-0.5V21.6v-0.5H6.4h-56.5L-50.5,21.2L-50.5,21.2z
		 M-49.1,22.1h55v60.4h-55.5V67.1c0-20.3,0.2-42.5,0.4-43.9L-49.1,22.1z M-48.4,22.9L-48.6,33c-0.3,11.8-0.4,48.6-0.1,48.9
		c0.1,0.2,2.1,0.2,9.9,0.1c10.7-0.1,18.6-0.2,19-0.4c0.1,0,0.5-0.3,0.7-0.6l0.4-0.5l-0.6,0.1c-0.8,0.1-1-0.1-0.5-0.6
		c1.4-1.1,1.6-1.3,1.6-1.7c0-0.4-0.1-0.5-1-0.7c-0.6-0.1-1.1-0.3-1.2-0.3c-0.4-0.3,0-0.5,0.9-0.5h0.9l-0.6-0.5
		c-0.7-0.6-2-1.4-2.1-1.4s-0.5-0.2-1-0.4c-0.5-0.2-1.6-0.6-2.4-0.8c-1.9-0.4-3.3-1.2-4.4-2.4c-0.7-0.8-1-1.6-0.8-2.1
		c0-0.1,0.2,0,0.4,0.4c1,1.8,3,3.1,5,3.4c1.6,0.2,3.7,1.2,5.3,2.3c0.8,0.5,1.7,1.2,2,1.4c0.3,0.2,1.1,0.6,1.6,0.8l1,0.3l0.8-0.4
		c1.7-0.7,2.4-1.9,2.2-3.4c-0.1-1.1,0-1.3,0.6-1c0.3,0.1,0.4,0.4,0.4,0.8c0,0.3,0.1,0.6,0.2,0.6c0.1,0,0.2-0.1,0.2-0.1
		c0-0.7,3.5-3.1,4.4-3.1c0.4,0,0.1,0.4-0.6,0.7c-0.8,0.4-4,3.4-3.7,3.5c0.2,0.1,1.6-0.8,2.3-1.4c0.4-0.3,0.8-0.3,0.8,0.1
		s-1.8,1.7-3.3,2.5c-1.3,0.7-1.4,0.7-0.8,0.7c1.5,0,4.6-1.1,5.4-1.9c0.8-0.9,1.7-2.8,1.8-4.3c0.2-1.3,0.4-2.1,0.7-2.1
		s0.6,0.3,0.5,0.7C-2.8,70-2.7,70-2.5,70s0.3-0.1,0.3-0.3c0-0.2,0.1-0.6,0.2-0.9c0.1-0.3,0.3-1,0.4-1.4c0.1-1,0.3-1.2,0.8-0.9
		c0.2,0.1,0.4,0.2,0.4,0.1c0.4-0.4,1.2-2.4,1.2-2.8c0-0.7,0.2-0.8,0.5-0.6c0.1,0.1,0.2,0.5,0.2,1c0,1,0.4,1.4,0.7,0.7
		c0.4-1,0.9-4.4,0.9-5.9c0-1.1,0.3-1.4,0.4-0.4c0.1,0.4,0.1,0.8,0.2,1.1c0,0.2,0,1.2-0.1,2.2c-0.3,2.9-0.3,3.3,0.2,3.5
		c0.5,0.2,0.5,0.5,0.1,2.8c-0.3,2.1-0.3,1.9,0.1,2.1c0.6,0.2,0.6,1,0.1,1.6s-0.5,0.8-0.3,0.9C3.9,72.9,4,73,4,73.2
		c0,0.4-0.7,0.4-1.2,0c-0.3-0.3-0.5-0.3-0.9-0.1c-0.7,0.3-0.7,0,0-0.8C3.1,71,2.8,70.7,1.6,72c-0.8,0.8-1.7,1.5-2.1,1.5
		c-0.2,0,0.7-2,1.2-2.5c0.3-0.3,0.4-0.6,0.4-1.1c0-0.4,0.1-0.8,0.2-0.8c0.2-0.1,0.5-1.3,0.5-1.9c0-0.2,0.1-0.5,0.2-0.6
		c0.1-0.2,0.1-0.3,0-0.3c-0.3,0-0.5,0.4-0.8,1.8c-0.4,1.5-0.6,2.3-0.9,2.6C0.1,71-0.2,70.8,0,70.4c0.1-0.2,0.2-0.7,0.3-1.2
		s0.2-1,0.3-1.2c0.1-0.1,0.1-0.3-0.1-0.6L0.2,67L0,67.4c-0.1,0.2-0.1,0.6-0.1,0.8c0.1,0.5-0.7,3.7-1.3,4.9c-0.3,0.6-0.6,1-0.8,1
		s-0.2-0.1-0.2-0.3c0.1-0.2,0.2-0.7,0.3-1.1s0.3-0.8,0.3-0.8c0.2,0,0.2-1,0-1.1s-0.2,0-0.5,1.2c-0.2,1.1-0.6,1.9-1.1,2.7
		c-0.4,0.6-0.4,0.7-0.1,0.8c0.4,0.3,0.2,0.9-0.4,1.2c-0.6,0.3-0.8,0.8-0.3,1.2c0.5,0.4,0.4,0.8-0.1,1.1c-0.6,0.3-4.3,0.6-6.1,0.6
		c-1.5,0-3.5-0.5-3.4-0.8c0-0.1,0.3-0.2,0.5-0.2c1.1,0.1,3.8-0.3,4.5-0.5c1.7-0.7,2.9-1.3,2.9-1.5s-0.2-0.2-1,0.3
		c-0.4,0.2-0.9,0.4-1.1,0.4s-0.6,0.1-1,0.2s-1.7,0.3-2.9,0.4s-2.4,0.2-2.7,0.3s-0.6,0.1-0.7,0s-0.5-0.2-0.8-0.3
		c-0.7-0.1-0.7,0-0.3,1c0.3,0.7,0.3,1.3,0.2,1.3s-0.3-0.1-0.6-0.3c-0.5-0.3-0.4-0.3-1.2,0.6l-0.8,0.8h2c1.8,0,2.1,0,2.4-0.3
		c0.3-0.3,0.3-0.3,0-0.8c-0.2-0.2-0.5-0.5-0.7-0.5c-0.3-0.1-1-1.2-0.8-1.4c0.2-0.2,1,0.2,1.7,0.8c0.7,0.7,0.7,0.8,0.6,1.4v1.3
		l7.8,0.1c4.3,0,8.5,0,9.2,0l1.4-0.1H5V80v-0.6v-1.3v-0.5v-1v-0.5v-1.7v-0.5v-0.3v-0.5V71v-1.1v-0.8v-3.7v-0.1v-4.2v-0.4v-2.6v-4
		C5,54,5,54,5,53.9v-2.8l0,0c-0.1-5-0.1-21.9,0.2-23.8v-0.9c-0.1-0.3-0.1-0.7,0-1.4c0.1-1.2,0.1-1.9-0.1-2.1c0,0-0.6-0.1-1.4-0.1
		L-48.4,22.9L-48.4,22.9z M-36.1,23.9c0.1,0,0.2,0.1,0.4,0.4c1,1.2,1.3,1.9,1.3,3.1c0,2.2-0.3,4.2-0.9,5.1l-0.4,0.5l0.4,0.2
		c0.3,0.1,0.5,0.1,0.9-0.1c0.7-0.3,1.4-2.2,1.1-3c-0.2-0.6-0.2-0.7,0.7-0.8c0.6-0.1,0.8,0,2.3,1.2c1.6,1.3,1.6,1.3,2.1,1.1
		c1.2-0.6,3.9-1.6,4.9-1.7c0.6-0.1,2-0.1,3.1-0.1c7.6,0.1,13.2,3,18,9.1c1.5,2,3.3,6.3,3.7,8.9c0.1,0.7,0.1,0.7-0.3,0.9
		c-1.1,0.4-1.7,1.7-1.7,3.5c0,1.3,0.5,2.2,1.5,2.9l0.7,0.5L1.4,56c-0.2,0.4-0.3,0.7-0.3,0.8c0,0.2-1.1,2.5-1.4,2.9
		c-2.7,4.1-4.2,5.7-7.6,7.9c-1,0.7-3,1.6-3.4,1.6c-0.1,0-0.4,0.1-0.5,0.2s-0.5,0.3-0.9,0.3c-0.3,0.1-1.3,0.3-2.2,0.4
		c-0.9,0.2-2.1,0.4-2.7,0.4c-0.6,0.1-1.5,0.2-1.9,0.3c-1.9,0.5-6.9-0.9-10.4-2.8c-0.6-0.3-1.2-0.6-1.3-0.6c-0.3,0.1-0.2,3,0.2,4.9
		c0.2,1,0.6,2.3,0.9,2.9c0.5,1.1,0.8,1.3,2.1,1.3s1.9-0.2,2.8-1.1c0.7-0.6,1-0.8,1.4-0.8c0.7,0,1,0.6,0.7,1.5
		c-0.3,0.8-0.9,1.2-2.3,1.6c-1.4,0.4-3.1,0.3-4.5-0.2c-1.1-0.4-1.4-0.4-2.5,0.2c-1.2,0.6-1.3,0.5-1.1-1.2c0.1-1.2,0.1-1.4-0.3-2.1
		c-0.7-1.3-1-1.5-1.9-1.3c-1.4,0.4-2,1.7-1.7,4c0.1,1,0.1,1.1-0.4,1.3c-0.4,0.2-0.5,0.2-0.7,0c-0.4-0.5-1-0.7-2.5-0.6
		c-1.9,0.1-2.8-0.2-3.6-1c-0.6-0.5-0.7-0.7-0.7-1.4c0-0.9,0.1-1,0.7-1.4c0.8-0.5,1-0.5,1.6,0c0.5,0.4,0.5,0.5,0.5,1.7
		c0,1.5,0.1,1.6,1.2,1.3c1.2-0.3,1.4-0.8,1.8-3.2c0.2-1.2,0.4-2.6,0.5-3.1c0.2-0.9,0.4-3.3,0.7-7.1c0.2-3.8,0.2-6.3,0-7.2
		c-0.8-2.6-1.2-2.6-2.4-0.1c-0.3,0.6-0.6,1.1-0.7,1.2c-0.2,0,0-1.3,0.4-2.1c0.1-0.4,0.2-0.7,0.2-0.8c-0.1-0.3-1.2,0.4-1.7,1
		s-0.5,0.6-0.3,1.9c0.2,1.5,0.6,2,1.7,2.2c0.4,0.1,0.8,0.1,1,0.2c0.5,0.2-0.4,0.5-1.5,0.6c-0.9,0.1-1.1,0.1-1.1,0.4
		c0,0.3,0.1,0.4,0.6,0.6c0.5,0.2,0.6,0.3,0.6,0.6s-0.1,0.4-0.3,0.3c-0.8-0.3-0.9-0.3-1,0.3c-0.1,0.5,0,0.7,0.2,0.9
		c0.4,0.3,1.1,2.1,1,2.2c-0.2,0.2-0.8-0.5-0.9-1.1c-0.2-0.7-0.4-0.7-0.5,0.1c-0.1,1.7-0.9,3.4-2.2,4.8c-0.6,0.6-0.8,1.5-0.7,2.7
		c0,0.4-0.1,1.5-0.2,2.4c-0.3,1.6-0.2,1.8,0,2.9c0.2,0.6,0.4,1.3,0.5,1.5c0.4,0.5,1.5,0.8,2.1,0.6c0.4-0.2,0.6-0.1,1.2,0.2
		c0.9,0.5,2,0.4,2.9-0.1c0.4-0.2,0.8-0.4,0.9-0.3c0.1,0,1.3,0.1,2.9,0.1c2.5,0,2.9,0.1,4.4,0.5c1.8,0.5,4.1,0.7,5.4,0.3
		c0.4-0.1,0.8-0.2,0.9-0.1c0.2,0.2-0.5,0.6-1.4,0.8c-0.9,0.2-2.7,0.2-3.4,0.1c-0.2,0-1.1-0.3-1.9-0.5c-1.4-0.4-1.9-0.4-4.3-0.4
		c-2,0-2.8,0.1-3.2,0.3c-0.9,0.4-2.3,0.5-3,0.2c-0.4-0.2-0.9-0.3-1.7-0.3c-0.6,0-1.3-0.1-1.5-0.2c-0.5-0.2-1-1.1-1.4-2.6
		c-0.3-0.9-0.3-1.1-0.1-1.9c0.1-0.6,0.2-1.8,0.2-3.1c0-1.9,0-2.3,0.2-2.5s0.3-0.5,0.3-0.7s0.2-0.8,0.5-1.4c0.4-0.8,0.5-1.3,0.5-2.1
		c0-1,0-1-0.4-0.7c-0.2,0.2-0.4,0.3-0.5,0.2s0-0.5,0.7-2.3c0.2-0.6,0.5-1.9,0.7-2.8c0.2-2,0.8-3.6,1.6-4.8c1-1.5,3-2.2,4.3-1.6
		c0.6,0.3,0.6,0.4,0.7,1.2c0.1,0.5,0.2,0.9,0.3,0.9c0.3,0,0-12.7-0.3-15.9c-0.4-3.8-1.5-6.8-2.6-7.6c-0.7-0.5-1.1-0.4-1.2,0.3
		c-0.2,0.8-1.4,1.6-2.2,1.4c-0.9-0.2-1.2-0.5-1.4-1.2c-0.2-0.6-0.2-0.8,0.1-1.6c0.2-0.5,0.5-1.1,0.7-1.3c0.4-0.4,0.6-0.4,1.6-0.4
		c0.7,0,1.5,0.2,2,0.4c0.6,0.2,1.2,0.4,1.7,0.4c0.7,0,0.9-0.1,1.3-0.6c0.5-0.6,1-0.8,1.3-0.4c0.1,0.1-0.1,0.3-0.3,0.4
		c-0.5,0.2-0.6,0.4-0.6,1.1s0.1,0.9,0.2,0.9c0.1,0,0.4,0.2,0.7,0.4c0.2,0.2,0.5,0.4,0.5,0.4c0.2,0,0.8-2,1-3.3
		c0.1-1.1,0.1-1.1-0.4-1.6c-0.6-0.6-1.6-1-2.4-1c-0.6,0.2-0.6,0.2-0.6-0.2c0.1-0.6,0.8-0.8,1.7-0.4c0.4,0.2,0.8,0.5,1,0.6
		c0.3,0.3,0.8,0.4,0.8,0.2s-1.3-1.1-2.1-1.3c-0.4-0.1-1-0.2-1.3-0.2c-0.8,0-2.7,0.4-3.7,0.9c-0.8,0.4-3.4,0.6-3.7,0.4
		s-0.1-1.4,0.2-1.4c0.1,0,0.5,0.2,0.9,0.3c0.5,0.2,0.9,0.3,1.3,0.3c0.9-0.1,2.3-0.8,2.4-1.1c0.1-0.2,0.4-0.2,1.1-0.2
		c0.6,0,1.1-0.1,1.4-0.2c0.4-0.2,0.6-0.2,1.6,0.4c1.2,0.6,1.4,0.6,0.9-0.1c-0.2-0.2-0.2-0.5-0.2-0.7C-36.2,24-36.2,23.9-36.1,23.9z
		 M-3.4,26c0.1,0,0.3,0.3,0.4,0.7c0.5,1.3,1.4,2.2,1.2,1.2c-0.1-0.3,0-0.6,0.1-0.7c0.2-0.2,0.2-0.2,0.3,0c0.1,0.1,0.2,0.4,0.2,0.5
		c0,0.5,1,1.8,1.6,2.1c0.3,0.1,1,0.4,1.5,0.5c1.1,0.3,1.5,0.6,1.2,1.1c-0.2,0.4-0.1,0.5,0.7,0.9c0.6,0.3,0.8,0.9,0.5,1.3
		C4,34,3.7,33.9,2.9,33.2c-0.4-0.3-0.8-0.6-0.9-0.5c-0.1,0,0.5,0.7,1.3,1.5c1.1,1,1.5,1.5,1.4,1.7s-0.2,0.2-0.6,0
		c-0.2-0.2-0.5-0.3-0.5-0.3c-0.1,0,0,1.9,0.2,2.2c0.3,0.5,0.3,5.7,0,6.6c-0.3,1-0.5,0.8-0.5-0.4c0-0.6-0.2-2-0.5-3.1
		s-0.5-2.2-0.6-2.5c0-0.3-0.1-0.5-0.2-0.5c-0.1,0-0.2,0.1-0.2,1.1c0,0.7-0.4,1.2-0.7,0.8c-0.2-0.3-0.2-1,0-1.7c0.3-0.8,0-1-0.7-0.6
		c-0.3,0.1-0.6,0.3-0.7,0.3c-0.3,0-0.2-0.7,0.1-1.1c0.1-0.2,0.3-0.5,0.3-0.6c0-0.2,0.1-0.5,0.3-0.7c0.2-0.3,0.2-0.5,0.1-0.8
		c-0.2-0.4-0.2-0.4-0.4-0.1C0,34.7,0,35,0,35.2C0,35.5-0.5,36-0.9,36c-0.7,0-1-1.3-0.5-1.9c0.2-0.2,0.3-0.6,0.4-1.1
		c0-0.7,0.1-0.7,0.5-0.8c0.7-0.1,0.9-0.3,0.6-0.7c-0.1-0.2-0.3-0.4-0.6-0.3c-0.3,0-0.6-0.2-1.2-0.8c-0.5-0.6-1.2-1-2.2-1.5
		c-1.4-0.7-1.4-0.7-1.6-1.5c-0.1-0.5-0.1-0.9-0.1-0.9c0.2-0.1,0.8,0.5,1.1,1.2c0.3,0.6,0.5,0.8,0.9,0.8c0.3,0,0.4-0.5,0.1-0.8
		C-3.7,27.1-3.7,26-3.4,26z M3.8,26.1c0.5,0,0.7,0.4,0.4,0.8c-0.3,0.3-0.8,0.3-1,0C3.1,26.4,3.3,26.1,3.8,26.1z M-39.4,26.3
		c0.8,0,0.6,0.2-0.7,0.7c-1.5,0.5-2.2,0.6-2.2,0.2c0-0.4,0.4-0.6,1.8-0.8C-40,26.4-39.6,26.3-39.4,26.3z M-15.8,26.4
		c0.6,0,0.9,0.1,1.4,0.3c1,0.5,2.2,0.5,4.2,0.1c0.8-0.2,2-0.3,2.5-0.2c0.9,0,1.1,0.1,1.1,0.4s-0.2,0.3-1.4,0.4
		c-0.7,0.1-1.4,0.2-1.5,0.2c-0.4,0.3-0.1,0.4,1.2,0.5c1.6,0.1,3.6,0.6,4.9,1.2c1.5,0.7,1.8,1.4,1,2.2C-2.9,32-3.1,32-3.7,31.4
		c-0.4-0.4-0.6-0.5-1.7-0.5c-0.7,0-1.4,0-1.5,0.1c-0.2,0.1-0.5,0-0.9-0.4c-0.4-0.3-1.2-0.7-2-1c-0.8-0.3-1.5-0.6-1.6-0.7
		c-0.1-0.1-0.6-0.2-1.1-0.3s-1.4-0.4-2.2-0.7c-2.1-0.9-2.7-0.9-4.4-0.5c-1.1,0.3-2,0.4-3.3,0.4c-1.6,0-2.1-0.1-3.8-0.6
		c-2.2-0.6-2.5-1-0.5-0.6c4.3,0.9,5,0.9,7.4,0.2c0.8-0.2,2-0.5,2.7-0.6C-16.2,26.5-16,26.4-15.8,26.4z M1.1,26.8
		c0.1,0,0.3,0,0.6,0.2c1.5,0.7,2.1,1.6,1.4,2.2c-0.4,0.4-1.7,0.4-2.4,0c-1-0.5-1-1.6,0-2.2C0.8,26.9,1,26.8,1.1,26.8z M-21.8,31.9
		c-1,0-2,0.1-2.6,0.3c-1.4,0.4-4,1.9-4.8,2.8c-1.2,1.3-1.9,2.8-2.4,5.1C-32,42-32,42.6-32,46.3c0,2.3-0.1,6.8-0.2,10l-0.2,5.9
		l0.8,1.1c1.4,2,4.1,3.8,7.4,5c0.8,0.3,1.4,0.4,2.6,0.4c1.4,0,3.8-0.3,4.7-0.7c1.4-0.6,3.3-1.5,4.2-2.1c1.5-1,4.2-3.7,4.2-4.3
		c0-0.1,0.1-0.2,0.3-0.3c0.1-0.1,0.3-0.2,0.3-0.3s0.1-0.3,0.2-0.3c0.2-0.1,1.6-2.8,1.6-3.2c0-0.2,0.1-0.4,0.1-0.5
		c0.4-0.4,1.1-4.6,1.1-6.3c0-2.2-0.4-4.9-0.8-6.3c-0.6-1.9-1-3.1-1.2-3.3c-0.1-0.1-0.4-0.6-0.6-1c-0.2-0.5-0.6-1-0.8-1.1
		c-0.2-0.2-0.3-0.4-0.3-0.5c0-0.2-3.5-3.8-3.7-3.8c-0.1,0-0.4-0.2-0.7-0.4c-1-0.7-3.3-1.8-4.7-2.2C-19,32-20.5,31.9-21.8,31.9z
		 M0.7,32.3c-0.2,0-0.3,0.1-0.3,0.2c0,0.1,0.1,0.2,0.3,0.2C0.8,32.7,1,32.8,1,33s0.3,0.9,0.7,1.7c0.4,0.8,0.8,1.6,0.9,1.9
		c0.3,0.7,0.4,0.7,0.3,0c-0.1-0.4,0-0.6,0.2-0.7c0.3-0.2,0.2-0.5-0.3-0.5c-0.2,0-0.5-0.4-0.8-1.1c-0.2-0.6-0.4-1.1-0.4-1.2
		C1.6,32.7,1,32.3,0.7,32.3z M-40.3,36.5c0.3,0,0.6,0,0.8,0.1c0.5,0.2,0.3,0.4-0.2,0.4c-1.4,0-2.5,2.1-2.5,4.9c0,0.8,0,0.9,0.8,1.6
		l0.8,0.7l-0.5,0.1c-0.3,0.1-0.5,0.2-0.5,0.5c0,0.5,0.4,1.4,0.8,1.7c0.2,0.1,0.3,0.4,0.3,0.7s-0.1,0.4-0.3,0.3
		c-0.3-0.1-0.3,0.1-0.4,1.7c-0.1,2.1-0.4,2.9-1.5,4c-0.6,0.6-0.8,0.7-1.6,0.7c-1.1,0-1.4-0.1-1.7-1c-0.2-0.6-0.2-0.7,0.2-1
		c0.3-0.2,0.6-0.3,0.9-0.2c0.3,0.1,0.6,0,0.8-0.2C-43.7,51.1-43,49-43,48c0-0.7,0-0.8-0.3-0.7c-0.6,0.3-0.8,0.2-0.8-0.3
		c0.2-0.8,0.1-4.2-0.1-4.3c-0.1,0-0.3,0.3-0.4,0.7c-0.1,0.4-0.3,0.9-0.5,1s-0.5,0.7-0.7,1.2c-0.3,0.5-0.5,0.9-0.6,0.9
		c-0.3,0-0.2-0.3,0.2-1c0.2-0.3,0.4-1.3,0.5-2c0.5-3,1.2-4.6,2.6-5.9C-42.4,36.9-41.2,36.5-40.3,36.5z M-42.7,38.8
		c-0.1,0-0.2,0.2-0.3,0.7c-0.2,0.7-0.2,3-0.1,3.6c0.1,0.2,0.2,0.4,0.2,0.4c0.2,0,0.3-0.4,0.1-1s-0.1-1.1,0.1-2.8
		C-42.5,39-42.5,38.7-42.7,38.8z M-42.5,44.4c-0.1,0-0.1,0.1-0.1,0.3c0.7,2.2,0.7,4.6,0,6.2c-0.4,1.1-0.5,1.2-1.2,1.5
		c-0.4,0.2-0.8,0.3-1,0.3c-0.1,0-0.2,0.1-0.1,0.2c0.4,0.6,1.7-0.2,2.4-1.3c0.7-1.2,0.9-2.5,0.6-4.7C-42.1,44.9-42.2,44.4-42.5,44.4z
		 M-43.5,58.4C-43.6,58.4-43.6,58.5-43.5,58.4c-0.3,0.2-0.4,2.2-0.3,2.6c0.1,0.2,0.2-0.2,0.3-1.1C-43.4,58.9-43.4,58.5-43.5,58.4z
		 M-43.6,61.5C-43.6,61.5-43.7,61.5-43.6,61.5c-0.2,0.2-0.6,2.2-0.6,2.8c0,0.5,0.1,0.4,0.4-0.2C-43.5,63.4-43.4,61.5-43.6,61.5z
		 M1.7,73.9c0.1,0,0.2,0.1,0.3,0.2c0.2,0.3-0.4,1-0.8,1.1c-0.2,0-0.5,0.1-0.7,0.2C0,75.6,0.2,75,0.8,74.5
		C1.2,74.1,1.5,73.9,1.7,73.9z M-1.6,74.8c0.8,0,1.1,1.6,0.7,3.1C-1,78.3-1,78.6-0.9,79c0.3,0.6,0.1,1.2-0.5,1.5
		c-0.6,0.2-0.5,0.3-0.8,0c-0.3-0.4-0.1-1.3,0.4-1.5c0.4-0.1,0.4-0.2,0.2-0.6s-0.3-0.4-1-0.3s-0.8,0.1-0.8-0.2c0-0.5,0.4-0.7,0.9-0.7
		H-2l-0.1-1.1C-1.8,74.9-1.8,74.8-1.6,74.8z M3.8,75.6c0.3,0,0.6,0.1,0.6,0.2s0.1,0.1,0.1,0.2v0.9c-0.1,0-0.2,0.1-0.3,0.2
		c-0.4,0.4-0.7,0.3-0.7-0.2c0-0.3-0.1-0.6-0.3-0.7C3.1,76.1,3,75.9,3,75.8C3.2,75.7,3.5,75.6,3.8,75.6z M-5,75.8
		c-0.2,0-0.8,0.6-0.8,0.7s0.2,0,0.4-0.1C-4.9,76.1-4.8,75.8-5,75.8z M1.2,75.8c0.1,0,0.2,0.1,0.2,0.2s-0.1,0.3-0.2,0.3S1,76.2,1,76
		C1.1,75.9,1.1,75.8,1.2,75.8z M2.4,76.3L2.4,76.3c0.1,0,0,0.3-0.1,0.5c-0.2,0.5-0.4,0.6-0.6,0.3C1.6,77.1,2.2,76.3,2.4,76.3z
		 M0.4,76.5c0.1,0,0.2,0.1,0.2,0.3c0,0.1-0.1,0.2-0.2,0.2s-0.2-0.1-0.2-0.2C0.2,76.6,0.3,76.5,0.4,76.5z M0.9,77.2
		c0.1,0,0.2,0.1,0.2,0.2c0,0.3-0.5,0.4-0.6,0.1c-0.1-0.1-0.1-0.2,0-0.2C0.5,77.3,0.7,77.3,0.9,77.2C0.8,77.2,0.9,77.2,0.9,77.2z
		 M2.2,77.6c0.1,0,0.1,0,0.2,0.1c0.1,0.1,0,0.2-0.1,0.2c-0.1,0.1-0.2,0-0.3-0.1C2,77.8,2,77.6,2.2,77.6C2.1,77.6,2.2,77.6,2.2,77.6z
		 M-0.2,77.8c0.1,0,0.2,0.1,0.2,0.2s0,0.2-0.1,0.2c0,0-0.1-0.1-0.2-0.2C-0.3,77.9-0.3,77.8-0.2,77.8z M1.1,77.9c0.1,0,0.2,0,0.3,0.1
		c0.2,0.2,0.1,0.3-0.1,0.3c-0.4,0.1-0.4,0.1-0.4-0.1C0.9,78.1,1,77.9,1.1,77.9z M3.4,78c0.2,0,0.4,0.1,0.7,0.2
		c0.2,0.1,0.3,0.2,0.4,0.2v1c-0.6,0.1-1.5,0.2-1.6,0.1C2.7,79.2,3,78.1,3.4,78C3.3,78,3.4,78,3.4,78z M0.2,78.5
		c0.1,0,0.2,0.1,0.2,0.2s-0.1,0.2-0.2,0.2c-0.1,0-0.2-0.1-0.2-0.2S0.1,78.5,0.2,78.5z M1.4,78.9c0.1,0,0.2,0.1,0.2,0.2
		s0,0.2-0.1,0.2c0,0-0.1-0.1-0.2-0.2C1.3,78.9,1.3,78.9,1.4,78.9z M1.8,79.6c0.2,0,0.3,0.1,0.4,0.4c0.1,0.4,0,0.6-0.4,0.9
		C1,81.5,0,81.4,0,80.7c0-0.3,0.2-0.5,0.9-0.8C1.3,79.7,1.6,79.6,1.8,79.6z"/>
	<g>
		<path class="st0" d="M-17.7,58.3L-18,58c-0.3-0.4-0.2-0.8,0-1.3c0.1-0.3,0.1-0.5,0.1-0.6c-0.5-0.3-0.5-0.7-0.5-0.9
			c0.1-0.7,0.7-0.8,1.5-1c0.6-0.1,1-0.3,1.1-0.3c0.3-0.2,0.6-0.3,0.8-0.3l0,0c0.6,0,1.1,0.4,1.4,0.7c0.4,0.4,0.8,0.9,0.6,1.5
			c-0.1,0.3-0.5,0.5-0.8,0.5c-0.1,0-0.3,0-0.5-0.1c0,1.2-0.2,1.6-0.4,1.8c-0.1,0.1-0.3,0.3-0.7,0.3l0,0c-0.4,0-0.8-0.3-0.8-0.7l0,0
			c-0.4,0.5-0.7,0.7-1.1,0.7H-17.7z"/>
		<path class="st3" d="M-23.9,33.9c0.6,0,1,0.1,1.9,0.4c1.2,0.4,3.1,0.7,4.2,0.7c0.6,0,1.8,1.5,1.4,1.6c-0.1,0-0.3,0.1-0.4,0.2
			C-17.1,37-17,37-16.7,37c0.3-0.1,0.4,0,0.5,0.3c0.1,0.2,0.3,0.5,0.7,0.6c1.1,0.5,2.6,1.5,3,2c0.8,1,1.3,2.5,0.9,2.5
			c-0.1,0-0.1-0.1-0.1-0.2c0-0.1-0.1-0.2-0.1-0.2c-0.1,0-0.2-0.3-0.3-0.6c-0.2-0.5-1.7-2.2-2-2.2c-0.1,0-0.4-0.2-0.8-0.4
			s-0.8-0.4-0.8-0.3c-0.1,0.1,0.2,0.3,1.6,1.5c0.8,0.6,1.3,1.3,1.2,1.4c-0.1,0.1-5.2-0.2-5.7-0.2c-0.9-0.2-1.8-1.1-2.7-2.8
			c-0.6-1.1-1.6-2-2.5-2.3c-0.4-0.1-0.8-0.2-1-0.3s-0.4,0-0.8,0.3c-0.6,0.6-0.9,1.2-0.9,2c0,1.4,0.5,2.3,1.4,2.9
			c0.8,0.5,3.9,1.5,7.7,2.4c0.8,0.2,2.5,1,2.8,1.4c0.1,0.2,0.3,0.3,0.4,0.4c0.4,0.2,1,1.4,1.2,2.3c0.3,1.4,0.1,2.8-0.5,4
			c-0.5,1.2-2,2.7-2.8,3c-0.7,0.3-2.8,0.3-5.6,0.1c-2.2-0.1-2.5,0-3.1,1.2c-0.4,0.7-0.4,0.8-0.2,1.1c0.3,0.5,1.5,1,2.8,1.2
			c0.7,0.1,1.2,0.3,1.3,0.4c0.4,0.4,0.1,0.6-0.9,0.3c-0.9-0.2-1-0.1-0.5,0.3c0.2,0.1,0.3,0.3,0.2,0.4c-0.1,0.2-0.7,0.1-0.9-0.1
			c-0.1-0.1-0.5-0.4-0.9-0.6c-0.8-0.5-0.8-0.4-0.5,0.8c0.1,0.4,0.2,0.8,0.2,0.9c0,0.1-0.1,0.1-0.3,0.1c-0.3,0-0.4-0.3-0.6-1.5
			c-0.1-0.3-0.2-0.5-0.4-0.5s-0.3,0.1-0.3,0.2s-0.2,0-0.4-0.2c-0.4-0.3-0.4-0.5-0.5-1.4c-0.1-1.6,0.3-2.9,1.4-4.4
			c0.2-0.3,0.4-0.5,0.4-0.6s-0.9,0.5-2,1.5c-0.8,0.7-1,0.7-1,0.1c0-0.4,0.2-0.6,0.8-1.3c0.4-0.4,0.8-0.8,0.8-0.9
			c0,0-0.1-0.1-0.3-0.1s-0.7,0.3-1.2,0.8c-0.9,0.9-1,1-1.2,0.6s-0.1-0.6,0.4-1.2c0.6-0.7,0.6-0.7,0.3-0.8c-0.1-0.1-0.4,0.1-0.7,0.3
			c-0.5,0.5-0.6,0.5-0.8,0.2c-0.1-0.2-0.1-0.3,0-0.7c0.2-0.5,0-0.9-0.4-0.7c-0.4,0.1-0.2-0.4,0.2-0.6c0.4-0.2,0.4-0.3,0.3-0.7
			s0-0.6,0.6-1.5c0.7-1,0.8-1.2,0.6-1.2c-0.2,0-1.4,1.2-1.9,1.9c-0.8,1-0.8,0.4,0-0.7c1-1.4,2.2-2,5.3-2.8c1.2-0.3,2.2-0.6,2.2-0.6
			s-0.4-0.2-0.9-0.4c-1.3-0.4-2.6-1-3.4-1.7c-0.6-0.4-0.9-0.8-1.3-1.6c-0.7-1.5-0.8-2.1-0.3-3.3c0.5-1.3,0.9-1.8,1.7-2.4
			c0.9-0.6,1.4-0.8,2.8-0.9C-24.3,33.9-24.1,33.9-23.9,33.9z"/>
		<path class="st0" d="M-18.2,35.5c-0.1,0-0.2,0.1-0.2,0.2c-0.1,0.2,0,0.7,0.3,0.8c0.2,0.2,0.6,0.1,0.9-0.1c0.3-0.2,0.3-0.2-0.1-0.6
			c-0.2-0.2-0.5-0.3-0.7-0.3C-18.1,35.5-18.1,35.5-18.2,35.5z"/>
		<path class="st0" d="M-21,44c-0.1,0,0,0.1,0.2,0.2c0.2,0.2,0.5,0.4,0.8,0.5c0.6,0.3,0.9,0.8,1,1.8c0,0.4,0.1,0.8,0.2,0.8
			c0.2,0,0.3-0.5,0.2-1.2c-0.1-0.6-0.2-0.8-0.7-1.3c-0.7-0.6-0.7-0.7-1.3-0.8C-20.9,44.1-21,44-21,44z"/>
		<path class="st0" d="M-26.7,46.7c-0.3,0-0.2,0.1,0.3,0.2c0.2,0,0.6,0.1,0.9,0.1c0.8,0,0.3-0.1-0.8-0.3
			C-26.4,46.7-26.6,46.7-26.7,46.7z"/>
		<path class="st0" d="M-27.6,47.5L-27.6,47.5c0.1,0.1,0.5,0.3,1.1,0.3C-25.3,48-25,48-25,47.9c0-0.1-0.4-0.2-1-0.2
			c-0.5,0-1.1-0.1-1.3-0.2C-27.5,47.5-27.5,47.5-27.6,47.5z"/>
		<path class="st0" d="M-19,47.6c-0.1,0-0.3,0.1-0.5,0.4c-1.2,1.3-3.4,2.2-5.4,2.2c-0.7,0-0.9,0-0.7,0.1c0.4,0.2,1.8,0.1,2.9-0.1
			c1.6-0.4,3-1.1,3.4-1.8C-18.9,47.9-18.8,47.6-19,47.6z"/>
		<path class="st0" d="M-28.5,48.3c-0.3,0,0.2,0.2,1.1,0.4c1.2,0.3,2,0.3,2,0.1c0-0.1-1.1-0.3-2.8-0.5
			C-28.3,48.4-28.5,48.3-28.5,48.3z"/>
		<path class="st0" d="M-14.9,48.4C-15,48.4-15,48.4-14.9,48.4c-0.1,0.1,0,0.2,0.2,0.3c0.6,0.4,0.8,0.3,0.2-0.2
			C-14.7,48.5-14.9,48.4-14.9,48.4z"/>
		<path class="st0" d="M-15.3,49c-0.4,0-0.2,0.2,0.5,0.8c0.4,0.3,0.8,0.6,0.8,0.6s-0.2-0.3-0.5-0.7C-14.8,49.3-15.2,49-15.3,49z"/>
		<path class="st0" d="M-15.9,49.6c-0.3,0-0.2,0.2,0.2,0.5c0.2,0.1,0.4,0.2,0.4,0.2s0-0.1-0.1-0.3S-15.7,49.7-15.9,49.6
			C-15.8,49.6-15.9,49.6-15.9,49.6z"/>
		<path class="st0" d="M-14.8,50.6L-14.8,50.6c0,0.2,0.2,0.2,0.2,0.2l0.1-0.1C-14.6,50.6-14.7,50.6-14.8,50.6L-14.8,50.6z"/>
		<path class="st0" d="M-16.5,50.8c-0.2,0-0.1,0.4,0.1,0.5c0.1,0,0.5,0.4,0.7,0.7c0.3,0.4,0.5,0.6,0.6,0.5c0-0.1,0-0.2-0.1-0.3
			C-15.4,51.8-16.4,50.8-16.5,50.8z"/>
		<path class="st0" d="M-14.9,51.4c-0.1,0-0.1,0.1,0,0.2c0.1,0.1,0.2,0.2,0.2,0.2C-14.6,51.7-14.8,51.4-14.9,51.4z"/>
		<path class="st0" d="M-17.4,52.4c-0.1,0,0,0.2,0.2,0.5s0.4,0.5,0.5,0.5C-16.6,53.3-17.1,52.5-17.4,52.4
			C-17.3,52.4-17.4,52.4-17.4,52.4z"/>
		<path class="st0" d="M-16.4,52.4L-16.4,52.4c0.1,0.2,0.2,0.4,0.3,0.5c0.3,0.4,0.5,0.3,0.2-0.1C-16.1,52.6-16.3,52.4-16.4,52.4z"/>
		<path class="st0" d="M-18,52.5c-0.1,0-0.1,0.2,0.2,0.7c0.5,0.8,0.6,0.9,0.6,0.3c0-0.3-0.1-0.5-0.4-0.7
			C-17.8,52.6-17.9,52.5-18,52.5z"/>
		<path class="st0" d="M-18.7,52.7L-18.7,52.7c-0.1,0.1,0.3,1.2,0.4,1.4c0.2,0.2,0.2,0.1,0.2-0.5c0-0.4-0.1-0.7-0.3-0.8
			C-18.5,52.7-18.6,52.7-18.7,52.7z"/>
		<path class="st0" d="M-19.8,53.1L-19.8,53.1c-0.1,0,0,0.3,0,0.5c0.1,0.5,0.4,0.6,0.4,0.2C-19.4,53.5-19.7,53-19.8,53.1z"/>
		<path class="st0" d="M-21.2,53.1c-0.1,0-0.1,0.2,0,0.5c0.2,0.4,0.4,0.4,0.5,0c0.1-0.2,0-0.3-0.1-0.4C-20.9,53.1-21,53.1-21.2,53.1
			C-21.1,53.1-21.2,53.1-21.2,53.1z"/>
		<path class="st0" d="M-21.6,53.5c-0.1,0-0.2,0.1-0.2,0.1c0,0.1,0.1,0.1,0.2,0.1C-21.5,53.7-21.5,53.6-21.6,53.5L-21.6,53.5z"/>
		<path class="st0" d="M-20.4,53.5c-0.1,0-0.2,0.2,0,0.3c0.2,0.2,0.3,0.1,0.2-0.1C-20.2,53.6-20.3,53.5-20.4,53.5z"/>
		<path class="st3" d="M-15,54.3c0.2,0,0.5,0.1,0.8,0.4c0.7,0.7,0.6,0.9-0.2,0.5c-0.3-0.2-0.7-0.4-0.7-0.4s0,0.5,0,1.2
			c0,0.8-0.1,1.2-0.2,1.3s-0.2,0.1-0.2-0.1c0-0.5-0.3-1.4-0.5-1.4c-0.1,0-0.4,0.4-0.7,0.8c-0.7,1-0.9,1.1-0.7,0.2
			c0.2-0.8,0.1-1.4-0.3-1.6c-0.2-0.1-0.1-0.2,0.8-0.4c0.6-0.1,1.2-0.3,1.3-0.4C-15.3,54.4-15.1,54.3-15,54.3z"/>
	</g>
	<g>
		<path class="st0" d="M-12.3,63.1l-0.2-0.2c-0.2-0.2-0.1-0.5,0-0.8c0.1-0.2,0.1-0.3,0.1-0.4c-0.3-0.2-0.3-0.5-0.3-0.6
			c0-0.4,0.4-0.5,1-0.7c0.4-0.1,0.6-0.2,0.7-0.2c0.2-0.1,0.4-0.2,0.5-0.2l0,0c0.4,0,0.7,0.2,0.9,0.4c0.3,0.3,0.5,0.6,0.4,1
			c-0.1,0.2-0.3,0.3-0.5,0.3c-0.1,0-0.2,0-0.3-0.1c0,0.8-0.1,1-0.3,1.2c-0.1,0.1-0.2,0.2-0.4,0.2l0,0c-0.3,0-0.5-0.2-0.5-0.5l0,0
			c-0.4,0.5-0.5,0.6-0.8,0.6H-12.3z"/>
		<path class="st0" d="M-16.8,65.2c-0.6,0-0.7-0.5-0.9-1.1c-0.2,0-0.4-0.1-0.6-0.3c-0.4-0.4-0.4-0.6-0.5-1.2c0-0.5,0-1,0.1-1.5
			c-0.1,0-0.2,0.1-0.3,0.1c-0.2,0-0.3-0.1-0.4-0.2c-0.1-0.1-0.2-0.3-0.2-0.5c0,0,0,0-0.1,0c-0.2,0-0.4-0.1-0.6-0.5
			c-0.1-0.2-0.1-0.4-0.1-0.6c-0.2-0.1-0.3-0.2-0.4-0.3c-0.2-0.3-0.2-0.5-0.2-0.7c-0.2-0.1-0.3-0.2-0.3-0.4c-0.1-0.2,0-0.4,0.2-0.6
			h-0.3v-0.3c-0.1-0.1-0.2-0.4,0.4-1.3c0.7-1,1.6-1.5,3.6-2c-0.6-0.2-1.1-0.5-1.5-0.8s-0.7-0.6-1-1.2c-0.5-1.1-0.6-1.6-0.2-2.6
			c0.3-0.9,0.7-1.4,1.3-1.8c0.6-0.5,1.1-0.6,2.1-0.7c0.2,0,0.3,0,0.4,0c0.5,0,0.8,0.1,1.4,0.3c0.7,0.2,1.9,0.4,2.6,0.4
			c0.6,0,1.4,0.9,1.5,1.4c0,0.1,0,0.2,0,0.3c0.1,0.1,0.1,0.2,0.1,0.2l0,0c0,0,0.1,0.1,0.2,0.1c0.7,0.3,1.8,1,2.1,1.5
			c0.3,0.4,1,1.5,0.7,2.1c-0.1,0.2-0.3,0.4-0.6,0.4s-0.5-0.2-0.6-0.5c0-0.1-0.1-0.1-0.2-0.2c-0.1,0-0.2,0-0.4,0
			c-0.6,0-3.2-0.1-3.6-0.2c-0.8-0.1-1.5-0.8-2.1-2.1c-0.3-0.6-0.8-1.1-1.3-1.2c-0.1,0-0.4-0.1-0.6-0.2c0,0,0,0-0.1,0.1
			c-0.3,0.3-0.4,0.5-0.4,0.9c0,0.9,0.4,1.3,0.7,1.4c0.4,0.2,2.2,0.8,4.8,1.5c0.5,0.1,1.8,0.7,2.1,1.1c0.1,0.1,0.1,0.1,0.2,0.1
			c0.5,0.3,0.9,1.2,1,1.9c0.2,1,0.1,2-0.3,2.9c-0.4,0.8-1.4,1.9-2.1,2.2c-0.1,0-0.5,0.2-1.9,0.2c-0.6,0-1.2,0-1.9-0.1
			c-0.3,0-0.5,0-0.6,0c-0.6,0-0.6,0.1-0.9,0.5c-0.1,0.1-0.1,0.2-0.1,0.3c0.2,0.1,0.7,0.4,1.4,0.5c0.6,0.1,1,0.2,1.2,0.4
			c0.3,0.3,0.3,0.6,0.2,0.8c-0.1,0.1-0.2,0.4-0.7,0.4c-0.1,0-0.1,0-0.2,0v0.1c-0.1,0.2-0.4,0.3-0.7,0.3c-0.2,0-0.4,0-0.6-0.2
			c0,0.1,0,0.2,0,0.2v0.2l-0.2,0.2C-16.4,65.2-16.7,65.2-16.8,65.2z"/>
		<path class="st3" d="M-16.3,47.3c0.4,0,0.6,0.1,1.2,0.2c0.7,0.2,2,0.5,2.7,0.5c0.4,0,1.2,1,0.9,1.1c-0.1,0-0.2,0.1-0.3,0.2
			c-0.2,0.1-0.2,0.1,0.1,0.1c0.2,0,0.3,0,0.3,0.2c0.1,0.1,0.2,0.3,0.4,0.4c0.7,0.3,1.7,1,1.9,1.3c0.5,0.6,0.9,1.6,0.6,1.6
			c-0.1,0-0.1-0.1-0.1-0.1c0-0.1,0-0.1-0.1-0.2c0,0-0.1-0.2-0.2-0.4c-0.1-0.3-1.1-1.4-1.3-1.4c0,0-0.3-0.1-0.5-0.3
			c-0.3-0.2-0.5-0.3-0.5-0.2c-0.1,0.1,0.1,0.2,1,1c0.5,0.4,0.9,0.9,0.7,0.9c-0.1,0-3.4-0.1-3.7-0.2c-0.6-0.1-1.2-0.7-1.8-1.8
			c-0.4-0.7-1-1.3-1.6-1.5c-0.3-0.1-0.5-0.2-0.6-0.2c-0.1-0.1-0.2,0-0.5,0.2c-0.4,0.4-0.6,0.8-0.6,1.3c0,0.9,0.3,1.5,0.9,1.9
			c0.5,0.3,2.5,1,5,1.6c0.5,0.1,1.6,0.7,1.8,0.9c0.1,0.1,0.2,0.2,0.3,0.3c0.3,0.2,0.6,0.9,0.8,1.5c0.2,0.9,0.1,1.8-0.3,2.6
			c-0.4,0.8-1.3,1.7-1.8,1.9s-1.8,0.2-3.6,0.1c-1.4-0.1-1.6,0-2,0.8c-0.2,0.5-0.3,0.5-0.1,0.7c0.2,0.3,0.9,0.6,1.8,0.8
			c0.5,0.1,0.8,0.2,0.9,0.3c0.3,0.3,0,0.4-0.6,0.2c-0.6-0.1-0.6-0.1-0.3,0.2c0.1,0.1,0.2,0.2,0.1,0.2c-0.1,0.1-0.5,0.1-0.6-0.1
			c-0.1-0.1-0.3-0.3-0.6-0.4c-0.5-0.3-0.5-0.3-0.3,0.5c0.1,0.3,0.1,0.5,0.1,0.6c0,0-0.1,0.1-0.2,0.1c-0.2,0-0.3-0.2-0.4-1
			c0-0.2-0.1-0.3-0.2-0.3s-0.2,0.1-0.2,0.1s-0.1,0-0.3-0.1c-0.2-0.2-0.3-0.3-0.3-0.9c-0.1-1,0.2-1.9,0.9-2.9
			c0.1-0.2,0.2-0.3,0.2-0.4c0-0.1-0.6,0.4-1.3,1c-0.5,0.5-0.7,0.5-0.7,0.1c0-0.2,0.1-0.4,0.5-0.8c0.3-0.3,0.5-0.5,0.5-0.6
			c0,0-0.1,0-0.2,0s-0.4,0.2-0.7,0.5c-0.4,0.6-0.4,0.7-0.5,0.4s-0.1-0.4,0.3-0.8c0.4-0.5,0.4-0.5,0.2-0.5c-0.1,0-0.3,0-0.4,0.2
			c-0.3,0.3-0.4,0.3-0.5,0.1c-0.1-0.1-0.1-0.2,0-0.4c0.1-0.3,0-0.6-0.2-0.5c-0.3,0.1-0.1-0.2,0.1-0.4c0.3-0.1,0.3-0.2,0.2-0.5
			c0-0.3,0-0.4,0.4-1c0.5-0.7,0.5-0.7,0.4-0.7s-0.9,0.8-1.3,1.2c-0.5,0.7-0.5,0.3,0-0.5c0.7-0.9,1.4-1.3,3.4-1.8
			c0.8-0.2,1.4-0.4,1.4-0.4s-0.3-0.1-0.6-0.2c-0.9-0.3-1.7-0.7-2.2-1.1c-0.4-0.3-0.6-0.5-0.8-1c-0.5-0.9-0.5-1.3-0.2-2.1
			c0.3-0.8,0.6-1.2,1.1-1.6c0.6-0.4,0.9-0.5,1.8-0.6C-16.5,47.3-16.4,47.3-16.3,47.3z"/>
		<path class="st0" d="M-12.5,48.3C-12.6,48.3-12.6,48.4-12.5,48.3c-0.2,0.3-0.1,0.5,0.1,0.6s0.4,0.1,0.6-0.1
			c0.2-0.1,0.2-0.1-0.1-0.4C-12.2,48.4-12.3,48.3-12.5,48.3L-12.5,48.3z"/>
		<path class="st0" d="M-14.4,53.9c-0.1,0,0,0,0.1,0.2c0.1,0.1,0.3,0.3,0.5,0.4c0.4,0.2,0.6,0.5,0.6,1.2c0,0.3,0.1,0.5,0.1,0.5
			c0.1,0,0.2-0.3,0.1-0.8c-0.1-0.4-0.1-0.5-0.4-0.8c-0.4-0.4-0.5-0.4-0.9-0.5C-14.3,53.9-14.4,53.9-14.4,53.9z"/>
		<path class="st0" d="M-18,55.6c-0.2,0-0.2,0.1,0.2,0.2c0.1,0,0.4,0,0.6,0c0.5,0,0.2-0.1-0.5-0.2C-17.9,55.6-18,55.6-18,55.6z"/>
		<path class="st0" d="M-18.6,56.1C-18.7,56.1-18.7,56.1-18.6,56.1c0,0.1,0.3,0.2,0.7,0.2c0.8,0.1,0.9,0.1,0.9,0.1s-0.3-0.1-0.6-0.1
			s-0.7-0.1-0.9-0.1C-18.6,56.1-18.6,56.1-18.6,56.1z"/>
		<path class="st0" d="M-13.1,56.2c-0.1,0-0.2,0.1-0.3,0.2c-0.8,0.8-2.2,1.4-3.5,1.4c-0.4,0-0.6,0-0.5,0.1c0.2,0.1,1.2,0.1,1.9-0.1
			c1-0.3,1.9-0.7,2.2-1.1C-13,56.3-13,56.2-13.1,56.2z"/>
		<path class="st0" d="M-19.3,56.6c-0.2,0,0.1,0.2,0.7,0.3c0.8,0.2,1.3,0.2,1.3,0.1c0-0.1-0.7-0.2-1.8-0.4
			C-19.1,56.7-19.2,56.6-19.3,56.6z"/>
		<path class="st0" d="M-10.5,56.7L-10.5,56.7c-0.1,0,0,0.1,0.1,0.2c0.4,0.3,0.5,0.2,0.2-0.1C-10.3,56.7-10.4,56.7-10.5,56.7z"/>
		<path class="st0" d="M-10.7,57.1c-0.2,0-0.1,0.1,0.4,0.5C-10,57.8-9.8,58-9.8,58s-0.1-0.2-0.4-0.5C-10.4,57.3-10.6,57.1-10.7,57.1
			z"/>
		<path class="st0" d="M-11.1,57.5c-0.2,0-0.1,0.2,0.1,0.3c0.1,0.1,0.3,0.1,0.3,0.1s0-0.1-0.1-0.2C-10.7,57.6-10.9,57.5-11.1,57.5
			C-11,57.5-11,57.5-11.1,57.5z"/>
		<path class="st0" d="M-10.4,58.1L-10.4,58.1c0,0.1,0.1,0.2,0.1,0.2c0.1,0,0.1,0,0-0.1C-10.2,58.1-10.3,58.1-10.4,58.1L-10.4,58.1z
			"/>
		<path class="st0" d="M-11.5,58.3c-0.2,0-0.1,0.3,0.1,0.3c0.1,0,0.3,0.2,0.5,0.5c0.2,0.2,0.3,0.4,0.4,0.3c0-0.1,0-0.2,0-0.2
			C-10.7,58.9-11.4,58.3-11.5,58.3z"/>
		<path class="st0" d="M-10.5,58.6C-10.6,58.6-10.6,58.6-10.5,58.6c0.1,0.2,0.1,0.2,0.2,0.2C-10.2,58.8-10.3,58.6-10.5,58.6z"/>
		<path class="st0" d="M-12,59.3c0,0,0,0.2,0.2,0.3c0.1,0.2,0.3,0.3,0.3,0.3S-11.9,59.3-12,59.3L-12,59.3z"/>
		<path class="st0" d="M-11.4,59.3L-11.4,59.3c0,0.1,0.1,0.3,0.2,0.4c0.2,0.2,0.3,0.2,0.1-0.1C-11.2,59.4-11.4,59.3-11.4,59.3z"/>
		<path class="st0" d="M-12.5,59.4c-0.1,0,0,0.1,0.1,0.4c0.3,0.5,0.4,0.6,0.4,0.2c0-0.2-0.1-0.3-0.2-0.5
			C-12.3,59.4-12.4,59.4-12.5,59.4z"/>
		<path class="st0" d="M-12.9,59.4L-12.9,59.4c-0.1,0,0.2,0.8,0.3,0.9c0.1,0.2,0.1,0,0.1-0.4c0-0.3-0.1-0.4-0.2-0.5
			C-12.8,59.5-12.8,59.4-12.9,59.4z"/>
		<path class="st0" d="M-13.6,59.7L-13.6,59.7c0,0,0,0.2,0,0.3c0.1,0.3,0.3,0.4,0.3,0.1C-13.3,60-13.5,59.7-13.6,59.7z"/>
		<path class="st0" d="M-14.5,59.7c-0.1,0-0.1,0.1,0,0.3c0.1,0.3,0.2,0.3,0.3,0c0-0.1,0-0.2-0.1-0.3C-14.3,59.7-14.4,59.7-14.5,59.7
			L-14.5,59.7z"/>
		<path class="st0" d="M-14.8,60C-14.8,60-14.9,60-14.8,60c-0.1,0.1-0.1,0.2,0,0.2C-14.7,60.2-14.7,60.1-14.8,60
			C-14.7,60-14.7,60-14.8,60z"/>
		<path class="st0" d="M-14,60c-0.1,0-0.1,0.1,0,0.2c0.1,0.1,0.2,0.1,0.2-0.1C-13.9,60-13.9,60-14,60z"/>
		<path class="st3" d="M-10.5,60.5c0.2,0,0.3,0.1,0.5,0.3c0.4,0.4,0.4,0.6-0.1,0.3c-0.2-0.1-0.4-0.2-0.4-0.2s0,0.4,0,0.8
			c0,0.5,0,0.8-0.1,0.9c-0.1,0.1-0.1,0.1-0.1-0.1c0-0.3-0.2-0.9-0.3-0.9c0,0-0.2,0.2-0.4,0.5c-0.5,0.7-0.6,0.7-0.4,0.1
			c0.2-0.5,0.1-0.9-0.2-1c-0.3-0.1-0.2-0.1,0.4-0.3c0.4-0.1,0.8-0.2,0.9-0.3C-10.7,60.6-10.6,60.5-10.5,60.5z"/>
	</g>
</g>
<text transform="matrix(1 0 0 1 11.4522 80.915)" class="st0 st4 st5">PALS</text>
</svg>
